<?xml version="1.0" encoding="utf-8"?>
<!-- Generator: Adobe Illustrator 22.1.0, SVG Export Plug-In . SVG Version: 6.00 Build 0)  -->
<svg version="1.1" id="Layer_1" xmlns="http://www.w3.org/2000/svg" xmlns:xlink="http://www.w3.org/1999/xlink" x="0px" y="0px"
	 viewBox="0 0 2850 1800" enable-background="new 0 0 2850 1800" xml:space="preserve">
<linearGradient id="SVGID_1_" gradientUnits="userSpaceOnUse" x1="916.3898" y1="-223.4138" x2="1817.3799" y2="1766.6852">
	<stop  offset="0" style="stop-color:#040761"/>
	<stop  offset="0.1396" style="stop-color:#040966"/>
	<stop  offset="0.3015" style="stop-color:#051074"/>
	<stop  offset="0.4747" style="stop-color:#071C8B"/>
	<stop  offset="0.6556" style="stop-color:#092CAC"/>
	<stop  offset="0.8407" style="stop-color:#0B41D5"/>
	<stop  offset="1" style="stop-color:#0E56FF"/>
</linearGradient>
<rect fill="url(#SVGID_1_)" width="2850" height="1800"/>
<g opacity="0.5">
	<polygon opacity="0.45" fill="#FFFFFF" points="1112.171,1059.192 1096.027,1052.772 1085.98,1067.068 1092.4,1050.924 
		1078.104,1040.877 1094.556,1046.692 1104.295,1033.001 1098.183,1048.54 	"/>
	<polygon opacity="0.45" fill="#FFFFFF" points="1309.911,151.02 1297.211,145.969 1289.308,157.215 1294.358,144.516 
		1283.113,136.612 1296.054,141.187 1303.715,130.417 1298.907,142.641 	"/>
	<polygon opacity="0.45" fill="#FFFFFF" points="1634.786,504.33 1622.087,499.279 1614.184,510.525 1619.234,497.826 
		1607.989,489.922 1620.93,494.497 1628.591,483.727 1623.783,495.951 	"/>
	<polygon opacity="0.45" fill="#FFFFFF" points="1335.038,254.38 1341.458,238.237 1327.163,228.189 1343.306,234.609 
		1353.354,220.314 1347.538,236.765 1361.229,246.505 1345.69,240.393 	"/>
	<polygon opacity="0.25" fill="#FFFFFF" points="1200.537,769.173 1184.393,762.753 1174.346,777.048 1180.766,760.905 
		1166.47,750.857 1182.922,756.673 1192.661,742.982 1186.549,758.521 	"/>
	<polygon fill="#FFFFFF" points="994.147,288.558 990.196,286.987 987.737,290.486 989.308,286.535 985.809,284.076 
		989.836,285.499 992.219,282.148 990.724,285.951 	"/>
	<polygon fill="#FFFFFF" points="1653.549,85.156 1645.969,82.142 1641.252,88.854 1644.266,81.274 1637.554,76.557 
		1645.278,79.287 1649.851,72.859 1646.981,80.155 	"/>
	<polygon fill="#FFFFFF" points="1427.262,107.803 1423.311,106.232 1420.852,109.731 1422.423,105.78 1418.924,103.321 
		1422.951,104.744 1425.335,101.393 1423.839,105.196 	"/>
	<polygon fill="#FFFFFF" points="1697.085,836.787 1691.174,834.436 1687.495,839.67 1689.846,833.759 1684.612,830.081 
		1690.635,832.21 1694.201,827.197 1691.964,832.887 	"/>
	<polygon fill="#FFFFFF" points="1472.043,718.966 1461.851,714.912 1455.507,723.938 1459.561,713.746 1450.535,707.402 
		1460.922,711.074 1467.071,702.43 1463.212,712.241 	"/>
	<polygon opacity="0.25" fill="#FFFFFF" points="902.625,813.372 910.979,792.367 892.378,779.295 913.383,787.648 926.455,769.048 
		918.889,790.453 936.703,803.125 916.484,795.173 	"/>
	<polygon opacity="0.45" fill="#FFFFFF" points="308.418,656.429 292.274,650.009 282.227,664.305 288.647,648.161 274.351,638.114 
		290.803,643.929 300.542,630.238 294.43,645.777 	"/>
	<polygon opacity="0.45" fill="#FFFFFF" points="797.405,460.583 784.706,455.533 776.803,466.778 781.853,454.079 770.607,446.176 
		783.549,450.75 791.21,439.98 786.402,452.204 	"/>
	<polygon opacity="0.45" fill="#FFFFFF" points="402.608,917.411 393.649,913.848 388.073,921.782 391.636,912.823 383.702,907.247 
		392.832,910.474 398.237,902.876 394.845,911.5 	"/>
	<polygon opacity="0.45" fill="#FFFFFF" points="599.536,960.846 583.392,954.426 573.345,968.722 579.765,952.578 565.469,942.531 
		581.921,948.346 591.66,934.655 585.548,950.194 	"/>
	<polygon opacity="0.25" fill="#FFFFFF" points="396.784,366.409 380.64,359.989 370.593,374.285 377.013,358.141 362.717,348.094 
		379.169,353.91 388.908,340.218 382.796,355.758 	"/>
	<polygon fill="#FFFFFF" points="481.642,598.122 477.69,596.55 475.232,600.049 476.803,596.098 473.304,593.639 477.33,595.062 
		479.714,591.711 478.218,595.515 	"/>
	<polygon fill="#FFFFFF" points="786.339,615.423 778.759,612.409 774.041,619.121 777.055,611.541 770.343,606.824 
		778.068,609.554 782.641,603.126 779.771,610.422 	"/>
	<polygon fill="#FFFFFF" points="476.221,782.785 472.27,781.214 469.811,784.713 471.382,780.762 467.883,778.303 471.91,779.726 
		474.294,776.375 472.798,780.178 	"/>
	<polygon fill="#FFFFFF" points="452.084,1498.845 448.133,1497.274 445.674,1500.773 447.245,1496.822 443.746,1494.363 
		447.773,1495.786 450.156,1492.435 448.66,1496.239 	"/>
	<polygon fill="#FFFFFF" points="685.549,758.182 679.638,755.832 675.959,761.066 678.31,755.155 673.076,751.476 679.099,753.606 
		682.665,748.593 680.428,754.282 	"/>
	<polygon opacity="0.25" fill="#FFFFFF" points="550.841,121.588 559.194,100.584 540.594,87.511 561.598,95.864 574.671,77.264 
		567.104,98.669 584.918,111.341 564.7,103.389 	"/>
	<polygon opacity="0.45" fill="#FFFFFF" points="50.824,225.627 41.864,222.064 36.288,229.998 39.851,221.039 31.918,215.463 
		41.048,218.69 46.453,211.092 43.061,219.716 	"/>
	<polygon opacity="0.45" fill="#FFFFFF" points="247.751,269.062 231.607,262.642 221.56,276.938 227.98,260.794 213.684,250.747 
		230.136,256.563 239.875,242.871 233.763,258.411 	"/>
	<polygon fill="#FFFFFF" points="793.934,149.384 786.353,146.369 781.636,153.082 784.65,145.502 777.938,140.784 785.663,143.515 
		790.236,137.086 787.366,144.382 	"/>
	<polygon fill="#FFFFFF" points="124.437,91.001 120.486,89.43 118.027,92.929 119.598,88.978 116.099,86.519 120.125,87.942 
		122.509,84.591 121.013,88.394 	"/>
	<polygon fill="#FFFFFF" points="333.765,66.398 327.854,64.048 324.175,69.282 326.526,63.371 321.291,59.692 327.315,61.822 
		330.881,56.809 328.643,62.498 	"/>
	<polygon fill="#FFFFFF" points="1104.176,566.513 1093.984,562.46 1087.641,571.485 1091.694,561.293 1082.669,554.95 
		1093.055,558.622 1099.204,549.978 1095.345,559.788 	"/>
	<polygon opacity="0.25" fill="#FFFFFF" points="1114.724,94.14 1106.371,115.145 1124.972,128.217 1103.967,119.864 
		1090.895,138.464 1098.461,117.059 1080.647,104.387 1100.865,112.339 	"/>
	<polygon opacity="0.45" fill="#FFFFFF" points="1402.81,913.507 1409.23,897.363 1394.934,887.316 1411.078,893.736 
		1421.125,879.441 1415.31,895.892 1429.001,905.632 1413.462,899.519 	"/>
	<polygon opacity="0.45" fill="#FFFFFF" points="38.465,717.264 33.415,729.963 44.66,737.867 31.961,732.816 24.057,744.062 
		28.632,731.12 17.862,723.459 30.086,728.267 	"/>
	<polygon opacity="0.45" fill="#FFFFFF" points="845.498,1719.296 840.447,1731.995 851.693,1739.899 838.994,1734.848 
		831.09,1746.094 835.665,1733.152 824.895,1725.491 837.119,1730.299 	"/>
	<polygon opacity="0.45" fill="#FFFFFF" points="1598.662,636.851 1592.242,652.995 1606.538,663.042 1590.394,656.622 
		1580.347,670.918 1586.163,654.466 1572.471,644.727 1588.01,650.839 	"/>
	<polygon opacity="0.45" fill="#FFFFFF" points="147.865,897.952 131.721,891.532 121.674,905.828 128.094,889.684 113.798,879.637 
		130.25,885.452 139.989,871.761 133.877,887.3 	"/>
	<polygon opacity="0.25" fill="#FFFFFF" points="1199.01,446.116 1182.866,439.696 1172.819,453.991 1179.239,437.848 
		1164.943,427.8 1181.395,433.616 1191.134,419.925 1185.022,435.464 	"/>
	<polygon fill="#FFFFFF" points="1283.867,677.828 1279.916,676.257 1277.457,679.755 1279.029,675.804 1275.53,673.345 
		1279.556,674.768 1281.94,671.418 1280.444,675.221 	"/>
	<polygon fill="#FFFFFF" points="1437.314,344.531 1434.3,352.111 1441.012,356.829 1433.432,353.814 1428.714,360.527 
		1431.445,352.802 1425.016,348.229 1432.313,351.099 	"/>
	<polygon fill="#FFFFFF" points="1459.961,570.818 1458.39,574.769 1461.889,577.228 1457.937,575.657 1455.478,579.156 
		1456.902,575.129 1453.551,572.746 1457.354,574.242 	"/>
	<polygon fill="#FFFFFF" points="1650.033,987.473 1648.462,991.425 1651.961,993.884 1648.01,992.312 1645.551,995.811 
		1646.974,991.785 1643.623,989.401 1647.426,990.897 	"/>
	<polygon fill="#FFFFFF" points="945.363,1118.029 941.458,1119.712 942.193,1123.925 940.511,1120.02 936.298,1120.755 
		940.151,1118.914 939.467,1114.859 941.099,1118.606 	"/>
	<polygon fill="#FFFFFF" points="605.863,348.895 599.952,346.544 596.273,351.779 598.624,345.868 593.39,342.189 599.413,344.318 
		602.979,339.305 600.741,344.995 	"/>
	<polygon fill="#FFFFFF" points="144.395,410.493 140.342,420.685 149.367,427.028 139.175,422.975 132.832,432 136.503,421.614 
		127.859,415.465 137.67,419.324 	"/>
	<polygon opacity="0.45" fill="#FFFFFF" points="728.38,1443.407 741.079,1448.457 748.982,1437.212 743.932,1449.911 
		755.177,1457.814 742.236,1453.24 734.575,1464.01 739.383,1451.786 	"/>
	<polygon opacity="0.25" fill="#FFFFFF" points="138.707,1487.929 145.127,1471.785 130.832,1461.738 146.975,1468.158 
		157.023,1453.862 151.207,1470.314 164.898,1480.053 149.359,1473.941 	"/>
	<polygon fill="#FFFFFF" points="323.948,1728.395 331.528,1731.41 336.245,1724.697 333.231,1732.277 339.943,1736.995 
		332.219,1734.264 327.646,1740.693 330.516,1733.397 	"/>
	<polygon fill="#FFFFFF" points="1608.876,288.601 1602.965,286.25 1599.286,291.484 1601.637,285.573 1596.402,281.895 
		1602.426,284.024 1605.992,279.011 1603.754,284.701 	"/>
	<polygon fill="#FFFFFF" points="202.395,1187.198 192.322,1191.539 194.219,1202.406 189.878,1192.333 179.011,1194.23 
		188.951,1189.481 187.187,1179.021 191.396,1188.687 	"/>
</g>
<g opacity="0.05">
	<defs>
		<filter id="Adobe_OpacityMaskFilter" filterUnits="userSpaceOnUse" x="0" y="117.405" width="2850" height="1226.311">
			<feFlood  style="flood-color:white;flood-opacity:1" result="back"/>
			<feBlend  in="SourceGraphic" in2="back" mode="normal"/>
		</filter>
	</defs>
	<mask maskUnits="userSpaceOnUse" x="0" y="117.405" width="2850" height="1226.311" id="SVGID_2_">
		<g filter="url(#Adobe_OpacityMaskFilter)">
			<defs>
				<filter id="Adobe_OpacityMaskFilter_1_" filterUnits="userSpaceOnUse" x="0" y="117.405" width="2850" height="1226.311">
					<feFlood  style="flood-color:white;flood-opacity:1" result="back"/>
					<feBlend  in="SourceGraphic" in2="back" mode="normal"/>
				</filter>
			</defs>
			<mask maskUnits="userSpaceOnUse" x="0" y="117.405" width="2850" height="1226.311" id="SVGID_2_">
				<g filter="url(#Adobe_OpacityMaskFilter_1_)">
				</g>
			</mask>
			
				<linearGradient id="SVGID_3_" gradientUnits="userSpaceOnUse" x1="795.5277" y1="2362.1929" x2="795.5277" y2="3048.4021" gradientTransform="matrix(-0.866 0.5 -0.5 -0.866 3468.2461 2678.4773)">
				<stop  offset="0" style="stop-color:#FFFFFF"/>
				<stop  offset="0.0995" style="stop-color:#DADADA"/>
				<stop  offset="0.2883" style="stop-color:#989898"/>
				<stop  offset="0.4683" style="stop-color:#626262"/>
				<stop  offset="0.6344" style="stop-color:#383838"/>
				<stop  offset="0.7835" style="stop-color:#191919"/>
				<stop  offset="0.9103" style="stop-color:#070707"/>
				<stop  offset="1" style="stop-color:#000000"/>
			</linearGradient>
			<polygon mask="url(#SVGID_2_)" fill="url(#SVGID_3_)" points="0,1156.636 2850,117.405 2850,304.486 0,1343.716 			"/>
		</g>
	</mask>
	<polygon fill="#6B61FF" points="0,1156.636 2850,117.405 2850,304.486 0,1343.716 	"/>
	<defs>
		<filter id="Adobe_OpacityMaskFilter_2_" filterUnits="userSpaceOnUse" x="0" y="377.568" width="2850" height="1128.141">
			<feFlood  style="flood-color:white;flood-opacity:1" result="back"/>
			<feBlend  in="SourceGraphic" in2="back" mode="normal"/>
		</filter>
	</defs>
	<mask maskUnits="userSpaceOnUse" x="0" y="377.568" width="2850" height="1128.141" id="SVGID_4_">
		<g filter="url(#Adobe_OpacityMaskFilter_2_)">
			<defs>
				<filter id="Adobe_OpacityMaskFilter_3_" filterUnits="userSpaceOnUse" x="0" y="377.568" width="2850" height="1128.141">
					<feFlood  style="flood-color:white;flood-opacity:1" result="back"/>
					<feBlend  in="SourceGraphic" in2="back" mode="normal"/>
				</filter>
			</defs>
			<mask maskUnits="userSpaceOnUse" x="0" y="377.568" width="2850" height="1128.141" id="SVGID_4_">
				<g filter="url(#Adobe_OpacityMaskFilter_3_)">
				</g>
			</mask>
			
				<linearGradient id="SVGID_5_" gradientUnits="userSpaceOnUse" x1="901.071" y1="2222.2615" x2="901.071" y2="2823.5581" gradientTransform="matrix(-0.866 0.5 -0.5 -0.866 3468.2461 2678.4773)">
				<stop  offset="0" style="stop-color:#FFFFFF"/>
				<stop  offset="0.5045" style="stop-color:#777777"/>
				<stop  offset="0.8458" style="stop-color:#222222"/>
				<stop  offset="1" style="stop-color:#000000"/>
			</linearGradient>
			<polygon mask="url(#SVGID_4_)" fill="url(#SVGID_5_)" points="0,1416.798 2850,377.568 2850,466.478 0,1505.708 			"/>
		</g>
	</mask>
	<polygon fill="#6B61FF" points="0,1416.798 2850,377.568 2850,466.478 0,1505.708 	"/>
	<defs>
		<filter id="Adobe_OpacityMaskFilter_4_" filterUnits="userSpaceOnUse" x="0" y="698.62" width="2850" height="1101.38">
			<feFlood  style="flood-color:white;flood-opacity:1" result="back"/>
			<feBlend  in="SourceGraphic" in2="back" mode="normal"/>
		</filter>
	</defs>
	<mask maskUnits="userSpaceOnUse" x="0" y="698.62" width="2850" height="1101.38" id="SVGID_6_">
		<g filter="url(#Adobe_OpacityMaskFilter_4_)">
			<defs>
				<filter id="Adobe_OpacityMaskFilter_5_" filterUnits="userSpaceOnUse" x="0" y="698.62" width="2850" height="1101.38">
					<feFlood  style="flood-color:white;flood-opacity:1" result="back"/>
					<feBlend  in="SourceGraphic" in2="back" mode="normal"/>
				</filter>
			</defs>
			<mask maskUnits="userSpaceOnUse" x="0" y="698.62" width="2850" height="1101.38" id="SVGID_6_">
				<g filter="url(#Adobe_OpacityMaskFilter_5_)">
				</g>
			</mask>
			
				<linearGradient id="SVGID_7_" gradientUnits="userSpaceOnUse" x1="1054.9138" y1="1831.7488" x2="1054.9138" y2="2614.2144" gradientTransform="matrix(-0.866 0.5 -0.5 -0.866 3468.2461 2678.4773)">
				<stop  offset="0" style="stop-color:#FFFFFF"/>
				<stop  offset="0.0995" style="stop-color:#DADADA"/>
				<stop  offset="0.2883" style="stop-color:#989898"/>
				<stop  offset="0.4683" style="stop-color:#626262"/>
				<stop  offset="0.6344" style="stop-color:#383838"/>
				<stop  offset="0.7835" style="stop-color:#191919"/>
				<stop  offset="0.9103" style="stop-color:#070707"/>
				<stop  offset="1" style="stop-color:#000000"/>
			</linearGradient>
			<polygon mask="url(#SVGID_6_)" fill="url(#SVGID_7_)" points="2850,698.62 0,1712.217 0,1800 265.418,1800 2850,885.835 			"/>
		</g>
	</mask>
	<polygon fill="#6B61FF" points="2850,698.62 0,1712.217 0,1800 265.418,1800 2850,885.835 	"/>
	<defs>
		<filter id="Adobe_OpacityMaskFilter_6_" filterUnits="userSpaceOnUse" x="465.523" y="958.94" width="2384.477" height="841.06">
			<feFlood  style="flood-color:white;flood-opacity:1" result="back"/>
			<feBlend  in="SourceGraphic" in2="back" mode="normal"/>
		</filter>
	</defs>
	<mask maskUnits="userSpaceOnUse" x="465.523" y="958.94" width="2384.477" height="841.06" id="SVGID_8_">
		<g filter="url(#Adobe_OpacityMaskFilter_6_)">
			<defs>
				
					<filter id="Adobe_OpacityMaskFilter_7_" filterUnits="userSpaceOnUse" x="465.523" y="958.94" width="2384.477" height="841.06">
					<feFlood  style="flood-color:white;flood-opacity:1" result="back"/>
					<feBlend  in="SourceGraphic" in2="back" mode="normal"/>
				</filter>
			</defs>
			<mask maskUnits="userSpaceOnUse" x="465.523" y="958.94" width="2384.477" height="841.06" id="SVGID_8_">
				<g filter="url(#Adobe_OpacityMaskFilter_7_)">
				</g>
			</mask>
			
				<linearGradient id="SVGID_9_" gradientUnits="userSpaceOnUse" x1="918.4162" y1="1692.0909" x2="918.4162" y2="2259.1089" gradientTransform="matrix(-0.866 0.5 -0.5 -0.866 3468.2461 2678.4773)">
				<stop  offset="0" style="stop-color:#FFFFFF"/>
				<stop  offset="0.5045" style="stop-color:#777777"/>
				<stop  offset="0.8458" style="stop-color:#222222"/>
				<stop  offset="1" style="stop-color:#000000"/>
			</linearGradient>
			<polygon mask="url(#SVGID_8_)" fill="url(#SVGID_9_)" points="2850,958.94 465.523,1800 708.968,1800 2850,1047.847 			"/>
		</g>
	</mask>
	<polygon fill="#6B61FF" points="2850,958.94 465.523,1800 708.968,1800 2850,1047.847 	"/>
	<defs>
		<filter id="Adobe_OpacityMaskFilter_8_" filterUnits="userSpaceOnUse" x="-0.078" y="0" width="1154.964" height="405.301">
			<feFlood  style="flood-color:white;flood-opacity:1" result="back"/>
			<feBlend  in="SourceGraphic" in2="back" mode="normal"/>
		</filter>
	</defs>
	<mask maskUnits="userSpaceOnUse" x="-0.078" y="0" width="1154.964" height="405.301" id="SVGID_10_">
		<g filter="url(#Adobe_OpacityMaskFilter_8_)">
			<defs>
				<filter id="Adobe_OpacityMaskFilter_9_" filterUnits="userSpaceOnUse" x="-0.078" y="0" width="1154.964" height="405.301">
					<feFlood  style="flood-color:white;flood-opacity:1" result="back"/>
					<feBlend  in="SourceGraphic" in2="back" mode="normal"/>
				</filter>
			</defs>
			<mask maskUnits="userSpaceOnUse" x="-0.078" y="0" width="1154.964" height="405.301" id="SVGID_10_">
				<g filter="url(#Adobe_OpacityMaskFilter_9_)">
				</g>
			</mask>
			
				<linearGradient id="SVGID_11_" gradientUnits="userSpaceOnUse" x1="1265.6116" y1="3261.3789" x2="1265.6116" y2="4048.3062" gradientTransform="matrix(-0.866 0.5 -0.5 -0.866 3468.2461 2678.4773)">
				<stop  offset="0" style="stop-color:#FFFFFF"/>
				<stop  offset="0.0995" style="stop-color:#DADADA"/>
				<stop  offset="0.2883" style="stop-color:#989898"/>
				<stop  offset="0.4683" style="stop-color:#626262"/>
				<stop  offset="0.6344" style="stop-color:#383838"/>
				<stop  offset="0.7835" style="stop-color:#191919"/>
				<stop  offset="0.9103" style="stop-color:#070707"/>
				<stop  offset="1" style="stop-color:#000000"/>
			</linearGradient>
			<polygon mask="url(#SVGID_10_)" fill="url(#SVGID_11_)" points="-0.078,405.301 1154.886,0 633.751,0 -0.078,223.649 			"/>
		</g>
	</mask>
	<polygon fill="#6B61FF" points="-0.078,405.301 1154.886,0 633.751,0 -0.078,223.649 	"/>
	<defs>
		<filter id="Adobe_OpacityMaskFilter_10_" filterUnits="userSpaceOnUse" x="-0.078" y="0" width="1609.608" height="561.02">
			<feFlood  style="flood-color:white;flood-opacity:1" result="back"/>
			<feBlend  in="SourceGraphic" in2="back" mode="normal"/>
		</filter>
	</defs>
	<mask maskUnits="userSpaceOnUse" x="-0.078" y="0" width="1609.608" height="561.02" id="SVGID_12_">
		<g filter="url(#Adobe_OpacityMaskFilter_10_)">
			<defs>
				<filter id="Adobe_OpacityMaskFilter_11_" filterUnits="userSpaceOnUse" x="-0.078" y="0" width="1609.608" height="561.02">
					<feFlood  style="flood-color:white;flood-opacity:1" result="back"/>
					<feBlend  in="SourceGraphic" in2="back" mode="normal"/>
				</filter>
			</defs>
			<mask maskUnits="userSpaceOnUse" x="-0.078" y="0" width="1609.608" height="561.02" id="SVGID_12_">
				<g filter="url(#Adobe_OpacityMaskFilter_11_)">
				</g>
			</mask>
			
				<linearGradient id="SVGID_13_" gradientUnits="userSpaceOnUse" x1="1107.6735" y1="3122.137" x2="1107.6735" y2="3694.104" gradientTransform="matrix(-0.866 0.5 -0.5 -0.866 3468.2461 2678.4773)">
				<stop  offset="0" style="stop-color:#FFFFFF"/>
				<stop  offset="0.5045" style="stop-color:#777777"/>
				<stop  offset="0.8458" style="stop-color:#222222"/>
				<stop  offset="1" style="stop-color:#000000"/>
			</linearGradient>
			<polygon mask="url(#SVGID_12_)" fill="url(#SVGID_13_)" points="-0.078,561.02 1609.53,0 1359.492,0 -0.078,475.785 			"/>
		</g>
	</mask>
	<polygon fill="#6B61FF" points="-0.078,561.02 1609.53,0 1359.492,0 -0.078,475.785 	"/>
	<defs>
		<filter id="Adobe_OpacityMaskFilter_12_" filterUnits="userSpaceOnUse" x="0" y="0.698" width="2337.378" height="852.307">
			<feFlood  style="flood-color:white;flood-opacity:1" result="back"/>
			<feBlend  in="SourceGraphic" in2="back" mode="normal"/>
		</filter>
	</defs>
	<mask maskUnits="userSpaceOnUse" x="0" y="0.698" width="2337.378" height="852.307" id="SVGID_14_">
		<g filter="url(#Adobe_OpacityMaskFilter_12_)">
			<defs>
				<filter id="Adobe_OpacityMaskFilter_13_" filterUnits="userSpaceOnUse" x="0" y="0.698" width="2337.378" height="852.307">
					<feFlood  style="flood-color:white;flood-opacity:1" result="back"/>
					<feBlend  in="SourceGraphic" in2="back" mode="normal"/>
				</filter>
			</defs>
			<mask maskUnits="userSpaceOnUse" x="0" y="0.698" width="2337.378" height="852.307" id="SVGID_14_">
				<g filter="url(#Adobe_OpacityMaskFilter_13_)">
				</g>
			</mask>
			
				<linearGradient id="SVGID_15_" gradientUnits="userSpaceOnUse" x1="865.6418" y1="2882.3669" x2="865.6418" y2="3389.3423" gradientTransform="matrix(-0.866 0.5 -0.5 -0.866 3468.2461 2678.4773)">
				<stop  offset="0" style="stop-color:#FFFFFF"/>
				<stop  offset="0.5045" style="stop-color:#777777"/>
				<stop  offset="0.8458" style="stop-color:#222222"/>
				<stop  offset="1" style="stop-color:#000000"/>
			</linearGradient>
			<polygon mask="url(#SVGID_14_)" fill="url(#SVGID_15_)" points="2093.549,0.698 0,764.095 0,853.005 2337.378,0.698 			"/>
		</g>
	</mask>
	<polygon fill="#6B61FF" points="2093.549,0.698 0,764.095 0,853.005 2337.378,0.698 	"/>
	<defs>
		<filter id="Adobe_OpacityMaskFilter_14_" filterUnits="userSpaceOnUse" x="0" y="0.698" width="2741.456" height="999.651">
			<feFlood  style="flood-color:white;flood-opacity:1" result="back"/>
			<feBlend  in="SourceGraphic" in2="back" mode="normal"/>
		</filter>
	</defs>
	<mask maskUnits="userSpaceOnUse" x="0" y="0.698" width="2741.456" height="999.651" id="SVGID_16_">
		<g filter="url(#Adobe_OpacityMaskFilter_14_)">
			<defs>
				<filter id="Adobe_OpacityMaskFilter_15_" filterUnits="userSpaceOnUse" x="0" y="0.698" width="2741.456" height="999.651">
					<feFlood  style="flood-color:white;flood-opacity:1" result="back"/>
					<feBlend  in="SourceGraphic" in2="back" mode="normal"/>
				</filter>
			</defs>
			<mask maskUnits="userSpaceOnUse" x="0" y="0.698" width="2741.456" height="999.651" id="SVGID_16_">
				<g filter="url(#Adobe_OpacityMaskFilter_15_)">
				</g>
			</mask>
			
				<linearGradient id="SVGID_17_" gradientUnits="userSpaceOnUse" x1="727.506" y1="2680.0044" x2="727.506" y2="3261.3284" gradientTransform="matrix(-0.866 0.5 -0.5 -0.866 3468.2461 2678.4773)">
				<stop  offset="0" style="stop-color:#FFFFFF"/>
				<stop  offset="0.5045" style="stop-color:#777777"/>
				<stop  offset="0.8458" style="stop-color:#222222"/>
				<stop  offset="1" style="stop-color:#000000"/>
			</linearGradient>
			<polygon mask="url(#SVGID_16_)" fill="url(#SVGID_17_)" points="2497.627,0.698 0,911.439 0,1000.349 2741.456,0.698 			"/>
		</g>
	</mask>
	<polygon fill="#6B61FF" points="2497.627,0.698 0,911.439 0,1000.349 2741.456,0.698 	"/>
</g>
<g opacity="0.25">
	<g>
		<path fill="#FFFFFF" d="M2620.394,1505.234c9.744-1.829,20.505-4.294,26.113-12.469c2.891-4.214,3.966-9.438,4.138-14.545
			c0.665-19.698-12.508-39.093-31.064-45.735c-8.177-2.927-19.313-2.392-23.125,5.412l0.248-1.157
			c6.842-6.53,8.506-16.762,8.684-26.219c0.738-39.127-18.636-78.103-50.274-101.136c-31.638-23.033-74.681-29.499-111.689-16.778
			c-13.629,4.685-26.56,11.913-36.62,22.232c-14.756,15.137-22.475,36.089-24.836,57.096c-2.361,21.007,0.24,42.249,3.764,63.093
			c-3.517-13.688-18.122-23.553-32.133-21.704c-14.01,1.849-25.557,15.165-25.402,29.297
			c-14.625-20.599-43.922-29.298-67.419-20.018c-23.496,9.28-38.943,35.652-35.544,60.685c-47.91,3.167-95.633,9.169-142.835,17.965
			L2620.394,1505.234z"/>
	</g>
	<g>
		<path fill="#FFFFFF" d="M740.934,1625.794c4.584-0.86,9.647-2.02,12.285-5.866c1.36-1.982,1.866-4.44,1.947-6.843
			c0.313-9.267-5.885-18.391-14.614-21.516c-3.847-1.377-9.086-1.125-10.879,2.546l0.117-0.544
			c3.219-3.072,4.001-7.886,4.085-12.334c0.347-18.407-8.767-36.743-23.651-47.579c-14.884-10.836-35.133-13.878-52.544-7.893
			c-6.411,2.204-12.495,5.604-17.228,10.459c-6.942,7.121-10.573,16.978-11.684,26.861c-1.111,9.883,0.113,19.876,1.771,29.682
			c-1.654-6.439-8.525-11.08-15.117-10.21c-6.591,0.87-12.023,7.134-11.95,13.782c-6.88-9.691-20.663-13.783-31.717-9.418
			c-11.054,4.366-18.32,16.772-16.721,28.549c-22.539,1.49-44.99,4.313-67.196,8.451L740.934,1625.794z"/>
	</g>
	<g>
		<path fill="#FFFFFF" d="M692.483,1325.96c14.646-3.071,24.764-18.52,24.184-33.473c-0.581-14.953-10.292-28.573-22.983-36.502
			c-17.084-10.675-39.753-11.756-57.776-2.757c7.961-26.59,2.68-55.989-10.294-80.526s-33.086-44.657-55.071-61.6
			c-21.879-16.861-46.306-31.121-73.159-37.593c-26.854-6.472-56.408-4.566-80.379,9.16c-28.939,16.571-46.576,48.398-53.547,81.009
			s-4.624,66.408-2.055,99.656c-11.124-15.271-29.906-24.652-48.797-24.371c-18.891,0.281-37.386,10.216-48.051,25.811
			c-2.919,4.268-15.204,45.759-15.204,45.759s-155.669,12.096-232.895,15.426H692.483z"/>
	</g>
</g>
<g>
	<path opacity="0.05" fill="#E5EDD4" d="M1719.638,0c-17.509,72.859-26.798,148.918-26.798,227.149
		c0,534.946,433.66,968.607,968.607,968.607c64.521,0,127.562-6.326,188.553-18.36V0H1719.638z"/>
	<path opacity="0.05" fill="#E5EDD4" d="M2093.52,0c-28.114,70.228-43.59,146.88-43.59,227.149
		c0,337.731,273.785,611.516,611.517,611.516c65.796,0,129.163-10.394,188.553-29.624V0H2093.52z"/>
	<g>
		<path fill="#FFFFFF" d="M2363.121,0c-48.07,63.035-76.619,141.757-76.619,227.149c0,207.076,167.868,374.944,374.944,374.944
			c68.742,0,133.16-18.505,188.553-50.797V0H2363.121z"/>
		<path fill="#F0F0F0" d="M2850,95.244c-19.996,8.152-34.334,30.206-34.334,56.148s14.338,47.995,34.334,56.148V95.244z"/>
		<path fill="#F0F0F0" d="M2506.985,0c-8.396,10.113-13.286,22.136-13.286,35.051c0,35.862,37.552,64.935,83.874,64.935
			c46.322,0,83.874-29.072,83.874-64.935c0-12.915-4.89-24.938-13.286-35.051H2506.985z"/>
		<ellipse fill="#F0F0F0" cx="2595.159" cy="354.312" rx="33.82" ry="45.995"/>
		<ellipse fill="#F0F0F0" cx="2794.021" cy="432.775" rx="54.112" ry="48.701"/>
		<circle fill="#F0F0F0" cx="2681.739" cy="220.385" r="20.292"/>
		<ellipse fill="#F0F0F0" cx="2331.363" cy="297.495" rx="35.173" ry="56.818"/>
		<ellipse fill="#F0F0F0" cx="2546.458" cy="466.595" rx="74.404" ry="66.287"/>
		<ellipse fill="#F0F0F0" cx="2438.234" cy="154.098" rx="17.586" ry="24.35"/>
	</g>
</g>
<g>
	<polygon fill="#3034B8" points="862.721,1493.219 912.446,1527.772 920.645,1572.427 944.037,1600.058 897.954,1800 1984.129,1800 
		2017.936,1527.087 1930.621,1455.997 1940.686,1404.232 1913.679,1353.49 1951.582,1301.099 1953.976,1228.967 991.974,1021.927 
		863.161,1040.235 855.859,1130.745 884.033,1186.288 892.105,1305.374 838.294,1332.554 	"/>
	<polygon fill="#282B99" points="1820.958,1800 1879.988,1720.534 1824.787,1552.698 1798.109,1518.55 1779.268,1515.066 
		1819.719,1800 	"/>
	<path fill="#2A2DA1" d="M882.178,1352.656c0,0,2.855,136.428,2.397,135.053s27.872,40.063,27.872,40.063l53.587,19.801
		l25.214,59.998l30.837,42.63l-43.868-192.657l20.236-86.02l-44.873-36.856l-9.448,9.992L882.178,1352.656z"/>
	<polygon fill="#2A2DA1" points="971.527,1398.438 1075.567,1765.145 1244.211,1800 1819.719,1800 1742.129,1253.46 
		1624.293,1319.141 1322.887,1176.206 957.718,1101.221 957.731,1292.282 	"/>
	<polygon fill="#282B99" points="1388.818,1769.864 1388.818,1800 1531.508,1800 1562.048,1483.739 1394.408,1584.542 
		1394.408,1684.097 1368.56,1721.01 1388.818,1727.523 1362.046,1754.665 1320.791,1754.665 1362.046,1769.864 	"/>
	<polygon fill="#2A2DA1" points="1080.901,1197.949 1099.433,1287.026 1130.626,1346.939 1159.955,1438.012 1211.263,1468.227 
		1223.623,1228.71 	"/>
	<polygon fill="#6468FA" points="911.399,998.604 863.161,1040.235 925.132,1055.053 957.718,1101.221 1008.391,1098.857 
		1015.912,1129.77 1126.886,1141.207 1073.416,1161.334 1080.901,1197.949 1223.623,1228.71 1296.931,1307.677 1624.293,1319.141 
		1742.129,1253.46 1914.891,1255.559 1953.976,1228.967 1947.943,1174.916 1760.94,1143.539 1567.812,1043.12 1202.578,949.116 
		1086.396,982.832 	"/>
	<polygon fill="#363ACF" points="958.879,1221.526 934.483,1259.101 940.781,1297.058 963.24,1334.669 957.731,1292.282 
		966.033,1235.86 	"/>
	<polygon fill="#2A2DA1" points="957.718,1101.221 958.879,1221.526 1017.719,1185.922 1015.912,1129.77 1008.391,1098.857 	"/>
	<polygon fill="#2A2DA1" points="1015.912,1129.77 1017.719,1185.922 1057.324,1231.326 1073.416,1161.334 1126.886,1141.207 	"/>
	<polygon fill="#363ACF" points="1008.391,1098.857 1008.391,1191.566 1017.719,1185.922 1015.912,1129.77 	"/>
	<polygon fill="#6468FA" points="1014.515,1185.439 955.675,1221.043 962.83,1235.377 994.775,1230.223 1002.32,1249.677 
		1054.12,1230.843 	"/>
	<polygon fill="#6468FA" points="892.105,1305.374 838.294,1332.554 882.178,1352.656 944.131,1344.661 953.579,1334.669 	"/>
	<polygon fill="#363ACF" points="1080.901,1197.949 1099.433,1287.026 1130.626,1346.939 1159.955,1438.012 1061.584,1289.857 
		1057.324,1231.326 1073.416,1161.334 	"/>
	<polygon fill="#363ACF" points="1005.523,1250.16 1005.523,1316.012 1022.084,1359.547 991.247,1321.454 997.979,1230.706 	"/>
	<polygon fill="#2A2DA1" points="1005.523,1250.16 1005.523,1316.012 1022.084,1359.547 1113.064,1425.421 1159.955,1438.012 
		1061.584,1289.857 1057.324,1231.326 	"/>
	<polygon fill="#2A2DA1" points="1250.441,1800 1223.623,1731.588 1049.968,1677.453 1031.79,1584.542 1005.523,1666.344 
		998.625,1800 	"/>
	<polygon fill="#6468FA" points="1071.399,1389.559 1159.955,1438.012 1408.568,1451.311 1562.048,1483.739 1394.408,1584.542 
		1144.832,1573.21 1048.769,1504.458 1037.467,1411.221 	"/>
	<polygon fill="#3034B8" points="1133.114,1800 1137.15,1800 1144.832,1573.21 1048.769,1504.458 1082.739,1756.924 	"/>
	<polygon fill="#282B99" points="1408.568,1451.311 1410.008,1359.547 1296.931,1307.677 1624.293,1319.141 1552.221,1400.927 
		1562.048,1483.739 	"/>
	<polygon fill="#6468FA" points="1930.621,1455.997 1880.277,1492.435 1798.109,1518.55 1824.787,1552.698 1961.237,1581.835 
		2017.936,1527.087 2010.466,1476.933 	"/>
	<polygon fill="#2A2DA1" points="1852.787,1662.025 1828.487,1669.864 1853.571,1676.919 1827.703,1687.894 1820.014,1800 
		1939.585,1800 1945.497,1750.025 1924.121,1733.359 1948.028,1723.943 1961.237,1581.835 1824.787,1552.698 1828.487,1657.322 	"/>
	<polygon fill="#282B99" points="1567.812,1800 1719.968,1800 1711.316,1672.934 1656.647,1642.57 1658.105,1590.567 
		1687.991,1542.458 1640.611,1416.356 1624.293,1495.808 1572.822,1558.494 1572.822,1702.091 1591.774,1721.771 1572.822,1723.958 
			"/>
	<g>
		<path fill="#2A2DA1" d="M1742.265,1318.256c16.083-0.509,32.166-1.018,48.249-1.526c3.938-0.125,7.945-0.261,11.67-1.543
			c-19.203,5.409-38.302,11.185-57.283,17.325c8.087,2.841,16.891,3.613,25.349,2.222c-8.461,3.049-16.882,6.207-25.261,9.473"/>
	</g>
	<path fill="#2A2DA1" d="M1760.739,1434.666c11.885-1.864,23.549-5.134,34.671-9.719c-2.617,3.298-5.772,6.168-9.303,8.46
		c-4.145,2.692-8.906,4.68-12.085,8.465c3.158-0.228,6.316-0.455,9.474-0.683c-4.827,5.072-10.919,8.932-17.566,11.131"/>
	<path fill="#3034B8" d="M1963.942,1636.15c-2.608,2.786-5.286,5.625-8.672,7.383c-3.374,1.752-7.22,2.311-10.984,2.844
		c-7.09,1.005-14.181,2.01-21.271,3.014c9.779,2.758,20.133,2.349,30.284,1.918c4.335-0.184,8.669-0.368,13.004-0.552"/>
	<g>
		<path fill="#363ACF" d="M1086.149,1245.311c1.233,6.161,2.972,13.059,8.419,16.192c1.519,0.873,3.221,1.374,4.925,1.782
			c9.328,2.239,19.053,1.938,28.641,1.624c-11.623,3.623-23.246,7.245-34.868,10.868c0.542,2.007,1.084,4.014,1.625,6.021
			c0.078,0.29,0.172,0.604,0.417,0.779c0.294,0.211,0.695,0.147,1.049,0.075c7.094-1.453,14.189-2.905,21.284-4.358
			c-9.311,4.366-18.688,8.592-28.125,12.677"/>
	</g>
	<g>
		<path fill="#363ACF" d="M1126.155,1341.165c1.256-0.459,2.476,0.716,3.255,1.804c3.416,4.77,6.13,10.56,11.421,13.094
			c3.004,1.439,6.438,1.598,9.766,1.733c6.648,0.268,13.297,0.537,19.945,0.805c-12.539,4.77-26.043,6.986-39.449,6.474"/>
	</g>
	<g>
		<path fill="#3034B8" d="M1139.861,1597.76c0.508,4.077,1.017,8.153,1.525,12.23c0.123,0.984,0.262,2.012,0.83,2.825
			c0.809,1.157,2.284,1.609,3.661,1.92c12.628,2.86,26.092,0.314,38.572,3.766c-17.036,3.682-34.229,7.382-51.658,7.38"/>
	</g>
	<g>
		<path fill="#3034B8" d="M1133.726,1681.795c5.356,2.079,11.181,2.549,16.915,2.916c15.285,0.977,30.606,1.371,45.921,1.179
			c-22.13,7.78-44.471,14.96-66.99,21.531"/>
	</g>
	<g>
		<path fill="#3034B8" d="M993.572,1689.808c13.685,5.301,28.868,4.137,43.541,4.468c-12.986,5.255-26.483,9.25-40.237,11.911
			c6.862,5.488,14.923,9.47,23.452,11.586c-9.995,2.308-19.99,4.616-29.985,6.925"/>
	</g>
	<g>
		<path fill="#3034B8" d="M993.022,1768.106c7.507,0.657,14.922,2.358,21.965,5.038c-7.109,4.555-15.094,7.738-23.387,9.324"/>
	</g>
</g>
<g>
	<g>
		<path fill="#0E128F" d="M1420,1065.964c-12,2-21,9-24,21c-8-12-24-16-37-9c-10,5-10,18-12,28c-7-7-16-10-26-9
			c-7.166,1.792-15.916,4.402-18.385,12.11l144.812,3.673c1.046-7.674,1.074-19.495-0.134-29.366
			c-1.279-3.964-3.272-7.793-6.292-11.417C1436,1065.964,1428,1064.964,1420,1065.964z"/>
	</g>
	<g>
		<path fill="#151ACF" d="M1430.946,1050.088c-3.897-3.005-8.473-5.054-13.211-6.387c-7.225-2.034-15.129-2.399-22.123,0.324
			c-6.995,2.723-12.875,8.89-14.003,16.311c-7.888-11.401-25.244-15.161-36.784-7.477c-11.54,7.684-14.539,25.829-5.586,36.415
			c-8.167-5.536-19.288-5.853-28.273-1.775c-8.985,4.078-15.834,12.142-19.524,21.293l11.172,0.283
			c2.47-7.708,11.22-10.318,18.385-12.11c10-1,19,2,26,9c2-10,2-23,12-28c13-7,29-3,37,9c3-12,12-19,24-21c8-1,16,0,21,6
			c3.02,3.624,5.014,7.453,6.292,11.417c-0.469-3.834-1.119-7.383-1.978-10.266C1442.69,1064.3,1438.23,1055.705,1430.946,1050.088z
			"/>
	</g>
</g>
<g>
	<g>
		<g>
			<path fill="#1F2175" d="M1477.917,760.547c-3.207,5.524-16.199,31.893-19.406,37.418c-2.043,3.519-4.125,7.089-7.064,9.904
				c-2.577,2.468-5.714,4.259-8.816,6.024c-15.756,8.966-39.877,20.663-58.072,30.425l-19.089-31.63l-3.505-57.96
				c0,0-0.266-0.1-0.754-0.283c10.635-13.995,30.864-45.72,30.864-45.72l40.089-12.111c1.167-1.02,16.099-98.786,16.099-98.786
				l-10.59,1.865l-13.095,79.237l-54.572,18.313c0,0-26.105,33.765-36.229,46.818c-16.972-6.476-37.865-14.55-51.509-20.179
				c-10.473-4.321-21.262-8.852-29.139-16.994c-10.887-11.254-14.471-27.487-17.6-42.829l-20.005-26.744
				c3.167,30.36,9.469,60.393,18.773,89.466c0.47,1.468,0.966,2.969,1.936,4.167c1.265,1.563,3.179,2.425,5.02,3.233
				c25.273,11.089,75.819,33.266,75.819,33.266l-0.41,62.741l25.767,56.14l-155.926-41.599l-49.811-72.197l-7.842,11.958
				l42.234,76.672l193.661,70.152l16.517,195.542l120.314,5.83l-64.889-207.495l-37.456-56.56
				c19.797-15.129,39.594-30.258,59.391-45.387c1.72-1.314,3.462-2.65,4.775-4.371c1.397-1.83,2.245-4.01,3.076-6.158
				c3.796-9.819,15.876-40.77,19.672-50.589L1477.917,760.547z"/>
		</g>
		<g>
			<g>
				<path fill="#15164F" d="M1451.447,807.868c-2.577,2.468-5.714,4.259-8.816,6.024c-12.902,7.342-48.26,25.292-64.534,33.734
					l20.149-3.309c18.195-9.762,42.316-21.46,58.072-30.425c3.102-1.765,6.238-3.556,8.816-6.024
					c2.939-2.815,5.021-6.385,7.064-9.904c0.007-0.011,0.015-0.026,0.021-0.038c5.018-12.892,11.363-29.168,13.927-35.802
					l-8.23-1.577c-3.207,5.524-16.199,31.893-19.406,37.418C1456.468,801.483,1454.385,805.053,1451.447,807.868z"/>
			</g>
			<g>
				<polygon fill="#15164F" points="1435.365,1129.476 1378.433,931.312 1184.771,861.161 1142.537,784.488 1143.709,782.701 
					1136.692,772.53 1128.85,784.488 1171.084,861.161 1364.746,931.312 1381.263,1126.855 				"/>
			</g>
			<g>
				<path fill="#15164F" d="M1347.464,744.06c10.124-13.053,36.229-46.818,36.229-46.818l51.617-17.322
					c4.716-28.168,12.952-82.094,12.952-82.094l-10.59,1.865l-13.095,79.237l-54.572,18.313c0,0-21.567,27.895-33.097,42.777
					C1340.524,741.407,1344.074,742.766,1347.464,744.06z"/>
			</g>
			<g>
				<path fill="#15164F" d="M1236.232,730.947c1.265,1.563,3.179,2.425,5.02,3.233c25.273,11.089,75.819,33.266,75.819,33.266
					l-0.41,62.741l25.767,56.14l13.687,3.381l-25.768-59.52l0.41-62.741c0,0-50.546-22.177-75.819-33.266
					c-1.841-0.808-3.755-1.67-5.02-3.233c-0.969-1.198-1.466-2.7-1.936-4.167c-7.035-21.983-12.351-44.515-15.895-67.322
					l-16.564-22.143c3.167,30.36,9.469,60.393,18.773,89.466C1234.766,728.247,1235.263,729.749,1236.232,730.947z"/>
			</g>
		</g>
		<g>
			<g>
				<path fill="#4C50E6" d="M1427.765,693.268l-44.396,15.455c0,0-20.228,31.725-30.864,45.72c0.488,0.183,0.754,0.283,0.754,0.283
					l3.505,57.96l21.333,34.939c0,0,4.199-2.124,6.462-3.309l-19.089-31.63l-3.505-57.96c0,0-0.266-0.1-0.754-0.283
					c10.635-13.995,30.864-45.72,30.864-45.72l40.09-12.111c1.167-1.02,16.099-98.786,16.099-98.786h-5.433
					C1439.257,621.051,1428.729,692.426,1427.765,693.268z"/>
			</g>
			<g>
				<path fill="#4C50E6" d="M1461.219,816.756c-1.314,1.721-5.471,4.618-7.191,5.932c-19.797,15.129-43.705,30.812-63.502,45.942
					l37.457,56.56l64.754,207.067l8.84,0.428l-64.889-207.495l-37.456-56.56c19.797-15.129,39.594-30.258,59.391-45.387
					c1.72-1.314,3.462-2.65,4.775-4.371c1.397-1.83,2.245-4.01,3.076-6.158c3.796-9.819,15.876-40.77,19.672-50.589l-3.072-0.34
					C1482.845,762.181,1462.616,814.925,1461.219,816.756z"/>
			</g>
			<g>
				<polygon fill="#4C50E6" points="1177.797,844.727 1333.723,886.326 1342.429,886.326 1186.503,844.727 1136.692,772.53 
					1132.449,779 				"/>
			</g>
			<g>
				<path fill="#4C50E6" d="M1226.823,664.057c3.129,15.342,6.713,31.575,17.6,42.829c7.877,8.142,18.667,12.674,29.139,16.994
					c13.644,5.629,41.251,15.954,58.223,22.43c0.608-0.784,1.278-1.329,1.992-2.251c-15.509-5.943-39.619-15.273-51.509-20.179
					c-10.473-4.321-21.262-8.852-29.139-16.994c-10.887-11.254-14.471-27.487-17.6-42.829l-20.005-26.744
					c0.484,4.636,1.049,9.264,1.679,13.883L1226.823,664.057z"/>
			</g>
		</g>
	</g>
	<g>
		<g>
			<path fill="#1E7366" d="M1560.025,442.824c15.506-2.354,21.914-23.388,15.156-37.541c-6.758-14.154-21.586-22.403-35.848-28.927
				c-81.888-37.461-173.308-47.714-263.111-54.375c18.42-1.657,22.832-29.936,10.146-43.395
				c-12.686-13.459-33.078-15.434-51.561-16.081c-94.516-3.312-188.977,5.822-283.11,14.944
				c-12.194,1.182-25.181,2.679-34.635,10.47c-9.384,7.733-13.361,20.094-16.552,31.828c-5.101,18.755-9.368,37.736-12.784,56.869
				c-0.755,4.228-1.457,8.66-0.144,12.748c4.615,14.376,27.785,12.507,36.105,25.107c-5.716,15.946-11.51,32.341-11.119,49.277
				c0.391,16.936,8.343,34.787,23.627,42.093c9.559,4.569,22.281,5.667,27.07,15.117c2.116,4.173,2.054,9.085,1.723,13.751
				c-2.034,28.664-12.381,57.493-5.955,85.501c6.939,30.246,32.387,53.085,59.946,67.351
				c51.815,26.824,120.027,27.568,173.848,5.038l-0.007-0.003c9.539,3.409,19.913,4.949,30.065,5.307
				c53.935,1.9,107.798-28.202,134.443-75.133c32.429,1.127,65.139-7.873,92.427-25.43c26.42,17.827,59.12,23.249,90.815,26.606
				c39.219,4.155,80.485,5.51,116.352-10.892c46.117-21.089,75.573-68.8,87.426-118.105
				C1689.928,460.544,1623.849,451.288,1560.025,442.824z"/>
		</g>
		<g>
			<path fill="#185C52" d="M1501.952,572.61c-23.697-4.061-51.79-14.528-55.275-38.315c-41.177,19.978-83.837,36.9-127.511,50.583
				c-31.31,9.809-64.418,18.016-96.678,12.025c-23.127-4.295-44.305-15.636-66.875-22.26c-32.393-9.506-67.006-9.121-99.548-18.107
				c-32.542-8.986-65.255-31.583-70.211-64.977c-1.574-10.604-0.641-22.678-7.897-30.57c-5.406-5.88-13.859-7.602-21.721-9.012
				c-13.91-2.495-27.82-4.99-41.731-7.484c-1.317,6.343-2.087,12.758-1.937,19.254c0.391,16.936,8.343,34.787,23.627,42.093
				c9.559,4.569,22.281,5.667,27.07,15.117c2.116,4.173,2.054,9.085,1.723,13.751c-2.034,28.664-12.381,57.493-5.955,85.501
				c6.939,30.246,32.387,53.085,59.946,67.351c51.815,26.824,120.027,27.568,173.848,5.038l-0.007-0.003
				c9.539,3.409,19.913,4.949,30.065,5.307c53.935,1.9,107.798-28.202,134.443-75.133c32.429,1.127,65.139-7.873,92.427-25.43
				c26.42,17.827,59.12,23.249,90.815,26.606c39.219,4.155,80.485,5.51,116.352-10.892c16.734-7.652,31.243-18.843,43.545-32.31
				c-3.783,1.107-7.92,1.197-11.91,1.235C1626.191,582.576,1563.425,583.143,1501.952,572.61z"/>
		</g>
		<g>
			<path fill="#30B8A4" d="M938.459,341.429c57.211,23.076,98.996,36.155,157.419,55.96c26.727,9.06,88.334-4.573,103.979-30.746
				c-1.81,16.109-4.337,39.277-2.66,42.259c1.66,2.952,4.916,4.571,8,5.97c86.356,39.16,184.505,39.986,279.325,40.124
				c14.036,0.02,30.455-1.165,38.201-12.87c-5.766,18.123-10.598,40.565,2.864,53.999c5.11,5.1,12.06,7.84,18.855,10.282
				c42.764,15.374,87.844,24.284,133.241,26.337c8.274,0.374,16.679,0.509,24.704-1.538c17.727-4.523,30.547-18.58,41.335-33.885
				c0.199-0.792,0.435-1.579,0.625-2.372c-54.42-34.404-120.499-43.66-184.322-52.124c15.506-2.354,21.914-23.388,15.156-37.541
				c-6.758-14.154-21.586-22.403-35.848-28.927c-81.888-37.461-173.308-47.714-263.111-54.375
				c18.42-1.657,22.832-29.936,10.146-43.395c-12.686-13.459-33.078-15.434-51.561-16.081
				c-94.516-3.312-188.977,5.822-283.11,14.944c-12.194,1.182-25.181,2.679-34.635,10.47c-5.261,4.335-8.789,10.144-11.465,16.461
				c0.521,6.886,1.995,13.23,4.157,16.831C915.889,331.431,927.405,336.969,938.459,341.429z"/>
		</g>
		<g>
			<path fill="#1E7366" d="M1039.329,500.678c2.394,27.063,5.917,48.467,8.311,75.53c0.254,2.87,0.62,5.994,2.657,8.033
				c1.794,1.797,4.467,2.318,6.975,2.713c16.891,2.662,34.075,3.458,51.14,2.371c0.997,14.088,3.199,30.293,15.156,37.809
				c5.635,3.542,12.496,4.415,19.12,5.071c42.767,4.234,86.081,2.927,128.515-3.879c2.727-0.437,5.504-0.915,7.947-2.204
				c7.175-3.785,9.17-12.953,10.387-20.973c33.608,4.544,68.28,1.004,100.277-10.238c2.956-1.038,6.04-2.247,7.995-4.696
				c1.693-2.119,2.303-4.881,2.844-7.539c3.802-18.691,8.262-56.591,8.262-56.591
				C1318.574,563.555,1039.329,500.678,1039.329,500.678z"/>
		</g>
		<g>
			<path fill="#30B8A4" d="M1363.336,514.027l-1.911-0.398c-29.443,26.994-88.545,18.316-128.201-1.512c-2.885,0,0-8.655,0-14.426
				c-39.679,2.646-113.26,7.678-120.782-35.972l-2.256-0.47c-21.514,6.226-42.255,15.119-61.597,26.41
				c-3.763,2.198-7.766,4.85-9,9.029c-2.539,8.592,7.719,15.075,16.188,17.997c27.568,9.51,55.855,16.935,84.54,22.192
				c-3.312,4.51-6.624,9.019-9.936,13.53c-0.95,1.292-1.95,2.784-1.679,4.364c0.313,1.824,2.152,2.918,3.812,3.736
				c43.026,21.221,92.471,24.066,140.381,26.526c4.101,0.211,8.42,0.378,12.075-1.493c7.652-3.914,9.161-14.853,16.414-19.465
				c8.856-5.629,20.026,1.732,30.503,2.34c30.375,1.762,49.129-8.441,59.318-14.34c10.14-5.871,18.33-17.086,16.48-28.636
				C1390.769,532.766,1367.075,535.799,1363.336,514.027z"/>
		</g>
	</g>
	<g>
		<g>
			<path fill="#1E7366" d="M919.767,685.786c3.416-14.259,7.213-29.237,17.354-39.827c16.363-17.088,43.047-17.181,66.701-17.683
				c1.991-0.042,4.113-0.137,5.739-1.287c1.709-1.208,2.49-3.305,3.353-5.212c3.999-8.841,11.77-15.9,20.954-19.033
				c10.093-3.443,21.123-2.202,31.665-0.593c23.772,3.629,47.288,8.932,70.316,15.858c10.143,3.05,22.253,9.24,21.63,19.813
				c-0.293,4.963-3.426,10.542-0.324,14.427c1.221,1.53,3.139,2.297,4.98,2.963c12.248,4.435,25.081,7.249,38.06,8.346
				c9.619,0.813,19.586,0.748,28.445,4.583c8.859,3.835,16.365,13.057,14.445,22.517c-0.589,2.901-1.713,6.624,0.747,8.27
				c1.058,0.708,2.426,0.68,3.699,0.668c10.475-0.098,20.962,2.722,29.976,8.059c3.536,2.094,6.953,4.683,8.916,8.293
				c2.395,4.403,2.317,9.696,1.941,14.694c-0.815,10.821-2.743,21.558-5.744,31.986c-1.544,5.365-3.435,10.768-6.925,15.126
				c-7.998,9.988-22.226,12.154-35.021,12.159c-12.796,0.005-26.259-1.279-37.767,4.315c-12.34,5.998-20.921,19.296-34.373,21.995
				c-4.89,0.981-9.943,0.418-14.892-0.193c-61.182-7.551-121.304-21.839-181.278-36.1c-2.671-0.635-5.415-1.303-7.651-2.895
				c-5.071-3.611-6.017-10.822-5.106-16.981c0.911-6.159,3.209-12.184,2.878-18.401c-0.122-2.299-0.739-4.793-2.598-6.152
				c-1.642-1.201-3.829-1.223-5.859-1.361c-11.554-0.786-22.592-7.213-28.98-16.873c-6.388-9.66-7.98-22.333-4.179-33.273"/>
		</g>
		<g>
			<path fill="#185C52" d="M1173.342,784.099c-4.477,0-4.477-15.67-4.477-24.624c-47.009,44.77-127.595,20.147-179.081-4.477
				c-6.716-2.239-2.239-24.624-2.239-38.055c-22.711,0-55.017,3.195-68.521-17.46c0.527,6.31,2.529,12.5,6.023,17.784
				c6.388,9.66,17.426,16.087,28.98,16.874c2.03,0.138,4.217,0.16,5.859,1.361c1.858,1.359,2.475,3.853,2.598,6.152
				c0.33,6.217-1.968,12.242-2.878,18.401c-0.91,6.159,0.035,13.37,5.106,16.981c2.236,1.592,4.981,2.26,7.651,2.895
				c59.974,14.261,120.096,28.548,181.278,36.099c4.95,0.611,10.003,1.174,14.892,0.193c13.452-2.699,22.033-15.996,34.373-21.995
				c11.508-5.594,24.972-4.31,37.767-4.315c12.796-0.005,27.023-2.171,35.021-12.159c3.49-4.357,5.381-9.761,6.925-15.126
				c0.164-0.572,0.291-1.154,0.449-1.728C1259.441,792.458,1212.516,785.964,1173.342,784.099z"/>
		</g>
		<g>
			<path fill="#30B8A4" d="M929.344,681.127c24.624,13.431,58.201,13.431,89.541,13.431c0,8.954-2.239,22.385,2.239,24.624
				c47.009,22.385,120.88,33.578,161.173-6.716c2.239,0,8.954,2.239,8.954,4.477c-6.716,44.77,55.963,33.578,85.064,29.101
				c4.786-0.684,8.311-3.261,11.165-6.875c0.368-2.834,0.671-5.676,0.885-8.526c0.376-4.997,0.454-10.291-1.94-14.694
				c-1.964-3.61-5.38-6.2-8.917-8.293c-9.014-5.337-19.501-8.157-29.976-8.059c-1.274,0.012-2.641,0.04-3.699-0.668
				c-2.46-1.646-1.336-5.369-0.747-8.27c1.919-9.46-5.586-18.683-14.445-22.517c-8.859-3.834-18.826-3.77-28.445-4.583
				c-12.979-1.097-25.813-3.911-38.06-8.346c-1.841-0.666-3.759-1.433-4.98-2.963c-3.102-3.886,0.031-9.464,0.324-14.427
				c0.624-10.573-11.487-16.763-21.63-19.813c-23.028-6.925-46.544-12.229-70.316-15.858c-10.542-1.609-21.572-2.85-31.665,0.593
				c-9.184,3.133-16.955,10.192-20.954,19.033c-0.863,1.907-1.644,4.003-3.353,5.212c-1.626,1.15-3.748,1.244-5.739,1.286
				c-23.654,0.502-50.338,0.596-66.701,17.684c-7.188,7.506-11.182,17.218-14.119,27.314
				C924.002,676.499,926.009,679.221,929.344,681.127z"/>
		</g>
	</g>
	<g>
		<g>
			<path fill="#1E7366" d="M1334.97,728.916c0.653-9.185,1.468-18.854,6.664-26.456c8.385-12.266,24.907-15.062,39.511-17.801
				c1.229-0.231,2.534-0.507,3.424-1.386c0.935-0.924,1.204-2.303,1.542-3.573c1.57-5.888,5.661-11.059,11.029-13.943
				c5.9-3.169,12.861-3.532,19.557-3.617c15.1-0.191,30.214,0.681,45.192,2.609c6.597,0.849,14.735,3.441,15.434,10.056
				c0.328,3.105-1.041,6.883,1.28,8.972c0.914,0.823,2.181,1.101,3.389,1.325c8.043,1.491,16.283,1.917,24.437,1.265
				c6.043-0.483,12.211-1.546,18.093-0.08c5.882,1.467,11.479,6.41,11.26,12.468c-0.067,1.858-0.382,4.28,1.311,5.047
				c0.729,0.33,1.573,0.172,2.361,0.034c6.48-1.135,13.267-0.465,19.399,1.917c2.406,0.934,4.788,2.188,6.375,4.223
				c1.936,2.482,2.431,5.769,2.71,8.905c0.606,6.788,0.513,13.638-0.276,20.406c-0.406,3.482-1.023,7.024-2.738,10.082
				c-3.93,7.009-12.523,9.811-20.45,11.127c-7.927,1.316-16.4,1.902-22.956,6.549c-7.03,4.983-10.981,14.102-19.039,17.155
				c-2.929,1.11-6.117,1.279-9.246,1.409c-38.681,1.6-77.396-1.082-116.017-3.763c-1.72-0.119-3.489-0.251-5.038-1.009
				c-3.513-1.717-4.839-6.087-4.906-9.997c-0.068-3.909,0.738-7.878-0.105-11.696c-0.312-1.412-0.95-2.894-2.241-3.545
				c-1.141-0.576-2.498-0.365-3.77-0.242c-7.239,0.698-14.738-2.151-19.687-7.48c-4.949-5.329-7.236-13.018-6.004-20.186"/>
		</g>
		<g>
			<path fill="#185C52" d="M1502.163,763.804c-2.774,0.459-4.382-9.249-5.301-14.796c-24.53,32.562-76.985,25.576-111.411,15.604
				c-4.39-0.698-3.914-15.026-5.292-23.347c-14.071,2.331-33.759,7.626-44.244-3.786c0.974,3.855,2.85,7.485,5.557,10.4
				c4.949,5.329,12.447,8.179,19.687,7.48c1.272-0.123,2.629-0.334,3.77,0.242c1.291,0.651,1.929,2.133,2.241,3.545
				c0.843,3.818,0.037,7.786,0.105,11.696c0.068,3.909,1.394,8.28,4.906,9.997c1.549,0.757,3.318,0.889,5.038,1.009
				c38.621,2.681,77.336,5.362,116.017,3.762c3.129-0.129,6.318-0.299,9.246-1.408c8.058-3.053,12.009-12.172,19.039-17.155
				c6.556-4.647,15.029-5.233,22.956-6.549c7.927-1.316,16.52-4.118,20.45-11.127c1.715-3.058,2.332-6.6,2.738-10.082
				c0.043-0.371,0.062-0.745,0.101-1.116C1556.364,760.147,1526.625,760.939,1502.163,763.804z"/>
		</g>
		<g>
			<path fill="#30B8A4" d="M1340.425,725.047c16.634,5.794,37.438,2.348,56.854-0.868c0.919,5.548,0.91,14.099,3.914,15.026
				c31.422,9.045,78.338,8.398,99.167-20.701c1.387-0.23,5.777,0.468,6.007,1.855c0.434,28.427,38.118,15.06,55.688,9.3
				c2.895-0.915,4.814-2.873,6.212-5.405c-0.063-1.793-0.167-3.585-0.327-5.373c-0.28-3.135-0.775-6.422-2.71-8.904
				c-1.587-2.035-3.97-3.289-6.375-4.223c-6.132-2.382-12.919-3.052-19.399-1.917c-0.788,0.138-1.632,0.296-2.361-0.034
				c-1.693-0.767-1.379-3.189-1.312-5.047c0.218-6.058-5.378-11.002-11.26-12.468c-5.882-1.466-12.051-0.404-18.094,0.08
				c-8.154,0.652-16.394,0.226-24.437-1.265c-1.209-0.224-2.476-0.502-3.389-1.325c-2.321-2.089-0.952-5.867-1.28-8.972
				c-0.699-6.615-8.837-9.207-15.434-10.056c-14.978-1.927-30.092-2.8-45.192-2.609c-6.697,0.085-13.658,0.448-19.558,3.617
				c-5.368,2.884-9.459,8.054-11.029,13.943c-0.339,1.27-0.608,2.649-1.542,3.573c-0.89,0.879-2.194,1.156-3.424,1.386
				c-14.604,2.739-31.126,5.535-39.511,17.801c-3.683,5.388-5.161,11.815-5.945,18.371
				C1336.641,722.728,1338.163,724.208,1340.425,725.047z"/>
		</g>
	</g>
</g>
<g>
	<g>
		<g>
			<path fill="#151ACF" d="M1526.486,1090.102c-5.651-11.896-13.107-22.932-22.032-32.616c3.22-1.818,6.44-3.637,9.66-5.455
				c-5.117-2.648-10.781-4.234-16.529-4.626c-5.309-15.178-15.002-28.795-27.607-38.78c6.885-4.531,15.916-4.046,23.935-2.142
				c18.396,4.367,35.103,15.511,46.203,30.816c11.1,15.306,16.502,34.648,14.939,53.49"/>
		</g>
		<g>
			<path fill="#3A3EF2" d="M1540.116,1037.299c-11.1-15.306-27.807-26.449-46.203-30.817c-5.83-1.384-12.191-2.007-17.877-0.509
				c4.308-0.302,8.792,0.297,12.999,1.296c18.396,4.368,35.103,15.511,46.203,30.816c10.923,15.062,16.313,34.031,14.993,52.588
				l4.823,0.116C1556.618,1071.946,1551.216,1052.604,1540.116,1037.299z"/>
		</g>
		<g>
			<path fill="#151ACF" d="M1531.741,1084.262c3.289-13.99,7.983-27.649,13.989-40.704c4.123-8.962,8.909-17.709,15.3-25.223
				c6.392-7.514,14.495-13.778,23.86-16.879c-1.17,8.562-2.341,17.124-3.511,25.686c-0.17,1.244-0.372,2.562-1.187,3.516
				c-1.721,2.015-5.218,1.421-7.109,3.277c2.531,1.099,4.944,2.472,7.181,4.087c-13.783,14.682-25.798,31.024-35.7,48.56"/>
		</g>
		<g>
			<path fill="#3A3EF2" d="M1580.192,1030.657c0.815-0.954,1.017-2.272,1.187-3.516c1.17-8.562,2.341-17.124,3.511-25.686
				c-1.726,0.572-3.409,1.252-5.047,2.027c-1.114,8.148-2.228,16.297-3.342,24.445c-0.17,1.243-0.372,2.562-1.188,3.516
				c-1.721,2.015-5.218,1.421-7.109,3.277c2.531,1.099,4.944,2.472,7.181,4.087c-13.386,14.259-25.097,30.086-34.831,47.048
				l4.009,0.725c9.903-17.536,21.917-33.878,35.7-48.56c-2.237-1.616-4.649-2.989-7.181-4.088
				C1574.974,1032.078,1578.47,1032.671,1580.192,1030.657z"/>
		</g>
		<g>
			<path fill="#151ACF" d="M1546.452,1092.377c-12.298-18.554-31.035-32.2-51.37-41.255c-16.972-7.558-37.197-11.981-53.754-3.553
				c12.175,5.008,23.274,12.615,32.338,22.162c2.063-1.737,4.369-3.185,6.83-4.289c-0.449,3.651-0.898,7.302-1.348,10.953
				c7.354,1.037,14.328,4.594,19.485,9.937c2.837-3.235,5.673-6.47,8.51-9.706c2.003,2.895,2.714,6.649,1.91,10.076
				c-0.295,1.255-0.769,2.632-0.162,3.77c0.316,0.592,0.878,1.006,1.421,1.399c7.894,5.712,15.789,11.424,23.683,17.137"/>
		</g>
		<g>
			<g>
				<path fill="#3A3EF2" d="M1475.62,1066.228c-1.218,0.546-2.397,1.178-3.529,1.886c0.531,0.533,1.058,1.07,1.576,1.616
					c0.544-0.458,1.107-0.893,1.683-1.31C1475.44,1067.69,1475.53,1066.959,1475.62,1066.228z"/>
			</g>
			<g>
				<path fill="#3A3EF2" d="M1502.268,1077.413c-1.977,2.255-3.954,4.51-5.931,6.764c0.799,0.683,1.568,1.399,2.298,2.155
					c1.716-1.957,3.432-3.915,5.149-5.872C1503.413,1079.383,1502.916,1078.35,1502.268,1077.413z"/>
			</g>
			<g>
				<path fill="#3A3EF2" d="M1495.083,1051.122c-13.711-6.106-29.546-10.162-43.854-7.052c12.964-1.387,26.807,2.42,38.977,7.839
					c20.334,9.055,39.072,22.702,51.37,41.255l-10.358,13.832c0.927,0.671,1.854,1.342,2.781,2.012l12.455-16.631
					C1534.154,1073.823,1515.417,1060.177,1495.083,1051.122z"/>
			</g>
		</g>
		<g>
			<path fill="#151ACF" d="M1531.358,1096.801c7.577-22.152,25.523-39.536,45.798-51.243c5.002-2.888,10.25-5.511,15.908-6.673
				c12.744-2.616,26.113,2.627,36.075,10.994c-10.968,0.437-21.75,4.665-30.091,11.8c-3.271-2.072-6.886-3.597-10.652-4.495
				c1.497,2.726,2.995,5.451,4.492,8.177c-5.64,2.787-10.79,6.561-15.145,11.1c-0.418,0.436-0.878,0.905-1.477,0.985
				c-0.621,0.083-1.205-0.275-1.744-0.597c-2.711-1.617-5.785-2.622-8.928-2.918c1.371,2.638,2.742,5.276,4.113,7.914
				c-9.418,6.041-17.457,14.22-23.335,23.741"/>
		</g>
		<g>
			<g>
				<path fill="#3A3EF2" d="M1560.717,1074.717c1.371,2.638,2.742,5.276,4.113,7.915c-8.536,5.475-15.932,12.709-21.619,21.104
					l3.162,1.85c5.878-9.521,13.916-17.699,23.335-23.741c-0.975-1.876-1.95-3.752-2.925-5.629
					C1564.847,1075.427,1562.798,1074.914,1560.717,1074.717z"/>
			</g>
			<g>
				<path fill="#3A3EF2" d="M1623.912,1050.384c1.732-0.259,3.476-0.436,5.227-0.506c-9.962-8.367-23.332-13.61-36.075-10.994
					c-0.363,0.075-0.719,0.171-1.079,0.257C1603.397,1038.157,1614.981,1043.005,1623.912,1050.384z"/>
			</g>
			<g>
				<path fill="#3A3EF2" d="M1583.518,1057.97c1.497,2.725,2.995,5.451,4.492,8.177c-5.281,2.609-10.122,6.093-14.294,10.251
					c0.271,0.146,0.542,0.293,0.806,0.451c0.539,0.321,1.122,0.68,1.744,0.597c0.598-0.08,1.059-0.549,1.477-0.985
					c4.356-4.539,9.505-8.313,15.145-11.1c-0.937-1.705-1.873-3.41-2.81-5.116
					C1587.972,1059.275,1585.773,1058.508,1583.518,1057.97z"/>
			</g>
			<g>
				<path fill="#3A3EF2" d="M1596.807,1060.378c0.762,0.407,1.511,0.838,2.241,1.3c6.224-5.324,13.807-9.026,21.811-10.746
					C1612.199,1051.896,1603.809,1055.191,1596.807,1060.378z"/>
			</g>
		</g>
	</g>
	<g>
		<path fill="#2A2DA1" d="M1366.46,1108.525c6.447,6.366,11.865,13.772,15.981,21.843l5.554,1.308h39.694
			c0.972-12.959,0.7-26.138-5.485-37.341c-1.518,5.107-3.036,10.214-4.553,15.322c-1.582-6.466-3.935-12.743-6.995-18.655
			c-1.154,7.057-1.577,14.234-1.258,21.377c-2.639-14.503-7.866-28.531-15.359-41.226c1.449,11.594,2.899,23.189,4.349,34.783
			c0.92,7.357,1.839,14.826,0.729,22.157c-5.392-23.616-18.64-45.368-37.151-60.994c6.097,19.826,19.15,37.102,24.127,57.239
			C1381.551,1117.083,1374.517,1111.417,1366.46,1108.525z"/>
	</g>
	<g>
		<path fill="#151ACF" d="M1426.932,1135.111l44.675-3.434c2.805-8.537,4.318-17.292,2.804-26.083
			c-3.107,4.328-6.215,8.656-9.322,12.984c0.624-6.627,0.457-13.329-0.496-19.917c-3.403,6.289-6.153,12.931-8.193,19.785
			c2.258-14.567,1.917-29.534-1.004-43.982c-2.429,11.429-4.859,22.859-7.288,34.288c-1.542,7.253-3.12,14.61-6.571,21.173
			c2.644-24.079-2.747-48.971-15.115-69.799c-0.736,20.729,5.936,41.329,4.041,61.984c-1.913-8.344-6.702-16.001-13.367-21.374
			c4.005,8.127,6.698,16.899,7.942,25.874L1426.932,1135.111z"/>
	</g>
	<g>
		<g>
			<path fill="#151ACF" d="M1590.533,1134.758c-7.094-1.182-11.823,3.547-17.734,4.729c1.182-5.911,2.365-13.005-4.729-15.37
				c-4.729,0-8.276-1.182-10.641,4.729c0-11.823-5.911-23.646-18.917-24.828c-27.193-1.182-49.657,17.734-72.12,33.104
				c-5.498,3.299-21.218,0.468-30.049,8.615l161.128,0.124c0.052-0.154,0.105-0.308,0.156-0.463
				C1599.992,1139.487,1595.262,1135.941,1590.533,1134.758z"/>
		</g>
		<g>
			<path fill="#3A3EF2" d="M1606.335,1128.029c-5.763-3.686-13.484-3.269-19.636-0.278c0.14-9.926-1.663-20.739-8.966-27.462
				c-2.899-2.669-6.472-4.495-10.114-6.001c-6.83-2.825-14.076-4.639-21.431-5.366c-19.564-1.933-39.262,3.884-56.655,13.049
				c-11.731,6.182-23.192,14.544-28.357,26.758c-0.228,0.539-0.482,1.129-1.004,1.395c-0.6,0.306-1.321,0.072-1.96-0.142
				c-12.837-4.294-28.412,3.09-33.213,15.747l11.343,0.009c8.831-8.146,24.551-5.316,30.049-8.615
				c22.464-15.37,44.927-34.287,72.12-33.104c13.005,1.182,18.917,13.005,18.917,24.828c2.365-5.911,5.911-4.729,10.641-4.729
				c7.094,2.365,5.911,9.458,4.729,15.37c5.911-1.182,10.641-5.911,17.734-4.729c4.729,1.182,9.458,4.729,7.094,10.641
				c-0.052,0.155-0.104,0.308-0.156,0.463l13.924,0.011C1614.908,1140.003,1612.098,1131.714,1606.335,1128.029z"/>
		</g>
	</g>
	<g>
		<path fill="#2A2DA1" d="M1272.688,979.879c-4.714-6.212-8.468-13.151-11.087-20.496c6.986,2.284,12.806,7.883,15.36,14.775
			c-1.688-9.552-6.846-18.713-5.704-28.346c0.05-0.419,0.123-0.862,0.404-1.177c0.654-0.733,1.888-0.278,2.611,0.386
			c1.459,1.339,2.219,3.256,2.933,5.104c2.92,7.557,5.841,15.114,8.761,22.671c-0.518-5.677-0.978-11.425-0.082-17.055
			c0.896-5.63,3.289-11.21,7.628-14.907c1.057,2.544,0.962,5.398,0.85,8.15c-0.32,7.83-0.639,15.661-0.959,23.491
			c0.798-2.352,1.616-4.743,3.067-6.759c1.452-2.016,3.659-3.636,6.139-3.773c0.063,1.61-0.499,3.171-1.052,4.684
			c-1.506,4.116-3.013,8.233-4.519,12.349"/>
	</g>
	<g>
		<g>
			<path fill="#151ACF" d="M1358.391,1151.196c-10.163-2.91-21.458,1.614-31.47-1.781c-4.123-1.398-8.065-4.6-8.566-8.925
				c-0.536-4.632,3.279-8.988,7.778-10.215c4.498-1.227,9.353,0.103,13.437,2.352c4.084,2.249,7.61,5.369,11.397,8.089
				c-1.815-3.126-3.629-6.252-5.444-9.378c-3.553-6.122-7.122-13.859-3.371-19.861c3.093-4.95,10.38-6.09,15.562-3.404
				s8.339,8.297,9.489,14.019c1.15,5.722,0.572,11.634-0.01,17.441c2.161-3.289,4.482-6.7,7.961-8.54
				c3.479-1.841,8.46-1.476,10.583,1.838c2.714,4.237-0.758,9.783-4.725,12.877c-4.048,3.158-8.789,5.423-13.789,6.588"/>
		</g>
		<g>
			<g>
				<path fill="#3A3EF2" d="M1355.589,1110.273c5.182,2.686,8.339,8.297,9.489,14.019c1.15,5.722,0.572,11.634-0.01,17.441
					c0.712-1.083,1.446-2.175,2.228-3.224c0.542-5.478,0.991-11.031-0.091-16.418c-1.15-5.722-4.307-11.333-9.489-14.019
					c-5.055-2.62-12.101-1.589-15.316,3.057C1346.016,1108.43,1351.466,1108.135,1355.589,1110.273z"/>
			</g>
			<g>
				<path fill="#3A3EF2" d="M1324.006,1132.476c4.499-1.227,9.353,0.103,13.438,2.352c4.084,2.249,7.61,5.369,11.397,8.089
					c-1.309-2.255-2.618-4.51-3.927-6.766c-1.717-1.275-3.47-2.493-5.343-3.524c-4.084-2.249-8.939-3.579-13.437-2.352
					c-2.39,0.652-4.578,2.191-6.033,4.181C1321.261,1133.549,1322.601,1132.86,1324.006,1132.476z"/>
			</g>
			<g>
				<path fill="#3A3EF2" d="M1385.74,1132.83c-2.123-3.314-7.104-3.679-10.583-1.838c-1.842,0.974-3.354,2.395-4.695,3.998
					c0.787-0.688,1.633-1.303,2.568-1.797c3.479-1.84,8.46-1.476,10.583,1.838c2.018,3.15,0.613,7.023-1.869,10.075
					C1385.387,1141.932,1388.286,1136.805,1385.74,1132.83z"/>
			</g>
		</g>
	</g>
	<g>
		<path fill="#2A2DA1" d="M1773.051,1153.972c2.429-7.349,6.112-11.374,12.202-16.152c-0.407,3.343-0.813,6.687-1.22,10.03
			c13.339-16.439,29.38-30.681,47.282-41.98c-12.153,14.536-22.61,30.49-31.089,47.434c6.496-6.973,14.624-12.415,23.545-15.766
			c-4.719,4.04-8.588,9.071-11.28,14.669c5.155-3.232,10.197-6.644,15.115-10.226c-3.478,6.406-6.069,13.294-7.674,20.405"/>
	</g>
	<g>
		<path fill="#2A2DA1" d="M1460.612,1314.194c-6.677-2.942-11.426-12.952-9.82-20.069c0.104-0.461,0.243-0.942,0.588-1.265
			c0.997-0.932,2.552,0.145,3.458,1.167c2.768,3.123,5.536,6.246,8.304,9.368c-0.563-10.556-0.956-21.833,4.492-30.892
			c0.647-1.076,1.628-2.233,2.876-2.093c0.865,0.098,1.527,0.807,2.016,1.528c2.253,3.32,2.502,7.563,2.624,11.573
			c0.175,5.721,0.242,11.444,0.201,17.168c2.065-0.765,2.88-3.171,4.111-4.996c1.231-1.826,4.201-3.098,5.434-1.274
			c0.548,0.811,0.446,1.883,0.294,2.85c-0.94,5.955-3.002,11.732-6.046,16.936"/>
	</g>
	<g>
		<path fill="#2A2DA1" d="M1057.22,1132.91c-3.051-8.266-4.479-17.126-4.18-25.932c3.065,7.243,6.753,14.223,11.009,20.837
			c-0.213-11.332-0.426-22.664-0.638-33.996c5.918,12.773,11.835,25.547,17.753,38.32c-0.831-3.621-0.878-7.419-0.138-11.06
			c3.182,3.601,5.363,8.076,6.24,12.801c0.986-3.065,1.391-6.316,1.189-9.529c2.819,4.427,5.098,9.199,6.767,14.176"/>
	</g>
	<g>
		<path fill="#2A2DA1" d="M1160.755,1208.625c-1.27-4.275-1.266-8.92,0.011-13.193c1.579,2.593,3.158,5.185,4.737,7.778
			c-0.721-7.108-1.28-14.897,2.773-20.781c0.885,0.53,0.988,1.748,0.99,2.779c0.013,5.333,0.025,10.666,0.038,15.999
			c1.042-0.479,1.397-1.743,1.987-2.726c0.59-0.983,2.066-1.746,2.799-0.864c0.405,0.487,0.313,1.202,0.2,1.825
			c-0.338,1.854-0.676,3.708-1.014,5.563c1.224-1.274,2.674-2.329,4.263-3.101c0.507,2.669-1.059,5.587-3.563,6.64"/>
	</g>
	<g>
		<path fill="#2A2DA1" d="M1043.37,1002.797c-4.057-2.321-7.189-6.209-8.592-10.667c-0.131-0.417-0.248-0.866-0.123-1.284
			c0.261-0.872,1.374-1.126,2.282-1.086c3.788,0.163,7.009,2.684,9.94,5.089c-3.768-5.671-7.654-11.671-8.183-18.459
			c-0.303-3.888,1.008-8.427,4.618-9.903c3.157-1.291,6.921,0.384,9.014,3.077c2.094,2.693,2.864,6.164,3.395,9.533
			c0.673,4.272,1.055,8.589,1.141,12.913c0.348-6.148,1.182-13.196,6.288-16.637c0.343-0.231,0.738-0.449,1.146-0.389
			c0.46,0.068,0.794,0.464,1.05,0.852c3.127,4.729,1.046,11.203-2.247,15.818c2.133-2.302,4.729-4.174,7.587-5.47
			c1.257,0.928,0.63,2.912-0.192,4.24c-2.619,4.23-6.13,7.905-10.235,10.716"/>
	</g>
</g>
<path opacity="0.05" fill="#E5EDD4" d="M498.222,1800c11.933-26.693,20.69-55.329,25.711-85.52
	c31.647-190.32-96.982-370.26-287.302-401.907C151.577,1298.43,68.599,1316.301,0,1357.379V1800H498.222z"/>
<ellipse transform="matrix(0.7071 -0.7071 0.7071 0.7071 -747.384 903.3019)" opacity="0.05" fill="#E5EDD4" cx="716.69" cy="1353.823" rx="121.802" ry="121.802"/>
<ellipse transform="matrix(0.7071 -0.7071 0.7071 0.7071 -646.4221 979.7615)" opacity="0.05" fill="#E5EDD4" cx="859.466" cy="1270.181" rx="98.324" ry="98.324"/>
</svg>
