<?xml version="1.0" encoding="utf-8"?>
<!-- Generator: Adobe Illustrator 16.0.0, SVG Export Plug-In . SVG Version: 6.00 Build 0)  -->
<!DOCTYPE svg PUBLIC "-//W3C//DTD SVG 1.1//EN" "http://www.w3.org/Graphics/SVG/1.1/DTD/svg11.dtd">
<svg version="1.1" id="Layer_1" xmlns="http://www.w3.org/2000/svg" xmlns:xlink="http://www.w3.org/1999/xlink" x="0px" y="0px"
	 width="2850px" height="2005.158px" viewBox="0 0 2850 2005.158" enable-background="new 0 0 2850 2005.158" xml:space="preserve">
<g>
	<defs>
		<rect id="SVGID_1_" x="-0.002" width="2850.002" height="2005.158"/>
	</defs>
	<clipPath id="SVGID_2_">
		<use xlink:href="#SVGID_1_"  overflow="visible"/>
	</clipPath>
	<linearGradient id="SVGID_3_" gradientUnits="userSpaceOnUse" x1="1424.9985" y1="-2.3813" x2="1424.9985" y2="1237.8658">
		<stop  offset="0.0468" style="stop-color:#EB875C"/>
		<stop  offset="0.6469" style="stop-color:#F3D486"/>
		<stop  offset="1" style="stop-color:#F7BA9E"/>
	</linearGradient>
	<rect x="-0.002" clip-path="url(#SVGID_2_)" fill="url(#SVGID_3_)" width="2850.002" height="2005.158"/>
	<path opacity="0.5" clip-path="url(#SVGID_2_)" fill="#FFE4BD" d="M432.746,422.696
		c-106.645,12.739,1737.379-261.399,1737.379-261.399L-338.83,482.675v141.29c854.777-131.274,1895.771-289.757,2019.43-302.146
		C1894.188,300.406,539.365,409.957,432.746,422.696z"/>
	<path opacity="0.5" clip-path="url(#SVGID_2_)" fill="#FFE4BD" d="M1547.979,10.882C1654.623-1.856-189.4,272.281-189.4,272.281
		L2319.555-49.097v-141.291C1464.777-59.113,423.783,99.369,300.124,111.758C86.538,133.172,1441.351,23.621,1547.979,10.882z"/>
	<path opacity="0.5" clip-path="url(#SVGID_2_)" fill="#FFE4BD" d="M2478.725,462.543
		C2585.37,449.804,741.347,723.941,741.347,723.941l2508.954-321.377v-141.29C2395.524,392.548,1354.53,551.03,1230.871,563.419
		C1017.284,584.833,2372.099,475.281,2478.725,462.543z"/>
	<path opacity="0.6" clip-path="url(#SVGID_2_)" fill="#FFF5D1" d="M1903.531,1045.978c0,265.637-214.241,480.968-478.523,480.968
		c-264.292,0-478.533-215.331-478.533-480.968c0-265.628,214.241-480.96,478.533-480.96
		C1689.29,565.018,1903.531,780.349,1903.531,1045.978z"/>
	<path opacity="0.6" clip-path="url(#SVGID_2_)" fill="#FFEDA8" d="M1774.404,1045.978c0,193.959-156.429,351.185-349.396,351.185
		c-192.978,0-349.407-157.226-349.407-351.185c0-193.95,156.429-351.176,349.407-351.176
		C1617.976,694.801,1774.404,852.027,1774.404,1045.978z"/>
	<polygon clip-path="url(#SVGID_2_)" fill="#E37555" points="2847.713,826.1 2847.059,824.402 2524.635,602.934 2288.251,879.752 
		2408.868,1019.759 2847.713,1082.287 	"/>
	<polygon clip-path="url(#SVGID_2_)" fill="#ED7B59" points="2579.488,770.966 2600.695,708.089 2524.635,602.934 2288.251,879.752 
		2408.868,1019.759 2660.072,890.326 	"/>
	<polygon opacity="0.6" clip-path="url(#SVGID_2_)" fill="#F9EFC1" points="2288.251,879.752 2524.635,602.934 2559.343,652.672 
		2531.773,661.198 2501.025,704.893 2335.286,824.659 2408.868,1095.958 	"/>
	<polyline clip-path="url(#SVGID_2_)" fill="#E37555" points="2054.352,1117.322 2563.648,1030.259 2247.991,746.063 
		1999.986,979.329 	"/>
	<polyline clip-path="url(#SVGID_2_)" fill="#ED7B59" points="2054.352,1117.322 2300.975,890.684 2247.991,746.063 
		1999.986,979.329 	"/>
	<polygon opacity="0.6" clip-path="url(#SVGID_2_)" fill="#F9EFC1" points="2247.991,746.063 2260.07,778.484 2226.753,791.931 
		2116.678,869.578 2360.665,1081.171 2058.287,1095.958 2025.118,955.692 	"/>
	<g clip-path="url(#SVGID_2_)">
		<polyline fill="#E37555" points="1802.146,1180.199 2373.24,1067.483 2019.287,699.564 1741.18,1001.567 		"/>
		<polyline fill="#E37555" points="1769.377,970.953 2019.287,699.564 2031.953,738.786 1961.476,800.706 1978.647,810.347 
			1830.395,904.688 		"/>
	</g>
	<g clip-path="url(#SVGID_2_)">
		<polyline fill="#ED7B59" points="2138.398,1017.853 2046.499,892.815 2057.209,810.347 2019.287,699.564 1741.18,1001.567 		"/>
		<polyline opacity="0.6" fill="#F9EFC1" points="1769.377,970.953 2019.287,699.564 2031.953,738.786 1961.476,800.706 
			1978.647,810.347 1830.395,904.688 		"/>
	</g>
	<rect x="-0.002" y="1226.457" clip-path="url(#SVGID_2_)" fill="#F06E1E" width="2850.002" height="778.701"/>
	<polygon clip-path="url(#SVGID_2_)" fill="#543D48" points="1437.698,1226.457 1425.008,1226.457 1412.309,1226.457 
		-0.002,1825.636 -0.002,2005.158 1425.008,2005.158 2850,2005.158 2850,1825.636 	"/>
	<polygon clip-path="url(#SVGID_2_)" fill="#684C5A" points="2847.713,1922.882 2450.452,1726.908 2450.452,1726.908 
		1435.967,1226.457 1425.008,1226.457 1414.04,1226.457 395.329,1726.908 395.329,1726.908 -0.002,1921.117 -0.002,2005.158 
		1425.008,2005.158 2850,2005.158 	"/>
	<polyline clip-path="url(#SVGID_2_)" fill="#E37555" points="1481.005,1226.457 1767.413,900.55 1939.954,1046.852 
		2016.637,1176.152 1649.942,1230.287 	"/>
	<polyline clip-path="url(#SVGID_2_)" fill="#ED7B59" points="1481.005,1226.457 1767.413,900.55 1779.309,1052.213 
		1835.861,1137.213 1649.942,1230.287 	"/>
	<polyline opacity="0.6" clip-path="url(#SVGID_2_)" fill="#F9EFC1" points="1575.373,1147.162 1481.005,1226.457 1767.413,900.55 
		1767.413,900.55 1769.377,939.332 1689.887,1019.276 1696.248,1038.085 	"/>
	<polygon clip-path="url(#SVGID_2_)" fill="#D2472A" points="2843.86,944.436 2792.049,908.876 2686.033,830.046 2614.693,866.664 
		2579.039,810.347 2444.564,960.013 2407.203,921.564 2316.729,978.854 2235.947,948.939 2170.125,984.458 2078.665,948.689 
		1966.628,939.881 1900.698,1016.312 1858.476,1016.312 1826.584,1093.044 1716.096,1117.322 1678.223,1095.958 1648.534,1146.445 
		1601.881,1187.658 1667.619,1213.553 1988.729,1277.545 2843.86,1294.08 	"/>
	<path clip-path="url(#SVGID_2_)" fill="#B51816" d="M2797.913,927.227l-19.086,21.18l-25.53-4.129l-28.969,19.05l-23.966-10.659
		l-22.264,39.965l-24.389-10.657l-21.208,15.452l-26.695-19.424l-22.078,37.542l-33.929-28.242l-40.996,39.265l-43.731-52.054
		l-35.967,28.059l-47.433-11.007l-25.448,24.744l-46.056-14.711l-34.419,28.333l-56.479-2.131l-26.947,25.577l-50.879-4.264
		l-35.139,27.31l-49.619-5.995l-34.924,46.075l-33.143-3.847l-16.965,23.846l-38.403-10.657l-28.827,20.598l-35.347-22.729
		l-19.085,19.183h-32.589l-28.909,27.708c0,0-40.475-9.607-41.443-5.869c-0.97,3.737-25.448,20.79-25.448,20.79l-56.104-3.738
		l-29.689,16.526l-33.93-10.658l-16.965,25.577l-24.553-10.656l-19.931,23.878l154.755,31.538c0,0,95.428,35.036,116.635,35.086
		s121.431,11.323,121.431,11.323l130.153,47.373l130.417,20.466h103.688l91.121,30.688l108.15-10.656l273.562,31.972l79.656,28.615
		V935.618L2797.913,927.227z"/>
	<g clip-path="url(#SVGID_2_)">
		<path fill="#C21A18" d="M1638.031,1246.173l29.688-16.526l56.114,3.738c0,0,24.47-17.052,25.447-20.791
			c0.97-3.738,41.435,5.871,41.435,5.871l28.91-27.709h32.588l19.086-19.183l35.355,22.729l28.827-20.598l38.403,10.656
			l16.965-23.845l33.135,3.847l34.924-46.075l49.619,5.994l35.14-27.309l50.886,4.263l26.947-25.577l56.479,2.131l34.408-28.333
			l46.059,14.712l25.448-24.744l47.432,11.007l35.977-28.058l43.729,52.054l40.987-39.266l33.931,28.242l22.085-37.542
			l26.689,19.424l21.205-15.452l24.388,10.657l22.268-39.965l23.972,10.657l28.96-19.049l25.53,4.13l19.086-21.181l49.603,7.992
			v-47.549l-52.086-8.393l-19.086,21.181l-25.531-4.129l-28.969,19.049l-23.963-10.658l-22.267,39.965l-24.389-10.658
			l-21.205,15.453l-26.698-19.424l-22.076,37.542l-33.931-28.241l-40.996,39.265l-43.729-52.053l-35.968,28.058l-47.435-11.007
			l-25.445,24.745l-46.059-14.712l-34.419,28.333l-56.479-2.131l-26.945,25.577l-50.879-4.264l-35.14,27.31l-49.619-5.994
			l-34.924,46.074l-33.144-3.847l-16.965,23.846l-38.402-10.657l-28.828,20.598l-35.346-22.729l-19.086,19.183h-32.588
			l-28.91,27.709c0,0-40.475-9.608-41.443-5.87s-25.447,20.79-25.447,20.79l-56.105-3.738l-29.688,16.527l-33.931-10.657
			l-16.965,25.577l-24.553-10.657l-19.931,23.878l61.663,12.564l2.271-3.414L1638.031,1246.173z"/>
	</g>
	<g opacity="0.5" clip-path="url(#SVGID_2_)">
		<polygon fill="#FFFFFF" points="1345.008,2005.158 1425.008,1226.457 1505.008,2005.158 		"/>
	</g>
	<polygon opacity="0.05" clip-path="url(#SVGID_2_)" points="1853.663,1402.932 996.343,1402.932 -0.002,1825.636 -0.002,2005.158 
		2850,2005.158 2850,1825.636 	"/>
	<path clip-path="url(#SVGID_2_)" fill="#88022F" d="M2167.191,1161.998c0,0,4.805-139.957,84.029-178.564
		c79.225-38.616,156.049-94.116,271.309-82.043c115.241,12.081,141.883-10.074,189.298,12.697
		c65.393,31.389,146.339,109.136,151.625,147.01c15.208,108.951-37.606,112.774-12.807,128.26
		c11.612,7.235,34.12,7.918,54.722,22.271c30.006,20.915-15.439,32.43,32.507,32.43c52.478,0,98.228,40.913-8.35,43.435
		c-102.089,2.415-255.743-9.656-205.321,7.228c50.416,16.91-123.351,33.795-166.568,26.552
		c-43.223-7.243-203.175,31.322-183.963-0.058c19.2-31.398-9.608-12.007-105.649-16.827
		c-96.026-4.829-312.213,38.416-220.878-12.064c48.013-26.56,64.821-16.91,67.223-50.688c2.393-33.77,48.012-24.121,74.43-21.697
		C2215.205,1222.328,2181.805,1200.53,2167.191,1161.998z"/>
	<polyline clip-path="url(#SVGID_2_)" fill="#88022F" points="2573.009,1303.672 2516.564,1452.521 2587.837,1528.386 
		2594.182,1624.709 2541.002,1628.247 2555.482,1540.209 2463.168,1449.632 2530.043,1316.186 	"/>
	<polyline clip-path="url(#SVGID_2_)" fill="#88022F" points="2561.213,1500.054 2815.432,1411.94 2791.16,1248.921 
		2760.801,1250.943 2771.803,1395.214 2771.803,1395.214 2524.966,1480.996 	"/>
	<polyline clip-path="url(#SVGID_2_)" fill="#88022F" points="2502.233,1376.248 2386.47,1384.823 2296.518,1297.435 
		2223.206,1275.431 2377.48,1413.34 2498.027,1413.34 	"/>
	<g clip-path="url(#SVGID_2_)">
		<path fill="#780229" d="M2937.874,1243.15c-47.946,0-2.501-11.515-32.507-32.429c-20.602-14.354-43.109-15.037-54.722-22.272
			c-24.8-15.485,28.015-19.307,12.807-128.26c-5.286-37.874-86.232-115.621-151.625-147.01
			c-40.125-19.274-65.398-6.368-142.097-9.266c9.443,1.515,18.738,4.337,29,9.266c65.394,31.389,146.331,109.136,151.617,147.01
			c15.208,108.953-37.609,112.774-12.799,128.26c11.604,7.235,34.12,7.918,54.714,22.272c30.011,20.914-15.435,32.429,32.512,32.429
			c50.125,0,94.014,37.309,4.932,42.854c33.274,0.715,68.902,1.314,99.818,0.582
			C3036.102,1284.063,2990.352,1243.15,2937.874,1243.15z"/>
		<path fill="#780229" d="M2543.271,902.382c9.469,0.732,18.258,1.215,26.459,1.532
			C2561.296,902.548,2552.732,902.232,2543.271,902.382z"/>
	</g>
	<g clip-path="url(#SVGID_2_)">
		<path fill="#960234" d="M2080.512,1292.173c48.029-26.567,64.829-16.909,67.23-50.688c1.061-14.845,10.462-21.297,22.903-23.671
			c-25.174-2.564-54.39-3.18-56.304,23.671c-2.401,33.778-19.2,24.12-67.221,50.688c-41.014,22.664-19.939,26.402,24.32,24.121
			C2053.49,1314.437,2052.248,1307.793,2080.512,1292.173z"/>
		<path fill="#960234" d="M2200.56,1161.849c0,0,4.804-139.957,84.03-178.564c67.577-32.945,133.481-77.98,222.881-83.101
			c-106.952-5.97-180.568,46.2-256.264,83.101c-79.235,38.607-84.039,178.564-84.039,178.564
			c11.059,29.141,32.812,48.681,31.353,55.459c8.449,0.716,16.718,1.831,23.644,2.456
			C2248.58,1222.169,2215.188,1200.381,2200.56,1161.849z"/>
	</g>
	<polygon clip-path="url(#SVGID_2_)" fill="#E37555" points="2.152,826.1 2.807,824.402 325.232,602.934 561.615,879.752 
		440.996,1019.759 2.152,1082.287 	"/>
	<polygon clip-path="url(#SVGID_2_)" fill="#ED7B59" points="270.377,770.966 249.171,708.089 325.232,602.934 561.615,879.752 
		440.996,1019.759 189.794,890.326 	"/>
	<polygon opacity="0.6" clip-path="url(#SVGID_2_)" fill="#F9EFC1" points="561.615,879.752 325.232,602.934 290.523,652.672 
		318.091,661.198 348.84,704.893 514.581,824.659 440.996,1095.958 	"/>
	<polyline clip-path="url(#SVGID_2_)" fill="#E37555" points="795.513,1117.322 286.216,1030.259 601.875,746.063 849.879,979.329 	
		"/>
	<polyline clip-path="url(#SVGID_2_)" fill="#ED7B59" points="795.513,1117.322 548.891,890.684 601.875,746.063 849.879,979.329 	
		"/>
	<polygon opacity="0.6" clip-path="url(#SVGID_2_)" fill="#F9EFC1" points="601.875,746.063 589.796,778.484 623.113,791.931 
		733.187,869.578 489.199,1081.171 791.578,1095.958 824.747,955.692 	"/>
	<g clip-path="url(#SVGID_2_)">
		<polyline fill="#E37555" points="1047.718,1180.199 476.625,1067.483 830.578,699.564 1108.687,1001.567 		"/>
		<polyline fill="#E37555" points="1080.489,970.953 830.578,699.564 817.913,738.786 888.39,800.706 871.218,810.347 
			1019.471,904.688 		"/>
	</g>
	<g clip-path="url(#SVGID_2_)">
		<polyline fill="#ED7B59" points="711.467,1017.853 803.366,892.815 792.656,810.347 830.578,699.564 1108.687,1001.567 		"/>
		<polyline opacity="0.6" fill="#F9EFC1" points="1080.489,970.953 830.578,699.564 817.913,738.786 888.39,800.706 
			871.218,810.347 1019.471,904.688 		"/>
	</g>
	<polyline clip-path="url(#SVGID_2_)" fill="#E37555" points="1368.86,1226.457 1082.452,900.55 909.911,1046.852 833.229,1176.152 
		1199.923,1230.287 	"/>
	<polyline clip-path="url(#SVGID_2_)" fill="#ED7B59" points="1368.86,1226.457 1082.452,900.55 1070.557,1052.213 
		1014.004,1137.213 1199.923,1230.287 	"/>
	<polyline opacity="0.6" clip-path="url(#SVGID_2_)" fill="#F9EFC1" points="1274.493,1147.162 1368.86,1226.457 1082.452,900.55 
		1082.452,900.55 1080.489,939.332 1159.979,1019.276 1153.617,1038.085 	"/>
	<polygon clip-path="url(#SVGID_2_)" fill="#D2472A" points="6.004,944.436 57.818,908.876 163.833,830.046 235.172,866.664 
		270.825,810.347 375.712,931.688 430.286,900.55 533.136,978.854 613.918,948.939 679.741,984.458 771.201,948.689 
		883.238,939.881 949.168,1016.312 991.389,1016.312 1023.282,1093.044 1133.77,1117.322 1171.643,1095.958 1201.332,1146.445 
		1247.984,1187.658 1182.246,1213.553 861.137,1277.545 6.004,1294.08 	"/>
	<path clip-path="url(#SVGID_2_)" fill="#B51816" d="M51.953,927.227l19.086,21.18l25.53-4.129l28.968,19.05l23.965-10.659
		l22.267,39.965l24.387-10.657l21.207,15.452l26.698-19.424l22.076,37.542l33.93-28.242l40.996,39.265l43.729-52.054l35.968,28.059
		l47.432-11.007l25.448,24.744l46.057-14.711l34.419,28.333l56.478-2.131l26.946,25.577l50.879-4.264l35.139,27.31l49.619-5.995
		l34.924,46.075l33.144-3.847l16.965,23.846l38.403-10.657l28.827,20.598l35.346-22.729l19.086,19.183h32.588l28.91,27.708
		c0,0,40.474-9.607,41.443-5.869c0.969,3.737,25.448,20.79,25.448,20.79l56.105-3.738l29.688,16.526l33.93-10.658l16.965,25.577
		l24.553-10.656l19.931,23.878l-154.756,31.538c0,0-95.428,35.036-116.634,35.086c-21.206,0.05-121.43,11.323-121.43,11.323
		l-130.154,47.373l-130.418,20.466H552.354l-91.121,30.688l-108.152-10.656l-273.561,31.972l-79.656,28.615V935.618L51.953,927.227z
		"/>
	<g clip-path="url(#SVGID_2_)">
		<path fill="#C21A18" d="M1211.835,1246.173l-29.688-16.526l-56.114,3.738c0,0-24.47-17.052-25.447-20.791
			c-0.969-3.738-41.435,5.871-41.435,5.871l-28.91-27.709h-32.588l-19.085-19.183l-35.355,22.729l-28.827-20.598l-38.404,10.656
			l-16.964-23.845l-33.135,3.847l-34.924-46.075l-49.62,5.994l-35.139-27.309l-50.887,4.263l-26.947-25.577l-56.478,2.131
			l-34.411-28.333l-46.057,14.712l-25.447-24.744l-47.433,11.007l-35.976-28.058l-43.729,52.054l-40.988-39.266l-33.93,28.242
			l-22.084-37.542l-26.69,19.424l-21.206-15.452l-24.388,10.657l-22.266-39.965l-23.973,10.657l-28.96-19.049l-25.53,4.13
			l-19.086-21.181l-49.602,7.992v-47.549l52.088-8.393l19.085,21.181l25.531-4.129l28.968,19.049l23.964-10.658l22.267,39.965
			l24.387-10.658l21.206,15.453l26.699-19.424l22.076,37.542l33.93-28.241l40.996,39.265l43.73-52.053l35.967,28.058l47.433-11.007
			l25.447,24.745l46.057-14.712l34.419,28.333l56.479-2.131l26.947,25.577l50.878-4.264l35.139,27.31l49.62-5.994l34.924,46.074
			l33.143-3.847l16.965,23.846l38.403-10.657l28.827,20.598l35.347-22.729l19.085,19.183h32.588l28.91,27.709
			c0,0,40.474-9.608,41.443-5.87c0.969,3.738,25.447,20.79,25.447,20.79l56.105-3.738l29.689,16.527l33.93-10.657l16.965,25.577
			l24.553-10.657l19.93,23.878l-61.664,12.564l-2.27-3.414L1211.835,1246.173z"/>
	</g>
	<polygon opacity="0.07" clip-path="url(#SVGID_2_)" points="323.145,1688.543 -0.002,1825.636 -0.002,2005.158 2850,2005.158 
		2850,1825.636 2526.87,1688.543 	"/>
	<path clip-path="url(#SVGID_2_)" fill="#7A5A6A" d="M1812.759,1349.147c0,0-11.042-0.283,3.62-8.9
		c14.223-8.351,22.447-22.421,40.01-16.161c17.561,6.278,40.789,18.234,33.425,23.354S1829.185,1349.147,1812.759,1349.147z"/>
	<path clip-path="url(#SVGID_2_)" fill="#7A5A6A" d="M976.777,1349.147c0,0-11.051-0.283,3.62-8.9
		c14.223-8.351,22.44-22.421,40.01-16.161c17.561,6.278,40.789,18.234,33.425,23.354S993.212,1349.147,976.777,1349.147z"/>
	<path clip-path="url(#SVGID_2_)" fill="#7A5A6A" d="M1058.031,1325.818c0,0-7.753-0.2,2.544-6.245
		c9.973-5.861,15.747-15.735,28.064-11.339c12.327,4.403,28.628,12.797,23.46,16.385
		C1106.931,1328.215,1069.554,1325.818,1058.031,1325.818z"/>
	<polyline clip-path="url(#SVGID_2_)" fill="#E0671C" points="2541.002,1628.247 2847.713,1765.274 2847.713,1725.843 
		2594.182,1624.709 	"/>
	<polyline clip-path="url(#SVGID_2_)" fill="#E0671C" points="508.268,1540.018 6.004,1765.274 6.004,1725.843 464.423,1533.656 	
		"/>
	<polyline clip-path="url(#SVGID_2_)" fill="#E0671C" points="2656.56,1633.126 2850,1694.987 2847.713,1636.697 2810.338,1624.709 
			"/>
	<polyline clip-path="url(#SVGID_2_)" fill="#E0671C" points="299.279,1569.291 6.004,1670.075 6.004,1592.637 84.326,1569.291 	"/>
	<g clip-path="url(#SVGID_2_)">
		<path fill="#E6691D" d="M2204.668,1459.123l106.818,34.155c1.485,0.475,3.943,0.579,5.464,0.232l74.22-16.946
			c1.52-0.347,1.545-1.006,0.055-1.465l-72.258-22.237"/>
	</g>
	<path clip-path="url(#SVGID_2_)" fill="#684C5A" d="M2664.032,1634.607c0,0-20.677-0.533,6.776-16.651
		c26.607-15.628,41.998-41.963,74.867-30.239c32.869,11.723,76.341,34.103,62.558,43.693
		C2794.449,1641.002,2694.779,1634.607,2664.032,1634.607z"/>
	<path clip-path="url(#SVGID_2_)" fill="#735463" d="M2210.351,1460.847c0,0-15.739-0.407,5.169-12.688
		c20.262-11.897,31.983-31.955,57.018-23.029c25.031,8.934,58.143,25.978,47.638,33.278
		C2309.681,1465.71,2233.777,1460.847,2210.351,1460.847z"/>
	<path clip-path="url(#SVGID_2_)" fill="#684C5A" d="M90.919,1574.845c0,0-29.34-0.749,9.618-23.629
		c37.765-22.181,59.601-59.546,106.246-42.912c46.646,16.636,108.343,48.391,88.776,62.003
		C276.002,1583.92,134.558,1574.845,90.919,1574.845z"/>
	<g clip-path="url(#SVGID_2_)">
		<path fill="#88022F" d="M850.327,1155.688c0,0-3.96-115.372-69.269-147.185c-65.308-31.838-128.628-77.581-223.634-67.639
			c-94.998,9.958-116.958-8.301-156.048,10.474c-53.894,25.868-120.619,89.96-124.977,121.174
			c-12.533,89.812,31.006,92.959,10.554,105.73c-9.568,5.961-28.123,6.519-45.104,18.366
			c-24.735,17.227,12.724,26.727-26.806,26.727c-43.25,0-80.949,33.72,6.9,35.81c84.137,1.974,210.794-7.968,169.244,5.945
			c-41.559,13.944,101.674,27.857,137.302,21.889c35.62-5.971,167.472,25.827,151.641-0.05c-15.838-25.878,7.911-9.9,87.079-13.871
			c79.158-3.979,257.366,31.663,182.075-9.95c-39.58-21.88-53.438-13.921-55.409-41.778c-1.979-27.833-39.58-19.874-61.357-17.885
			C810.747,1205.41,838.282,1187.443,850.327,1155.688z"/>
		<polyline fill="#88022F" points="481.876,1272.475 546.042,1369.787 469.658,1457.699 464.423,1537.095 508.268,1540.018 
			496.332,1467.449 590.062,1367.406 517.298,1282.781 		"/>
		<polyline fill="#88022F" points="527.694,1422.282 620.72,1411.458 733.842,1254.19 765.651,1263.125 635.937,1434.903 
			514.961,1449.174 		"/>
	</g>
	<g clip-path="url(#SVGID_2_)">
		<g>
			<path fill="#B51816" d="M1768.516,489.07c-11.084-12.273-24.984-25.636-41.319-23.413c-9.029,1.24-22.067,4.221-31.975,13.995
				c0,0-20.858-20.248-33.227-23.412c-12.359-3.197-26.177-1.524-36.663,5.779c9.128-3.614,19.491-0.309,28.223,4.187
				c16.152,8.334,30.145,20.856,40.242,36.018c7.952-10.324,16.923-21.33,29.598-24.195
				C1739.323,474.424,1755.477,479.187,1768.516,489.07"/>
		</g>
		<g>
			<path fill="#B51816" d="M2113.199,284.586c23.566-11.106,51.89-22.071,74.338-8.866c12.408,7.334,29.59,19.632,38.122,39.922
				c0,0,42.635-16.735,62.558-13.796c19.939,2.889,39.048,13.771,49.919,30.797c-11.119-10.824-28.215-12.347-43.657-11.124
				c-28.561,2.273-56.519,11.973-80.41,27.875c-5.325-19.899-11.735-41.396-28.469-53.336
				C2164.584,281.089,2138.158,278.142,2113.199,284.586"/>
		</g>
		<g>
			<path fill="#B51816" d="M1927.893,126.52c21.588-19.324,48.377-40.164,77.52-34.693c16.12,3.047,39.215,9.424,55.799,26.842
				c0,0,40.25-31.604,62.939-35.576c22.689-4.022,47.366,0.291,65.317,13.596c-15.988-7.001-35.081-2.597-51.417,3.988
				c-30.186,12.198-57.042,31.638-77.246,55.892c-12.972-18.125-27.692-37.475-50.158-43.662
				C1982.425,105.188,1952.67,111.392,1927.893,126.52"/>
		</g>
		<g>
			<path fill="#B51816" d="M1651.384,508.894c-14.165-8.476-31.329-17.202-46.306-10.282c-8.284,3.812-19.897,10.49-26.533,22.737
				c0,0-25.836-13.246-38.576-12.672c-12.757,0.583-25.48,6.228-33.4,16.26c7.688-6.111,18.555-5.994,28.215-4.238
				c17.859,3.239,34.891,11.115,48.939,22.671c4.622-12.205,10.007-25.36,21.289-31.812
				C1619.21,503.439,1636.051,503.256,1651.384,508.894"/>
		</g>
		<g>
			<path fill="#B51816" d="M1445.699,900.208c-5.5-4.704-12.284-9.75-19.268-7.868c-3.86,1.041-9.376,3.064-13.137,7.885
				c0,0-10.206-7.644-15.764-8.335c-5.558-0.699-11.473,0.809-15.632,4.571c3.77-2.081,8.467-1.232,12.509,0.25
				c7.497,2.714,14.281,7.376,19.516,13.421c2.883-4.953,6.18-10.24,11.531-12.188
				C1432.182,895.479,1439.487,896.645,1445.699,900.208"/>
		</g>
		<g>
			<path fill="#B51816" d="M1604.531,677.184c5.782-42.762-37.889-40.498-46.488-29.541c0,0-27.965-33.437-56.875,22.347
				c31.221-22.78,46.687-19.882,58.614-6.136C1566.369,652.614,1583.723,645.586,1604.531,677.184"/>
		</g>
		<g>
			<path fill="#B51816" d="M2000.822,348.695c11.266-67.356-73.815-63.793-90.557-46.534c0,0-54.49-52.661-110.794,35.203
				c47.341-35.31,78.09-40.639,114.182-9.667C1939.789,299.923,1977.612,297.758,2000.822,348.695"/>
		</g>
		<g>
			<path fill="#B51816" d="M1526.656,413.67c0.439-43.345-51.798-32.895-60.471-20.457c0,0-38.768-27.792-65.044,32.762
				c34.104-28.366,53.156-28.416,69.608-17.067C1476.971,396.561,1496.794,386.353,1526.656,413.67"/>
		</g>
		<g>
			<path fill="#B51816" d="M1928.829,633.448c9.353-42.32-44.16-42.944-55.252-32.57c0,0-32.406-35.244-70.718,18.558
				c39.381-20.682,58.127-16.768,71.977-2.256C1883.492,606.389,1905.08,600.519,1928.829,633.448"/>
		</g>
		<g>
			<path fill="#B51816" d="M1585.446,832.145c0.695-26.951-26.26-22.571-30.85-15.178c0,0-19.623-18.858-33.813,17.743
				c17.843-16.27,27.643-15.528,35.984-7.793C1560.098,819.481,1570.395,813.944,1585.446,832.145"/>
		</g>
		<g>
			<path fill="#B51816" d="M1368.289,873.258c0.704-26.951-26.251-22.571-30.849-15.178c0,0-19.624-18.858-33.814,17.743
				c17.852-16.269,27.643-15.528,35.993-7.793C1342.941,860.594,1353.238,855.057,1368.289,873.258"/>
		</g>
		<g>
			<path fill="#B51816" d="M1413.791,778.984c-6.03-6.669-13.585-13.921-22.465-12.706c-4.904,0.684-11.987,2.315-17.363,7.626
				c0,0-11.366-10.981-18.075-12.696c-6.727-1.732-14.231-0.816-19.922,3.155c4.962-1.965,10.595-0.174,15.333,2.265
				c8.789,4.513,16.402,11.306,21.902,19.549c4.316-5.611,9.178-11.598,16.07-13.171
				C1397.92,771.042,1406.708,773.605,1413.791,778.984"/>
		</g>
	</g>
	<g clip-path="url(#SVGID_2_)">
		<path fill="#780229" d="M215.043,1222.577c39.529,0,2.071-9.491,26.806-26.726c16.981-11.84,35.537-12.389,45.104-18.358
			c20.453-12.764-23.087-15.928-10.554-105.722c4.357-31.23,71.083-95.307,124.977-121.183c33.085-15.886,53.91-5.262,117.131-7.635
			c-7.77,1.241-15.441,3.571-23.906,7.635c-53.894,25.876-120.619,89.952-124.976,121.183
			c-12.533,89.794,31.005,92.958,10.562,105.722c-9.577,5.97-28.132,6.519-45.105,18.358
			c-24.744,17.234,12.715,26.726-26.798,26.726c-41.319,0-77.502,30.756-4.076,35.336c-27.418,0.582-56.784,1.073-82.265,0.465
			C134.094,1256.306,171.793,1222.577,215.043,1222.577z"/>
		<path fill="#780229" d="M540.326,941.696c-7.803,0.591-15.043,0.982-21.819,1.257
			C525.465,941.821,532.523,941.563,540.326,941.696z"/>
	</g>
	<g clip-path="url(#SVGID_2_)">
		<path fill="#960234" d="M921.773,1262.991c-39.587-21.896-53.438-13.938-55.417-41.779c-0.871-12.239-8.624-17.56-18.879-19.524
			c20.75-2.105,44.832-2.605,46.413,19.524c1.988,27.842,15.822,19.883,55.41,41.779c33.806,18.684,16.443,21.764-20.046,19.874
			C944.057,1281.342,945.067,1275.863,921.773,1262.991z"/>
		<path fill="#960234" d="M822.816,1155.571c0,0-3.96-115.372-69.268-147.201c-55.7-27.159-110.025-64.275-183.716-68.497
			c88.164-4.912,148.842,38.091,211.243,68.497c65.308,31.829,69.276,147.201,69.276,147.201
			c-9.129,24.012-27.055,40.131-25.846,45.708c-6.974,0.583-13.784,1.508-19.499,2.023
			C783.237,1205.293,810.764,1187.326,822.816,1155.571z"/>
	</g>
</g>
</svg>
