<?xml version="1.0" encoding="utf-8"?>
<!-- Generator: Adobe Illustrator 16.0.0, SVG Export Plug-In . SVG Version: 6.00 Build 0)  -->
<!DOCTYPE svg PUBLIC "-//W3C//DTD SVG 1.1//EN" "http://www.w3.org/Graphics/SVG/1.1/DTD/svg11.dtd">
<svg version="1.1" id="Layer_1" xmlns="http://www.w3.org/2000/svg" xmlns:xlink="http://www.w3.org/1999/xlink" x="0px" y="0px"
	 width="720px" height="503.999px" viewBox="0 0 720 503.999" enable-background="new 0 0 720 503.999" xml:space="preserve">
<symbol  id="New_Symbol" viewBox="-0.763 -0.763 1.526 1.525">
	<path fill="#FFFFFF" d="M0.763,0c0-0.421-0.342-0.762-0.763-0.762S-0.763-0.421-0.763,0S-0.421,0.763,0,0.763S0.763,0.42,0.763,0z"
		/>
</symbol>
<linearGradient id="SVGID_1_" gradientUnits="userSpaceOnUse" x1="360.1899" y1="-0.1108" x2="360.1899" y2="503.9995">
	<stop  offset="0" style="stop-color:#BF979E"/>
	<stop  offset="0.0098" style="stop-color:#C29C9F"/>
	<stop  offset="0.071" style="stop-color:#D4B7A6"/>
	<stop  offset="0.1253" style="stop-color:#DFC7AB"/>
	<stop  offset="0.1668" style="stop-color:#E3CDAC"/>
	<stop  offset="0.2085" style="stop-color:#E6D2B0"/>
	<stop  offset="0.2257" style="stop-color:#E8D6B4"/>
	<stop  offset="0.2775" style="stop-color:#ECDEBC"/>
	<stop  offset="0.3743" style="stop-color:#F0E7C4"/>
	<stop  offset="0.5409" style="stop-color:#F1E9C6"/>
	<stop  offset="0.7781" style="stop-color:#F4EBD7"/>
	<stop  offset="0.9868" style="stop-color:#F5ECE0"/>
</linearGradient>
<polygon fill="url(#SVGID_1_)" points="720,503.999 0,503.999 0.38,-0.111 720.38,-0.111 "/>
<path fill="#FDFFC6" d="M670.178,93.248c-38.816,0-70.285,31.468-70.285,70.286c0,38.817,31.469,70.285,70.285,70.285
	c19.25,0,36.688-7.746,49.381-20.283V113.531C706.865,100.994,689.428,93.248,670.178,93.248z"/>
<g opacity="0.8">
	<path fill="#F2EBE2" d="M445.608,146.893c-2-9,13-10.5,17.5-4c0-8,11.5-12,16-5c1.5-10,17-23,24.5-10.5c0.5-6,6-7,9.5-1.5
		c0.5-9.5,17.5-24,25.5-13.5c0.5-8,9.5-10.5,11.5-2c0-3.5,1.527-7.485,5.835-9.356c3.601-1.563,10.165-3.644,11.165,4.856
		c10-12.5,33-14.5,35.5,4c8.5-3.5,17,1,13.5,11c9-6.5,18.5,4,19.5,13l0,0h-1c4-0.5,13.224-4.5,11.5,5.5c12-5,26.833,7.5,25,10.5
		s-20.796-1.5-31.296-2c-18.5-0.5-36.704-3-54.704-4c-31-1.5-60.5-3-91.5,1c-9,1.5-43.5,9.5-47.5,2.5"/>
</g>
<g opacity="0.5">
	<path fill="#F2EBE2" d="M22.729,51.35c4.5-7,16-3,16,5c4.5-6.5,19.5-5,17.5,4l-0.5,0.5c-4,7-38.5-1-47.5-2.5
		c-2.618-0.338-5.222-0.623-7.82-0.886V38.106C8.381,30.649,21.363,42.24,22.729,51.35z"/>
</g>
<g>
	<path fill="#F2EBE2" d="M133.181,153.35c-0.006-0.055-0.016-0.11-0.023-0.164c-0.349,0.068-0.679,0.127-0.977,0.164H133.181z"/>
</g>
<g opacity="0.8">
	<path fill="#F2EBE2" d="M206.729,182.917c-2-9,13-10.5,17.5-4c0-8,11.5-12,16-5c1.5-10,17-23,24.5-10.5c0.5-6,6-7,9.5-1.5
		c0.5-9.5,17.5-24,25.5-13.5c0.5-8,9.5-10.5,11.5-2c0-3.5,1.527-7.485,5.835-9.356c3.6-1.563,10.165-3.644,11.165,4.856
		c10-12.5,33-14.5,35.5,4c8.5-3.5,17,1,13.5,11c9-6.5,18.5,4,19.5,13l0,0h-1c4-0.5,13.224-4.5,11.5,5.5c12-5,26.833,7.5,25,10.5
		s-20.796-1.5-31.296-2c-18.5-0.5-36.704-3-54.704-4c-31-1.5-60.5-3-91.5,1c-9,1.5-43.5,9.5-47.5,2.5"/>
</g>
<g opacity="0.8">
	<path fill="#F2EBE2" d="M143.681,158.85c1.595-9.255-6.184-6.52-10.523-5.664c0.007,0.054,0.017,0.109,0.023,0.164h-1
		c0.298-0.037,0.628-0.096,0.977-0.164c-1.096-8.963-10.532-19.296-19.477-12.836c3.5-10-5-14.5-13.5-11c-2.5-18.5-25.5-16.5-35.5-4
		c-1-8.5-7.564-6.42-11.165-4.856c-4.308,1.871-5.835,5.856-5.835,9.356c-2-8.5-11-6-11.5,2c-8-10.5-25,4-25.5,13.5
		c-3.5-5.5-9-4.5-9.5,1.5c-0.668-1.113-1.401-2.015-2.18-2.744v19.358c28.17-2.848,55.298-1.488,83.68-0.114
		c18,1,36.204,3.5,54.704,4c10.5,0.5,29.463,5,31.296,2S155.681,153.85,143.681,158.85z"/>
</g>
<g opacity="0.5">
	<path fill="#F2EBE2" d="M121.233,98.255c-1.597-5.327,10.385-6.215,13.98-2.367c0-4.735,9.187-7.103,12.781-2.959
		c1.198-5.919,13.58-13.613,19.571-6.215c0.399-3.551,4.793-4.143,7.588-0.888c0.399-5.623,13.98-14.205,20.371-7.99
		c0.398-4.735,7.588-6.215,9.186-1.184c0-2.071,1.22-4.43,4.662-5.538c2.875-0.925,8.12-2.157,8.919,2.875
		c7.988-7.398,26.361-8.583,28.358,2.367c6.791-2.071,13.58,0.592,10.784,6.511c7.189-3.847,14.778,2.368,15.577,7.694l0,0h-0.799
		c3.195-0.296,10.563-2.664,9.187,3.255c9.586-2.959,21.435,4.439,19.97,6.214c-1.464,1.776-16.612-0.887-25-1.184
		c-14.778-0.296-29.32-1.775-43.698-2.368c-24.764-0.888-48.329-1.775-73.093,0.592c-7.189,0.888-34.749,5.623-37.944,1.479"/>
</g>
<g opacity="0.5">
	<path fill="#F2EBE2" d="M381.225,93.862c-1.088-3.63,7.079-4.236,9.528-1.614c0-3.227,6.262-4.841,8.71-2.017
		c0.818-4.034,9.256-9.278,13.34-4.236c0.271-2.42,3.267-2.824,5.171-0.604c0.271-3.833,9.528-9.682,13.883-5.446
		c0.273-3.227,5.172-4.236,6.261-0.807c0-1.411,0.832-3.02,3.178-3.774c1.961-0.63,5.533-1.47,6.078,1.959
		c5.444-5.042,17.967-5.849,19.327,1.613c4.628-1.411,9.256,0.404,7.35,4.438c4.9-2.622,10.071,1.614,10.616,5.244l0,0h-0.545
		c2.178-0.202,7.2-1.815,6.263,2.219c6.532-2.018,14.608,3.025,13.609,4.234c-0.997,1.211-11.322-0.604-17.039-0.806
		c-10.071-0.202-19.982-1.21-29.781-1.613c-16.878-0.606-32.938-1.21-49.815,0.403c-4.899,0.605-23.683,3.832-25.859,1.008"/>
</g>
<path opacity="0.7" fill="#B59390" d="M-0.141,174.709l37.864-23.352L76,169.981l67-38l109.839,60.061L302,172.981l71,36l32-6
	c0,0,155,84,159,86s-564,5-564,5L-0.141,174.709z"/>
<polygon fill="#95BBD3" points="225.259,317.245 719.934,317.245 720,498.276 379.666,456.618 "/>
<polygon fill="#83B3D2" points="236.497,332.287 394,429.922 694.527,497.5 495.096,472.833 379.666,456.618 "/>
<polygon fill="#7A8275" points="174.433,291.409 720,293.605 719.934,317.245 225.259,317.245 "/>
<g opacity="0.6">
	<polygon fill="#BEA46F" points="19.255,276.167 17.496,277.285 18.791,282.515 20.621,280.265 	"/>
	<g>
		<g>
			<g>
				<polygon fill="#3B493D" points="13.438,247.955 14.04,263.408 15.766,264.154 				"/>
				<polygon fill="#BEA46F" points="15.744,264.007 16.5,264.148 13.438,247.955 				"/>
				<polygon fill="#2A3521" points="13.438,247.955 12.198,262.011 14.04,263.408 				"/>
				<polygon fill="#2A3521" points="12.715,262.403 11.32,270.876 14.286,272.811 14.04,263.296 				"/>
				<polygon fill="#3B493D" points="16.884,273.287 14.283,272.799 14.04,263.408 15.258,263.927 				"/>
				<polygon fill="#3B493D" points="14.286,272.69 14.367,277.382 17.496,277.285 16.884,273.287 				"/>
				<polygon fill="#3B493D" points="14.367,277.382 13.514,283.37 18.791,282.515 17.496,277.285 				"/>
				<polygon fill="#2A3521" points="11.51,271 10.505,275.691 14.449,277.479 14.286,272.69 				"/>
				<polygon fill="#2A3521" points="11.178,275.992 9.838,280.862 13.514,283.37 14.449,277.479 				"/>
				<polygon fill="#3B493D" points="13.514,283.37 12.803,289.301 20.132,287.821 18.791,282.515 				"/>
				<polygon fill="#2A3521" points="10.27,281.105 8.844,286.392 12.803,289.301 13.514,283.37 				"/>
				<polygon fill="#BEA46F" points="20.132,287.821 21.876,285.588 20.502,280.438 18.791,282.515 				"/>
			</g>
			<polygon fill="#BEA46F" points="15.258,263.927 16.237,264.086 18.167,272.684 16.884,273.287 			"/>
		</g>
		<polygon fill="#BEA46F" points="16.884,273.287 17.496,277.285 19.339,276.081 18.139,272.559 		"/>
		<polygon fill="#1E282B" points="12.715,262.403 14.04,263.296 15.258,263.927 16.237,264.086 16.346,264.57 15.388,264.676 
			14.04,264.295 12.631,262.912 		"/>
		<polygon fill="#1E282B" points="11.51,271 14.286,272.69 16.884,273.287 18.139,272.559 18.296,273.021 16.981,273.919 
			14.266,273.779 11.432,271.337 		"/>
		<polygon fill="#1E282B" points="11.178,275.992 14.449,277.38 17.496,277.285 19.255,276.167 19.398,276.623 17.649,277.902 
			14.312,278.338 11.09,276.314 		"/>
		<polygon fill="#1E282B" points="10.258,281.148 13.514,283.37 18.791,282.515 20.506,280.445 20.621,280.884 18.969,283.219 
			13.423,284.124 10.169,281.479 		"/>
		<polygon opacity="0.8" fill="#1E282B" points="21.876,285.588 20.132,287.821 12.803,289.301 8.844,286.392 8.55,287.233 
			12.198,290.742 20.993,289.126 		"/>
	</g>
</g>
<g opacity="0.6">
	<polygon fill="#BEA46F" points="39.405,274.753 37.646,275.871 38.941,281.101 40.771,278.851 	"/>
	<g>
		<g>
			<g>
				<polygon fill="#3B493D" points="33.588,246.541 34.189,261.994 35.916,262.74 				"/>
				<polygon fill="#BEA46F" points="35.894,262.593 36.65,262.734 33.588,246.541 				"/>
				<polygon fill="#2A3521" points="33.588,246.541 32.348,260.597 34.189,261.994 				"/>
				<polygon fill="#2A3521" points="32.865,260.989 31.47,269.462 34.436,271.396 34.189,261.882 				"/>
				<polygon fill="#3B493D" points="37.034,271.873 34.433,271.385 34.189,261.994 35.408,262.513 				"/>
				<polygon fill="#3B493D" points="34.436,271.276 34.517,275.968 37.646,275.871 37.034,271.873 				"/>
				<polygon fill="#3B493D" points="34.517,275.968 33.664,281.956 38.941,281.101 37.646,275.871 				"/>
				<polygon fill="#2A3521" points="31.66,269.586 30.655,274.277 34.599,276.064 34.436,271.276 				"/>
				<polygon fill="#2A3521" points="31.328,274.578 29.988,279.448 33.664,281.956 34.599,276.064 				"/>
				<polygon fill="#3B493D" points="33.664,281.956 32.953,287.887 40.282,286.407 38.941,281.101 				"/>
				<polygon fill="#2A3521" points="30.42,279.691 28.994,284.978 32.953,287.887 33.664,281.956 				"/>
				<polygon fill="#BEA46F" points="40.282,286.407 42.026,284.174 40.652,279.024 38.941,281.101 				"/>
			</g>
			<polygon fill="#BEA46F" points="35.408,262.513 36.387,262.672 38.316,271.27 37.034,271.873 			"/>
		</g>
		<polygon fill="#BEA46F" points="37.034,271.873 37.646,275.871 39.489,274.667 38.289,271.145 		"/>
		<polygon fill="#1E282B" points="32.865,260.989 34.189,261.882 35.408,262.513 36.387,262.672 36.496,263.156 35.538,263.262 
			34.189,262.881 32.781,261.498 		"/>
		<polygon fill="#1E282B" points="31.66,269.586 34.436,271.276 37.034,271.873 38.289,271.145 38.446,271.606 37.131,272.505 
			34.416,272.365 31.582,269.923 		"/>
		<polygon fill="#1E282B" points="31.328,274.578 34.599,275.966 37.646,275.871 39.405,274.753 39.548,275.209 37.799,276.488 
			34.462,276.924 31.24,274.9 		"/>
		<polygon fill="#1E282B" points="30.408,279.734 33.664,281.956 38.941,281.101 40.656,279.031 40.771,279.47 39.119,281.805 
			33.573,282.71 30.319,280.065 		"/>
		<polygon opacity="0.8" fill="#1E282B" points="42.026,284.174 40.282,286.407 32.953,287.887 28.994,284.978 28.7,285.819 
			32.348,289.328 41.143,287.712 		"/>
	</g>
</g>
<g>
	<polygon fill="#DBC5AF" points="702.553,209.334 660.836,184.16 634.224,166.179 611.207,151.793 549.57,117.274 563.174,135.036 
		559.28,140.65 565.034,145.685 560.24,149.641 560.74,156.828 541.659,148.922 550.29,166.543 550.29,176.973 565,195.342 
		539.86,189.919 545.651,214.369 545.151,233.075 590.079,297.192 720,295.5 720,212.93 	"/>
	<polygon fill="#B59390" points="549.57,117.274 488.434,146.764 457.865,168.342 435.568,173.736 183.902,293.217 335.5,295.051 
		590.079,297.192 545.151,233.075 546.334,213.655 539.86,189.919 565,195.342 550.29,176.973 550.29,166.543 541.659,148.922 
		560.24,156.833 560.24,149.641 565.034,145.685 559.28,140.65 563.174,135.036 	"/>
</g>
<path fill="#6A7365" d="M0,289.93l108.245,0.001l78.725,7.022l38.289,20.333c0,0,127.397,124.647,161.731,136.988
	S720,498.317,720,498.317v5.723H0V289.93z"/>
<path fill="#324339" d="M0.189,355.844c7.608,0,205.31,32.403,245.608,45.828s112.535,70.632,147.868,79.926
	s326.523,22.401,326.523,22.401h-720V355.844"/>
<polygon fill="#626B57" points="157.42,291.204 197.478,300.169 207.317,307.562 105.96,320.283 53.628,309.903 0,324.089 
	0,288.773 "/>
<path fill="#475A49" d="M0,430.787v73.212l367.739-0.769c0,0-57.408-40.612-93.406-46.612s-115.218-29.424-133.882-42.685
	C83.454,373.436,0.189,390.583,0.189,390.583L0,430.787z"/>
<polygon fill="#7C6563" points="475.986,285.35 483.42,289.794 487.18,286.128 489.242,289.794 491.305,286.711 493.729,289.794 
	495.671,282.878 498.823,290.203 501.856,286.878 504.646,290.203 507.314,282.294 510.468,290.711 516.365,289.006 
	521.384,290.711 524.174,289.211 528.297,292.399 533.636,294.128 537.018,296.682 475.988,296.419 "/>
<g opacity="0.6">
	<polygon fill="#BEA46F" points="109.754,277.229 107.995,278.348 109.29,283.577 111.12,281.327 	"/>
	<g>
		<g>
			<g>
				<polygon fill="#3B493D" points="103.937,249.018 104.538,264.471 106.264,265.217 				"/>
				<polygon fill="#BEA46F" points="106.243,265.069 106.999,265.211 103.937,249.018 				"/>
				<polygon fill="#2A3521" points="103.937,249.018 102.696,263.073 104.538,264.471 				"/>
				<polygon fill="#2A3521" points="103.213,263.466 101.819,271.938 104.784,273.873 104.538,264.358 				"/>
				<polygon fill="#3B493D" points="107.383,274.35 104.781,273.861 104.538,264.471 105.757,264.989 				"/>
				<polygon fill="#3B493D" points="104.784,273.753 104.866,278.444 107.995,278.348 107.383,274.35 				"/>
				<polygon fill="#3B493D" points="104.866,278.444 104.012,284.433 109.29,283.577 107.995,278.348 				"/>
				<polygon fill="#2A3521" points="102.009,272.062 101.004,276.754 104.947,278.541 104.784,273.753 				"/>
				<polygon fill="#2A3521" points="101.677,277.055 100.336,281.925 104.012,284.433 104.947,278.541 				"/>
				<polygon fill="#3B493D" points="104.012,284.433 103.302,290.363 103.917,289.93 108.886,289.93 110.631,288.884 
					109.29,283.577 				"/>
				<polygon fill="#2A3521" points="100.769,282.168 99.342,287.454 103.302,290.363 104.012,284.433 				"/>
				<polygon fill="#BEA46F" points="110.631,288.884 112.375,286.65 111,281.501 109.29,283.577 				"/>
			</g>
			<polygon fill="#BEA46F" points="105.757,264.989 106.736,265.148 108.665,273.746 107.383,274.35 			"/>
		</g>
		<polygon fill="#BEA46F" points="107.383,274.35 107.995,278.348 109.838,277.144 108.637,273.621 		"/>
		<polygon fill="#1E282B" points="103.213,263.466 104.538,264.358 105.757,264.989 106.736,265.148 106.844,265.633 
			105.887,265.738 104.538,265.357 103.129,263.975 		"/>
		<polygon fill="#1E282B" points="102.009,272.062 104.784,273.753 107.383,274.35 108.637,273.621 108.794,274.083 107.48,274.981 
			104.765,274.842 101.931,272.399 		"/>
		<polygon fill="#1E282B" points="101.677,277.055 104.947,278.442 107.995,278.348 109.754,277.229 109.896,277.686 
			108.147,278.965 104.811,279.4 101.588,277.377 		"/>
		<polygon fill="#1E282B" points="100.757,282.211 104.012,284.433 109.29,283.577 111.004,281.508 111.12,281.946 109.468,284.281 
			103.922,285.187 100.668,282.542 		"/>
	</g>
</g>
<g opacity="0.6">
	<polygon fill="#BEA46F" points="137.952,279.248 136.069,280.144 136.719,285.492 138.809,283.481 	"/>
	<g>
		<g>
			<g>
				<polygon fill="#3B493D" points="135.606,250.538 134.325,265.949 135.947,266.899 				"/>
				<polygon fill="#BEA46F" points="135.944,266.751 136.677,266.982 135.606,250.538 				"/>
				<polygon fill="#2A3521" points="135.606,250.538 132.667,264.338 134.325,265.949 				"/>
				<polygon fill="#2A3521" points="133.132,264.791 130.718,273.031 133.426,275.312 134.338,265.838 				"/>
				<polygon fill="#3B493D" points="135.948,276.102 133.425,275.301 134.325,265.949 135.472,266.612 				"/>
				<polygon fill="#3B493D" points="133.441,275.193 132.952,279.859 136.069,280.144 135.948,276.102 				"/>
				<polygon fill="#3B493D" points="132.952,279.859 131.377,285.699 136.719,285.492 136.069,280.144 				"/>
				<polygon fill="#2A3521" points="130.892,273.178 129.324,277.712 133.021,279.966 133.441,275.193 				"/>
				<polygon fill="#2A3521" points="129.955,278.093 128.033,282.764 131.377,285.699 133.021,279.966 				"/>
				<polygon fill="#3B493D" points="131.377,285.699 130.132,290.764 137.405,290.922 136.719,285.492 				"/>
				<polygon fill="#2A3521" points="128.432,283.058 126.374,288.131 128.51,290.754 130.132,290.764 131.377,285.699 				"/>
				<polygon fill="#BEA46F" points="137.405,290.922 139.408,288.917 138.67,283.638 136.719,285.492 				"/>
			</g>
			<polygon fill="#BEA46F" points="135.472,266.612 136.424,266.889 137.294,275.658 135.948,276.102 			"/>
		</g>
		<polygon fill="#BEA46F" points="135.948,276.102 136.069,280.144 138.045,279.172 137.281,275.53 		"/>
		<polygon fill="#1E282B" points="133.132,264.791 134.338,265.838 135.472,266.612 136.424,266.889 136.473,267.384 
			135.509,267.372 134.217,266.83 132.987,265.286 		"/>
		<polygon fill="#1E282B" points="130.892,273.178 133.441,275.193 135.948,276.102 137.281,275.53 137.381,276.008 135.968,276.74 
			133.29,276.271 130.773,273.503 		"/>
		<polygon fill="#1E282B" points="129.955,278.093 133.033,279.867 136.069,280.144 137.952,279.248 138.038,279.717 
			136.146,280.775 132.781,280.803 129.828,278.401 		"/>
		<polygon fill="#1E282B" points="128.416,283.099 131.377,285.699 136.719,285.492 138.672,283.646 138.734,284.096 
			136.811,286.212 131.195,286.437 128.287,283.417 		"/>
	</g>
</g>
<path fill="#7C6563" d="M177.232,296.438c0.208-0.265,3.184-19.006,3.6-18.653s2.494,6.339,2.494,6.339l0,0l5.819-12.237
	l2.078,4.402l1.87-0.177c0,0,1.454,5.37,1.454,5.546s1.04-2.464,1.04-2.464l1.87,2.729l1.454-3.081l1.455,2.024l4.572-12.236
	l2.909,10.035l9.559-25.718l6.025,16.739l2.079-4.314l1.454,6.339l2.078-4.138l3.116,7.043l3.117-10.212l1.455,12.236l2.493-3.962
	l2.702,3.082l3.325-11.796l3.949,11.18l3.116-5.899l3.532,6.691l1.455-3.081l1.455,3.873l1.662-3.697l1.247,3.17l1.87-5.019
	l1.871,5.193c0,0,2.286-2.023,2.493-1.76c0.208,0.264,4.572,8.099,4.572,8.099l1.869-2.905c0,0,2.703,4.754,2.703,4.932
	c0,0.175,3.116-5.107,2.494-4.932l2.286,2.466l1.662-5.635l2.286,3.962l2.078-2.994l1.248,2.994l2.077-8.628l3.532,9.42
	c0,0,1.871-3.522,2.286-3.257c0.416,0.265,2.493,6.251,2.493,6.251l1.872-2.555l1.038,4.051l1.663-2.466l2.079,5.898l2.078-1.32
	l1.87,1.057l1.662-7.483l2.909,3.522l2.494-12.854l2.493,6.866l2.287-4.137l2.909,7.394l1.662-1.672l2.494,3.257l1.79,12.472
	L177.232,296.438z"/>
<path fill="#8C7877" d="M572.191,297.494c16.81-0.812,8.97-13.029,8.97-13.029l0,0l2.526-3.767l2.006,3.013l1.805-0.121
	c0,0,1.403,3.673,1.403,3.793c0,0.121,1.003-1.685,1.003-1.685l1.806,1.866l1.402-2.107l1.404,1.385l4.413-8.371l2.807,6.865
	l9.226-17.593l5.815,11.451l2.006-2.952l1.403,4.337l2.005-2.831l3.009,4.818l3.009-6.986l1.404,8.371l2.404-2.71l2.608,2.108
	l3.209-8.07l3.811,7.648l3.007-4.036l3.409,4.577l1.404-2.106l1.404,2.648l1.604-2.529l1.203,2.169l1.806-3.433l1.806,3.552
	c0,0,2.205-1.384,2.404-1.203c0.202,0.18,4.413,5.54,4.413,5.54l1.804-1.988c0,0,2.608,3.252,2.608,3.374
	c0,0.12,3.007-3.494,2.406-3.374l2.207,1.688l1.604-3.854l2.206,2.71l2.005-2.048l1.203,2.048l2.006-5.902l3.409,6.443
	c0,0,1.804-2.409,2.206-2.228c0.401,0.182,2.405,4.276,2.405,4.276l1.808-1.747l1,2.771l1.605-1.687l2.007,4.035l2.005-0.903
	l1.805,0.723l1.604-5.118l2.807,2.408l2.407-8.793l2.406,4.697l2.208-2.83l2.807,5.059l1.604-1.144l3.688,3.208v7.263
	L572.191,297.494z"/>
<g>
	<polygon fill="#BEA46F" points="125.015,273.994 122.298,275.722 124.297,283.797 127.124,280.323 	"/>
	<g>
		<g>
			<g>
				<polygon fill="#556056" points="116.031,230.427 116.959,254.292 119.625,255.444 				"/>
				<polygon fill="#BEA46F" points="119.592,255.215 120.759,255.434 116.031,230.427 				"/>
				<polygon fill="#48543E" points="116.031,230.427 114.115,252.134 116.959,254.292 				"/>
				<polygon fill="#48543E" points="114.914,252.739 112.76,265.824 117.34,268.812 116.959,254.117 				"/>
				<polygon fill="#556056" points="121.353,269.548 117.335,268.793 116.959,254.292 118.842,255.092 				"/>
				<polygon fill="#556056" points="117.34,268.626 117.466,275.872 122.298,275.722 121.353,269.548 				"/>
				<polygon fill="#556056" points="117.466,275.872 116.147,285.119 124.297,283.797 122.298,275.722 				"/>
				<polygon fill="#48543E" points="113.054,266.017 111.502,273.26 117.592,276.021 117.34,268.626 				"/>
				<polygon fill="#48543E" points="112.541,273.725 110.471,281.246 116.147,285.119 117.592,276.021 				"/>
				<polygon fill="#556056" points="116.147,285.119 115.05,294.277 126.369,291.992 124.297,283.797 				"/>
				<polygon fill="#48543E" points="111.139,281.621 108.936,289.785 115.05,294.277 116.147,285.119 				"/>
				<polygon fill="#BEA46F" points="126.369,291.992 129.062,288.544 126.94,280.592 124.297,283.797 				"/>
			</g>
			<polygon fill="#BEA46F" points="118.842,255.092 120.354,255.339 123.333,268.615 121.353,269.548 			"/>
		</g>
		<polygon fill="#BEA46F" points="121.353,269.548 122.298,275.722 125.145,273.862 123.29,268.422 		"/>
		<polygon fill="#313C3F" points="114.914,252.739 116.959,254.117 118.842,255.092 120.354,255.339 120.521,256.087 
			119.043,256.248 116.959,255.66 114.785,253.525 		"/>
		<polygon fill="#313C3F" points="113.054,266.017 117.34,268.626 121.353,269.548 123.29,268.422 123.533,269.135 121.503,270.524 
			117.31,270.307 112.933,266.535 		"/>
		<polygon fill="#313C3F" points="112.541,273.725 117.592,275.867 122.298,275.722 125.015,273.994 125.235,274.7 122.534,276.675 
			117.381,277.348 112.404,274.224 		"/>
		<polygon fill="#313C3F" points="111.121,281.688 116.147,285.119 124.297,283.797 126.946,280.603 127.124,281.279 
			124.573,284.885 116.008,286.284 110.983,282.199 		"/>
		<polygon fill="#313C3F" points="129.062,288.544 126.369,291.992 115.05,294.277 108.936,289.785 108.482,291.084 
			114.115,296.504 127.698,294.008 		"/>
	</g>
</g>
<g>
	<polygon fill="#BEA46F" points="152.861,275.891 150.145,277.618 152.144,285.693 154.97,282.22 	"/>
	<g>
		<g>
			<g>
				<polygon fill="#556056" points="143.878,232.323 144.806,256.188 147.472,257.341 				"/>
				<polygon fill="#BEA46F" points="147.439,257.111 148.606,257.33 143.878,232.323 				"/>
				<polygon fill="#48543E" points="143.878,232.323 141.962,254.03 144.806,256.188 				"/>
				<polygon fill="#48543E" points="142.761,254.636 140.607,267.721 145.187,270.708 144.806,256.014 				"/>
				<polygon fill="#556056" points="149.2,271.444 145.182,270.689 144.806,256.188 146.688,256.988 				"/>
				<polygon fill="#556056" points="145.187,270.522 145.312,277.769 150.145,277.618 149.2,271.444 				"/>
				<polygon fill="#556056" points="145.312,277.769 143.994,287.016 152.144,285.693 150.145,277.618 				"/>
				<polygon fill="#48543E" points="140.901,267.913 139.349,275.156 145.438,277.917 145.187,270.522 				"/>
				<polygon fill="#48543E" points="140.388,275.621 138.318,283.143 143.994,287.016 145.438,277.917 				"/>
				<polygon fill="#556056" points="143.994,287.016 142.897,296.174 154.216,293.889 152.144,285.693 				"/>
				<polygon fill="#48543E" points="138.985,283.518 136.783,291.682 142.897,296.174 143.994,287.016 				"/>
				<polygon fill="#BEA46F" points="154.216,293.889 156.909,290.44 154.787,282.488 152.144,285.693 				"/>
			</g>
			<polygon fill="#BEA46F" points="146.688,256.988 148.201,257.235 151.18,270.512 149.2,271.444 			"/>
		</g>
		<polygon fill="#BEA46F" points="149.2,271.444 150.145,277.618 152.991,275.759 151.137,270.318 		"/>
		<polygon fill="#313C3F" points="142.761,254.636 144.806,256.014 146.688,256.988 148.201,257.235 148.368,257.983 
			146.89,258.145 144.806,257.557 142.631,255.422 		"/>
		<polygon fill="#313C3F" points="140.901,267.913 145.187,270.522 149.2,271.444 151.137,270.318 151.379,271.031 149.35,272.421 
			145.156,272.203 140.78,268.432 		"/>
		<polygon fill="#313C3F" points="140.388,275.621 145.438,277.764 150.145,277.618 152.861,275.891 153.082,276.597 
			150.381,278.571 145.228,279.244 140.251,276.12 		"/>
		<polygon fill="#313C3F" points="138.967,283.585 143.994,287.016 152.144,285.693 154.792,282.499 154.97,283.176 
			152.419,286.781 143.854,288.181 138.83,284.096 		"/>
		<polygon fill="#313C3F" points="156.909,290.44 154.216,293.889 142.897,296.174 136.783,291.682 136.329,292.98 141.962,298.4 
			155.544,295.904 		"/>
	</g>
</g>
<g>
	<polygon fill="#BEA46F" points="265.774,305.102 263.879,306.307 265.274,311.938 267.245,309.515 	"/>
	<g>
		<g>
			<g>
				<polygon fill="#556056" points="259.509,274.719 260.157,291.361 262.016,292.165 				"/>
				<polygon fill="#BEA46F" points="261.993,292.004 262.807,292.157 259.509,274.719 				"/>
				<polygon fill="#48543E" points="259.509,274.719 258.173,289.856 260.157,291.361 				"/>
				<polygon fill="#48543E" points="258.73,290.279 257.228,299.404 260.423,301.486 260.157,291.24 				"/>
				<polygon fill="#556056" points="263.221,302.002 260.419,301.475 260.157,291.361 261.469,291.919 				"/>
				<polygon fill="#556056" points="260.423,301.357 260.509,306.41 263.879,306.307 263.221,302.002 				"/>
				<polygon fill="#556056" points="260.509,306.41 259.591,312.86 265.274,311.938 263.879,306.307 				"/>
				<polygon fill="#48543E" points="257.433,299.537 256.351,304.59 260.598,306.516 260.423,301.357 				"/>
				<polygon fill="#48543E" points="257.075,304.914 255.632,310.159 259.591,312.86 260.598,306.516 				"/>
				<polygon fill="#556056" points="259.591,312.86 258.825,319.247 266.719,317.653 265.274,311.938 				"/>
				<polygon fill="#48543E" points="256.097,310.419 254.562,316.114 258.825,319.247 259.591,312.86 				"/>
				<polygon fill="#BEA46F" points="266.719,317.653 268.597,315.248 267.117,309.703 265.274,311.938 				"/>
			</g>
			<polygon fill="#BEA46F" points="261.469,291.919 262.524,292.093 264.602,301.35 263.221,302.002 			"/>
		</g>
		<polygon fill="#BEA46F" points="263.221,302.002 263.879,306.307 265.865,305.01 264.572,301.215 		"/>
		<polygon fill="#313C3F" points="258.73,290.279 260.157,291.24 261.469,291.919 262.524,292.093 262.641,292.612 261.61,292.727 
			260.157,292.315 258.64,290.828 		"/>
		<polygon fill="#313C3F" points="257.433,299.537 260.423,301.357 263.221,302.002 264.572,301.215 264.741,301.712 
			263.325,302.681 260.401,302.529 257.349,299.898 		"/>
		<polygon fill="#313C3F" points="257.075,304.914 260.598,306.407 263.879,306.307 265.774,305.102 265.928,305.593 
			264.044,306.971 260.451,307.44 256.98,305.261 		"/>
		<polygon fill="#313C3F" points="256.084,310.467 259.591,312.86 265.274,311.938 267.121,309.709 267.245,310.182 
			265.466,312.695 259.493,313.672 255.989,310.823 		"/>
		<polygon fill="#313C3F" points="268.597,315.248 266.719,317.653 258.825,319.247 254.562,316.114 254.245,317.02 
			258.173,320.799 267.645,319.059 		"/>
	</g>
</g>
<g>
	<polygon fill="#BEA46F" points="194.52,283.417 191.992,285.025 193.852,292.539 196.482,289.307 	"/>
	<g>
		<g>
			<g>
				<polygon fill="#556056" points="186.161,242.879 187.024,265.085 189.505,266.157 				"/>
				<polygon fill="#BEA46F" points="189.474,265.943 190.56,266.147 186.161,242.879 				"/>
				<polygon fill="#48543E" points="186.161,242.879 184.378,263.077 187.024,265.085 				"/>
				<polygon fill="#48543E" points="185.121,263.641 183.117,275.815 187.379,278.595 187.024,264.922 				"/>
				<polygon fill="#556056" points="191.113,279.28 187.375,278.578 187.024,265.085 188.776,265.829 				"/>
				<polygon fill="#556056" points="187.379,278.423 187.496,285.165 191.992,285.025 191.113,279.28 				"/>
				<polygon fill="#556056" points="187.496,285.165 186.269,293.77 193.852,292.539 191.992,285.025 				"/>
				<polygon fill="#48543E" points="183.391,275.994 181.946,282.734 187.613,285.303 187.379,278.423 				"/>
				<polygon fill="#48543E" points="182.913,283.167 180.987,290.165 186.269,293.77 187.613,285.303 				"/>
				<polygon fill="#556056" points="186.269,293.77 185.248,302.291 195.78,300.164 193.852,292.539 				"/>
				<polygon fill="#48543E" points="181.608,290.514 179.559,298.11 185.248,302.291 186.269,293.77 				"/>
				<polygon fill="#BEA46F" points="195.78,300.164 198.286,296.956 196.311,289.557 193.852,292.539 				"/>
			</g>
			<polygon fill="#BEA46F" points="188.776,265.829 190.183,266.06 192.955,278.412 191.113,279.28 			"/>
		</g>
		<polygon fill="#BEA46F" points="191.113,279.28 191.992,285.025 194.641,283.295 192.915,278.232 		"/>
		<polygon fill="#313C3F" points="185.121,263.641 187.024,264.922 188.776,265.829 190.183,266.06 190.339,266.755 
			188.963,266.905 187.024,266.358 185.001,264.372 		"/>
		<polygon fill="#313C3F" points="183.391,275.994 187.379,278.423 191.113,279.28 192.915,278.232 193.141,278.896 
			191.252,280.188 187.35,279.986 183.278,276.477 		"/>
		<polygon fill="#313C3F" points="182.913,283.167 187.613,285.16 191.992,285.025 194.52,283.417 194.725,284.074 192.211,285.912 
			187.417,286.538 182.786,283.631 		"/>
		<polygon fill="#313C3F" points="181.591,290.577 186.269,293.77 193.852,292.539 196.316,289.566 196.482,290.196 
			194.108,293.551 186.139,294.854 181.464,291.052 		"/>
		<polygon fill="#313C3F" points="198.286,296.956 195.78,300.164 185.248,302.291 179.559,298.11 179.136,299.319 184.378,304.362 
			197.016,302.04 		"/>
	</g>
</g>
<g>
	<polygon fill="#BEA46F" points="256.077,307.092 253.801,308.541 255.477,315.307 257.844,312.396 	"/>
	<g>
		<g>
			<g>
				<polygon fill="#556056" points="248.55,270.588 249.328,290.584 251.562,291.55 				"/>
				<polygon fill="#BEA46F" points="251.534,291.356 252.512,291.541 248.55,270.588 				"/>
				<polygon fill="#48543E" points="248.55,270.588 246.944,288.776 249.328,290.584 				"/>
				<polygon fill="#48543E" points="247.614,289.284 245.809,300.247 249.647,302.75 249.328,290.438 				"/>
				<polygon fill="#556056" points="253.01,303.367 249.643,302.734 249.328,290.584 250.905,291.255 				"/>
				<polygon fill="#556056" points="249.647,302.595 249.752,308.666 253.801,308.541 253.01,303.367 				"/>
				<polygon fill="#556056" points="249.752,308.666 248.648,316.415 255.477,315.307 253.801,308.541 				"/>
				<polygon fill="#48543E" points="246.056,300.408 244.755,306.478 249.858,308.791 249.647,302.595 				"/>
				<polygon fill="#48543E" points="245.626,306.867 243.892,313.169 248.648,316.415 249.858,308.791 				"/>
				<polygon fill="#556056" points="248.648,316.415 247.728,324.089 257.212,322.173 255.477,315.307 				"/>
				<polygon fill="#48543E" points="244.451,313.482 242.605,320.324 247.728,324.089 248.648,316.415 				"/>
				<polygon fill="#BEA46F" points="257.212,322.173 259.469,319.284 257.69,312.62 255.477,315.307 				"/>
			</g>
			<polygon fill="#BEA46F" points="250.905,291.255 252.172,291.462 254.668,302.585 253.01,303.367 			"/>
		</g>
		<polygon fill="#BEA46F" points="253.01,303.367 253.801,308.541 256.186,306.982 254.633,302.423 		"/>
		<polygon fill="#313C3F" points="247.614,289.284 249.328,290.438 250.905,291.255 252.172,291.462 252.313,292.088 
			251.074,292.224 249.328,291.731 247.505,289.942 		"/>
		<polygon fill="#313C3F" points="246.056,300.408 249.647,302.595 253.01,303.367 254.633,302.423 254.835,303.021 
			253.135,304.185 249.621,304.002 245.954,300.842 		"/>
		<polygon fill="#313C3F" points="245.626,306.867 249.858,308.661 253.801,308.541 256.077,307.092 256.262,307.684 
			253.999,309.339 249.681,309.903 245.511,307.284 		"/>
		<polygon fill="#313C3F" points="244.436,313.54 248.648,316.415 255.477,315.307 257.695,312.629 257.844,313.197 
			255.707,316.217 248.531,317.391 244.321,313.968 		"/>
		<polygon fill="#313C3F" points="259.469,319.284 257.212,322.173 247.728,324.089 242.605,320.324 242.225,321.412 
			246.944,325.953 258.325,323.861 		"/>
	</g>
</g>
<polygon fill="#7C6563" points="523.821,285.111 531.255,289.556 535.015,285.89 537.077,289.556 539.14,286.473 541.564,289.556 
	543.506,282.64 546.658,289.965 549.691,286.64 552.48,289.965 555.149,282.056 558.303,290.473 564.2,288.768 569.219,290.473 
	572.009,288.973 578.334,285.744 581.834,283.91 589.579,297.833 524.416,296.682 "/>
<g>
	<polygon fill="#BEA46F" points="33.387,274.885 30.67,276.612 32.67,284.688 35.496,281.214 	"/>
	<g>
		<g>
			<g>
				<polygon fill="#556056" points="24.404,231.317 25.332,255.183 27.998,256.335 				"/>
				<polygon fill="#BEA46F" points="27.965,256.105 29.132,256.324 24.404,231.317 				"/>
				<polygon fill="#48543E" points="24.404,231.317 22.488,253.024 25.332,255.183 				"/>
				<polygon fill="#48543E" points="23.287,253.63 21.133,266.715 25.713,269.702 25.332,255.008 				"/>
				<polygon fill="#556056" points="29.726,270.438 25.708,269.684 25.332,255.183 27.214,255.982 				"/>
				<polygon fill="#556056" points="25.713,269.517 25.838,276.763 30.67,276.612 29.726,270.438 				"/>
				<polygon fill="#556056" points="25.838,276.763 24.52,286.01 32.67,284.688 30.67,276.612 				"/>
				<polygon fill="#48543E" points="21.427,266.907 19.875,274.15 25.964,276.911 25.713,269.517 				"/>
				<polygon fill="#48543E" points="20.914,274.615 18.844,282.137 24.52,286.01 25.964,276.911 				"/>
				<polygon fill="#556056" points="24.52,286.01 23.423,295.168 34.742,292.883 32.67,284.688 				"/>
				<polygon fill="#48543E" points="19.511,282.512 17.309,290.676 23.423,295.168 24.52,286.01 				"/>
				<polygon fill="#BEA46F" points="34.742,292.883 37.435,289.435 35.312,281.482 32.67,284.688 				"/>
			</g>
			<polygon fill="#BEA46F" points="27.214,255.982 28.727,256.229 31.706,269.506 29.726,270.438 			"/>
		</g>
		<polygon fill="#BEA46F" points="29.726,270.438 30.67,276.612 33.517,274.753 31.663,269.312 		"/>
		<polygon fill="#313C3F" points="23.287,253.63 25.332,255.008 27.214,255.982 28.727,256.229 28.894,256.978 27.416,257.139 
			25.332,256.551 23.157,254.416 		"/>
		<polygon fill="#313C3F" points="21.427,266.907 25.713,269.517 29.726,270.438 31.663,269.312 31.905,270.025 29.875,271.415 
			25.682,271.197 21.306,267.426 		"/>
		<polygon fill="#313C3F" points="20.914,274.615 25.964,276.758 30.67,276.612 33.387,274.885 33.607,275.591 30.907,277.565 
			25.753,278.238 20.777,275.114 		"/>
		<polygon fill="#313C3F" points="19.493,282.579 24.52,286.01 32.67,284.688 35.318,281.493 35.496,282.17 32.945,285.775 
			24.38,287.175 19.356,283.09 		"/>
		<polygon fill="#313C3F" points="37.435,289.435 34.742,292.883 23.423,295.168 17.309,290.676 16.854,291.975 22.488,297.395 
			36.07,294.898 		"/>
	</g>
</g>
<g>
	<polygon fill="#BEA46F" points="53.408,272.932 50.691,274.659 52.69,282.734 55.517,279.261 	"/>
	<g>
		<g>
			<g>
				<polygon fill="#556056" points="44.424,229.364 45.353,253.229 48.019,254.382 				"/>
				<polygon fill="#BEA46F" points="47.985,254.152 49.152,254.371 44.424,229.364 				"/>
				<polygon fill="#48543E" points="44.424,229.364 42.508,251.071 45.353,253.229 				"/>
				<polygon fill="#48543E" points="43.307,251.677 41.153,264.762 45.733,267.749 45.353,253.055 				"/>
				<polygon fill="#556056" points="49.746,268.485 45.729,267.73 45.353,253.229 47.235,254.029 				"/>
				<polygon fill="#556056" points="45.733,267.563 45.859,274.81 50.691,274.659 49.746,268.485 				"/>
				<polygon fill="#556056" points="45.859,274.81 44.541,284.057 52.69,282.734 50.691,274.659 				"/>
				<polygon fill="#48543E" points="41.447,264.954 39.895,272.197 45.985,274.958 45.733,267.563 				"/>
				<polygon fill="#48543E" points="40.934,272.662 38.864,280.184 44.541,284.057 45.985,274.958 				"/>
				<polygon fill="#556056" points="44.541,284.057 43.443,293.215 54.762,290.93 52.69,282.734 				"/>
				<polygon fill="#48543E" points="39.532,280.559 37.329,288.723 43.443,293.215 44.541,284.057 				"/>
				<polygon fill="#BEA46F" points="54.762,290.93 57.456,287.481 55.333,279.529 52.69,282.734 				"/>
			</g>
			<polygon fill="#BEA46F" points="47.235,254.029 48.747,254.276 51.726,267.553 49.746,268.485 			"/>
		</g>
		<polygon fill="#BEA46F" points="49.746,268.485 50.691,274.659 53.538,272.8 51.683,267.359 		"/>
		<polygon fill="#313C3F" points="43.307,251.677 45.353,253.055 47.235,254.029 48.747,254.276 48.915,255.024 47.436,255.186 
			45.353,254.598 43.178,252.463 		"/>
		<polygon fill="#313C3F" points="41.447,264.954 45.733,267.563 49.746,268.485 51.683,267.359 51.926,268.072 49.896,269.462 
			45.703,269.244 41.326,265.473 		"/>
		<polygon fill="#313C3F" points="40.934,272.662 45.985,274.805 50.691,274.659 53.408,272.932 53.628,273.638 50.927,275.612 
			45.774,276.285 40.797,273.161 		"/>
		<polygon fill="#313C3F" points="39.514,280.626 44.541,284.057 52.69,282.734 55.339,279.54 55.517,280.217 52.966,283.822 
			44.401,285.222 39.376,281.137 		"/>
		<polygon fill="#313C3F" points="57.456,287.481 54.762,290.93 43.443,293.215 37.329,288.723 36.875,290.021 42.508,295.441 
			56.091,292.945 		"/>
	</g>
</g>
<g>
	<polygon fill="#BEA46F" points="9.992,277.815 7.275,279.543 9.274,287.618 12.101,284.145 	"/>
	<g>
		<g>
			<g>
				<polygon fill="#556056" points="1.008,234.248 1.937,258.113 4.603,259.266 				"/>
				<polygon fill="#BEA46F" points="4.569,259.036 5.736,259.255 1.008,234.248 				"/>
				<polygon fill="#48543E" points="1.008,234.248 0.109,244.438 0.109,256.727 1.937,258.113 				"/>
				<polygon fill="#48543E" points="1.937,257.938 0.109,256.707 0.109,271.192 2.317,272.633 				"/>
				<polygon fill="#556056" points="6.33,273.369 2.312,272.614 1.937,258.113 3.819,258.913 				"/>
				<polygon fill="#556056" points="2.317,272.447 2.443,279.693 7.275,279.543 6.33,273.369 				"/>
				<polygon fill="#556056" points="2.443,279.693 1.125,288.94 9.274,287.618 7.275,279.543 				"/>
				<polygon fill="#48543E" points="2.317,272.447 0.109,271.103 0.109,278.727 2.569,279.842 				"/>
				<polygon fill="#48543E" points="2.569,279.842 0.109,278.724 0.109,288.247 1.125,288.94 				"/>
				<polygon fill="#556056" points="0.027,298.099 0.109,298.082 0.109,297.418 				"/>
				<polygon fill="#556056" points="9.274,287.618 1.125,288.94 0.109,297.418 0.109,298.082 11.346,295.813 				"/>
				<polygon fill="#48543E" points="0.109,288.231 0.109,297.418 1.125,288.94 				"/>
				<polygon fill="#BEA46F" points="11.346,295.813 14.04,292.365 11.917,284.413 9.274,287.618 				"/>
			</g>
			<polygon fill="#BEA46F" points="3.819,258.913 5.331,259.16 8.31,272.437 6.33,273.369 			"/>
		</g>
		<polygon fill="#BEA46F" points="6.33,273.369 7.275,279.543 10.122,277.684 8.267,272.243 		"/>
		<polygon fill="#313C3F" points="5.331,259.16 3.819,258.913 1.937,257.938 0.109,256.707 0.109,257.688 1.937,259.481 
			4.02,260.069 5.499,259.908 		"/>
		<polygon fill="#313C3F" points="-0.109,256.561 -0.238,257.347 0.109,257.688 0.109,256.707 		"/>
		<polygon fill="#313C3F" points="8.267,272.243 6.33,273.369 2.317,272.447 0.109,271.103 0.109,272.251 2.287,274.128 
			6.48,274.346 8.51,272.956 		"/>
		<polygon fill="#313C3F" points="9.992,277.815 7.275,279.543 2.569,279.688 0.109,278.645 0.109,279.757 2.358,281.169 
			7.511,280.496 10.212,278.521 		"/>
		<polygon fill="#313C3F" points="11.923,284.424 9.274,287.618 1.125,288.94 0.109,288.247 0.109,289.394 0.985,290.105 
			9.55,288.706 12.101,285.101 		"/>
		<polygon fill="#313C3F" points="14.04,292.365 11.346,295.813 0.109,298.082 0.109,300.139 12.675,297.829 		"/>
	</g>
</g>
<polygon fill="#DBC5AF" points="37.724,150.982 76,169.606 84.159,204.201 51.667,190.096 50.011,172.606 43.042,164.533 "/>
<path fill="#7C6563" d="M323.04,296.328c0.208-0.265,4.364-16.287,4.779-15.935s2.494,6.339,2.494,6.339l0,0l5.819-12.237
	l2.078,4.402l1.87-0.177c0,0,1.454,5.37,1.454,5.546s1.04-2.464,1.04-2.464l1.87,2.729l1.454-3.081l1.455,2.024l4.572-12.236
	l2.909,10.035l9.559-25.718l6.025,16.739l2.079-4.314l1.453,6.339l2.078-4.138l3.117,7.043l3.117-10.212l1.455,12.236l2.492-3.962
	l2.702,3.082l3.325-11.796l3.948,11.18l3.116-5.899l3.532,6.691l1.455-3.081l1.455,3.873l1.661-3.697l1.247,3.17l1.87-5.019
	l1.871,5.193c0,0,2.285-2.023,2.492-1.76c0.209,0.264,4.572,8.099,4.572,8.099l1.869-2.905c0,0,2.703,4.754,2.703,4.932
	c0,0.175,3.115-5.107,2.493-4.932l2.286,2.466l1.662-5.635l2.285,3.962l2.078-2.994l1.247,2.994l2.077-8.628l3.532,9.42
	c0,0,1.87-3.522,2.286-3.257c0.416,0.265,2.493,6.251,2.493,6.251l1.872-2.555l1.037,4.051l1.663-2.466l2.079,5.898l2.077-1.32
	l1.87,1.057l1.662-7.483l2.908,3.522l2.494-12.854l2.493,6.866l2.287-4.137l2.909,7.394l1.661-1.672l2.493,3.257l2.523,9.882
	L323.04,296.328z"/>
<g>
	<polygon fill="#BEA46F" points="115.942,332.287 101.517,341.467 112.136,384.338 127.14,365.89 	"/>
	<g>
		<g>
			<g>
				<polygon fill="#3B493D" points="68.246,100.968 73.172,227.678 87.329,233.797 				"/>
				<polygon fill="#BEA46F" points="87.154,232.581 93.348,233.743 68.246,100.968 				"/>
				<polygon fill="#2A3521" points="68.246,100.968 58.073,216.218 73.172,227.678 				"/>
				<polygon fill="#2A3521" points="62.313,219.436 50.878,288.914 75.196,304.772 73.172,226.751 				"/>
				<polygon fill="#3B493D" points="96.502,308.677 75.169,304.677 73.172,227.678 83.17,231.927 				"/>
				<polygon fill="#3B493D" points="75.196,303.788 75.864,342.257 101.517,341.467 96.502,308.677 				"/>
				<polygon fill="#3B493D" points="75.864,342.257 68.862,391.356 112.136,384.338 101.517,341.467 				"/>
				<polygon fill="#2A3521" points="52.436,289.93 44.198,328.394 76.531,343.046 75.196,303.788 				"/>
				<polygon fill="#2A3521" points="49.716,330.861 38.726,370.795 68.862,391.356 76.531,343.046 				"/>
				<polygon fill="#3B493D" points="68.862,391.356 63.037,439.983 123.135,427.85 112.136,384.338 				"/>
				<polygon fill="#2A3521" points="42.27,372.785 30.571,416.131 63.037,439.983 68.862,391.356 				"/>
				<polygon fill="#BEA46F" points="123.135,427.85 137.435,409.545 126.165,367.319 112.136,384.338 				"/>
			</g>
			<polygon fill="#BEA46F" points="83.17,231.927 91.196,233.243 107.015,303.73 96.502,308.677 			"/>
		</g>
		<polygon fill="#BEA46F" points="96.502,308.677 101.517,341.467 116.631,331.589 106.785,302.705 		"/>
		<polygon fill="#1E282B" points="62.313,219.436 73.172,226.751 83.17,231.927 91.196,233.243 92.086,237.211 84.237,238.066 
			73.172,234.947 61.626,223.609 		"/>
		<polygon fill="#1E282B" points="52.436,289.93 75.196,303.788 96.502,308.677 106.785,302.705 108.074,306.486 97.296,313.864 
			75.031,312.712 51.793,292.684 		"/>
		<polygon fill="#1E282B" points="49.716,330.861 76.531,342.236 101.517,341.467 115.942,332.287 117.113,336.037 102.771,346.527 
			75.411,350.1 48.987,333.509 		"/>
		<polygon fill="#1E282B" points="42.172,373.146 68.862,391.356 112.136,384.338 126.197,367.378 127.14,370.973 113.596,390.112 
			68.121,397.543 41.441,375.854 		"/>
		<polygon opacity="0.8" fill="#1E282B" points="137.435,409.545 123.135,427.85 63.037,439.983 30.571,416.131 28.161,423.029 
			58.073,451.802 120.669,439.147 		"/>
	</g>
</g>
<path fill="#91B7D1" d="M232.345,323.642C236,324,432.384,412.914,432.384,412.914l287.175,17.008l-0.245,71.882L394,429.922
	l-149.196-92.485L232.345,323.642z"/>
<g>
	<g>
		<path fill="#29181A" d="M17.624,476.488l7.303,27.449h3.485C28.412,503.938,27.25,475.825,17.624,476.488z"/>
	</g>
	<path fill="#38222A" d="M24.912,503.989h-3.755c0,0-12.078-22.729-3.578-27.563L24.912,503.989z"/>
</g>
<path fill="#29181A" d="M19.121,504.034c0,0-14.709-15.639-10.333-12.702c5.714,3.834,12.333,12.702,12.333,12.702H19.121z"/>
<g>
	<g>
		<path fill="#233737" d="M704.313,430.565c1.093,0.546,2.186,1.093,3.278,1.64c-6.011,0-12.567-2.187-18.578,0
			c-8.196,2.731-3.824,6.557-7.104,9.835c-4.371,3.825-32.237-1.093-11.475,8.742c-8.195,1.64-43.166,2.732-27.866,15.3
			c-12.021,3.824-27.32,1.639-38.795,8.196c1.093,2.731,0.546,3.824,3.825,4.917c-4.918,0-43.166,0-26.228,9.836
			c-7.65,1.639-24.042-1.64-29.506,5.464c-7.104,8.196,3.763,8.813,10.319,9.36c0,0,74.685,0,111.841,0c10.29,0,26.98,0,45.974,0
			v-75.1C715.713,427.338,710.945,426.566,704.313,430.565z"/>
	</g>
	<g>
		<path fill="#1E282B" d="M707.824,472.078c-8.377,2.012-17.484-0.401-25.862-1.608c-2.915-0.401-12.021-3.217-14.571,0
			c-2.55,3.62,3.278,8.045-1.457,11.665c-4.371,3.62-18.214,0.401-24.042,1.608c-6.557,0.805-17.702,3.231-21.856,8.847
			c-9.335,12.621,36.427,11.262,43.349,11.262c8.945,0,30.943,0,56.616,0v-38.776C716.691,468.415,711.979,471.021,707.824,472.078z
			"/>
	</g>
	<g>
		<path fill="#38222A" d="M663.373,469.661c-1.96-2.811-7.572-9.202-7.572-9.202s18.915,14.062,21.422,43.489h-1.773
			C675.74,498.759,674.907,486.206,663.373,469.661z"/>
		<g>
			<g>
				<path fill="#29181A" d="M656.857,480.943l14.652,23.005h-5.975C659.664,496.967,651.771,485.762,656.857,480.943z"/>
			</g>
			<path fill="#38222A" d="M656.84,480.861c9.706-3.11,18.65,20.859,19.458,23.087h-4.752L656.84,480.861z"/>
		</g>
		<g>
			<g>
				<path fill="#29181A" d="M691.674,487.698c3.601,3.411-2.201,11.451-6.286,16.25h-4.064L691.674,487.698z"/>
			</g>
			<path fill="#38222A" d="M678.178,503.741c0,0,6.467-18.355,13.509-16.1l-10.388,16.307h-2.932L678.178,503.741z"/>
		</g>
		<path fill="#29181A" d="M702.201,490.553c4.302-2.887-8.268,10.647-10.837,13.396h-2.271
			C690.633,501.95,696.785,494.187,702.201,490.553z"/>
	</g>
</g>
<g>
	<path fill="#29181A" d="M32.753,432.758l-0.413-0.314C32.438,432.642,32.579,432.742,32.753,432.758z"/>
</g>
<g>
	<g>
		<g>
			<g>
				<polygon fill="#3B493D" points="294.112,336.623 298.419,447.387 310.792,452.734 				"/>
				<polygon fill="#BEA46F" points="310.64,451.672 316.055,452.688 294.112,336.623 				"/>
				<polygon fill="#2A3521" points="294.112,336.623 285.22,437.369 298.419,447.387 				"/>
				<polygon fill="#2A3521" points="298.419,446.575 288.926,440.182 278.931,500.915 283.66,503.999 299.907,503.999 				"/>
				<polygon fill="#3B493D" points="307.159,451.101 298.419,447.387 299.887,503.999 316.347,503.999 				"/>
				<polygon fill="#2A3521" points="280.292,501.804 279.822,503.999 283.896,503.999 				"/>
			</g>
			<polygon fill="#BEA46F" points="314.174,452.25 307.159,451.101 316.347,503.999 325.788,503.999 			"/>
		</g>
		<polygon fill="#1E282B" points="288.926,440.182 298.419,446.575 307.159,451.101 314.174,452.25 314.952,455.72 308.091,456.467 
			298.419,453.74 288.326,443.83 		"/>
		<polygon fill="#1E282B" points="280.292,501.804 279.78,503.999 283.896,503.999 		"/>
	</g>
</g>
<polygon fill="#DBC5AF" points="302,172.606 367.739,205.938 326.954,225.302 310.861,214.724 310.861,204.201 304.321,201.753 
	308,193 300.333,186.5 304.321,181 "/>
<polygon fill="#DBC5AF" points="143,131.606 252.839,191.667 227.711,222.405 227.711,235.654 211.204,230.209 198.139,225.302 
	186.047,197 167.062,176.5 159.921,154.498 "/>
<ellipse transform="matrix(0.9896 0.144 -0.144 0.9896 71.5458 -68.6637)" opacity="0.8" fill="#7FA6BA" cx="510.027" cy="459.829" rx="7.814" ry="2.891"/>
<ellipse transform="matrix(0.9896 0.144 -0.144 0.9896 69.6736 -70.6456)" opacity="0.8" fill="#7FA6BA" cx="522.78" cy="445.907" rx="5.245" ry="1.445"/>
<ellipse transform="matrix(0.9896 0.144 -0.144 0.9896 70.5902 -66.5712)" opacity="0.8" fill="#7FA6BA" cx="495.096" cy="454.275" rx="5.245" ry="1.445"/>
<g>
	<polygon fill="#BEA46F" points="253.178,339.529 241.637,346.874 250.133,381.174 262.137,366.414 	"/>
	<g>
		<g>
			<g>
				<polygon fill="#3B493D" points="215.018,154.461 218.96,255.837 230.285,260.731 				"/>
				<polygon fill="#BEA46F" points="230.146,259.759 235.101,260.689 215.018,154.461 				"/>
				<polygon fill="#2A3521" points="215.018,154.461 206.879,246.668 218.96,255.837 				"/>
				<polygon fill="#2A3521" points="210.271,249.242 201.124,304.829 220.579,317.517 218.96,255.095 				"/>
				<polygon fill="#3B493D" points="237.625,320.641 220.558,317.439 218.96,255.837 226.959,259.235 				"/>
				<polygon fill="#3B493D" points="220.579,316.729 221.113,347.506 241.637,346.874 237.625,320.641 				"/>
				<polygon fill="#3B493D" points="221.113,347.506 215.511,386.789 250.133,381.174 241.637,346.874 				"/>
				<polygon fill="#2A3521" points="202.37,305.642 195.778,336.415 221.646,348.138 220.579,316.729 				"/>
				<polygon fill="#2A3521" points="200.193,338.39 191.4,370.339 215.511,386.789 221.646,348.138 				"/>
				<polygon fill="#3B493D" points="215.511,386.789 210.851,425.693 258.933,415.985 250.133,381.174 				"/>
				<polygon fill="#2A3521" points="194.236,371.932 184.876,406.609 210.851,425.693 215.511,386.789 				"/>
				<polygon fill="#BEA46F" points="258.933,415.985 270.374,401.341 261.356,367.558 250.133,381.174 				"/>
			</g>
			<polygon fill="#BEA46F" points="226.959,259.235 233.379,260.288 246.036,316.683 237.625,320.641 			"/>
		</g>
		<polygon fill="#BEA46F" points="237.625,320.641 241.637,346.874 253.729,338.971 245.852,315.862 		"/>
		<polygon fill="#1E282B" points="210.271,249.242 218.96,255.095 226.959,259.235 233.379,260.288 234.092,263.463 
			227.812,264.147 218.96,261.651 209.722,252.581 		"/>
		<polygon fill="#1E282B" points="202.37,305.642 220.579,316.729 237.625,320.641 245.852,315.862 246.883,318.888 238.26,324.79 
			220.446,323.868 201.855,307.845 		"/>
		<polygon fill="#1E282B" points="200.193,338.39 221.646,347.489 241.637,346.874 253.178,339.529 254.115,342.53 242.64,350.923 
			220.751,353.78 199.61,340.507 		"/>
		<polygon fill="#1E282B" points="194.158,372.22 215.511,386.789 250.133,381.174 261.383,367.604 262.137,370.48 251.301,385.793 
			214.918,391.738 193.573,374.385 		"/>
		<polygon opacity="0.8" fill="#1E282B" points="270.374,401.341 258.933,415.985 210.851,425.693 184.876,406.609 182.948,412.129 
			208.772,433.317 257.121,423.313 		"/>
	</g>
</g>
<ellipse opacity="0.7" fill="#719AAA" cx="613.736" cy="458.566" rx="7.454" ry="1.652"/>
<ellipse transform="matrix(0.9998 -0.0175 0.0175 0.9998 -7.9713 9.7705)" opacity="0.7" fill="#719AAA" cx="554.178" cy="460.267" rx="34.48" ry="7.39"/>
<g>
	<path fill="#664534" d="M523.097,452.271c-2.305,2.15-0.938,3.562,0.438,4.5s21.307,2.742,21.307,2.742l43.881-1.367
		c0,0-20.967-26.817-23.467-26.4s-10.5,7.25-10.5,7.25l-13.5,4.5l-11.166,6.709C530.089,450.204,525.401,450.12,523.097,452.271z"/>
	<path fill="#7E5643" d="M588.722,458.146c0.133-0.787-12.395-15.805-14.306-17.895s-8.105-8.883-9.161-8.506
		c-1.055,0.377,1.5,7.583,1.5,7.583l-8.166,8.667l-10.25,2.75c0,0-11.413,7.632-8.858,8.251c2.886,0.699,15.287,1.473,24.366,1.392
		C578.607,460.257,588.589,458.933,588.722,458.146z"/>
	<path fill="#91725B" d="M586.089,458.495c-1.231-1.491-13-15.75-13-15.75s-1.167-0.667-1.334,0.583
		c-0.166,1.25-2.832,5.833-2.832,5.833l-5,3.084c0,0-6.503,2.829-7.584,6.25C554.909,463.021,587.32,459.986,586.089,458.495z"/>
</g>
<g>
	<ellipse opacity="0.7" fill="#719AAA" cx="601.756" cy="458.592" rx="10.278" ry="3.304"/>
	<g>
		<path fill="#7E5643" d="M592.853,457.411c2.814,1.369,19.32,1.549,19.181,0.327s0.486-2.66-3.681-4.827s-7.333-5.18-8-6.09
			S587.539,454.827,592.853,457.411z"/>
		<path fill="#91725B" d="M610.913,458.429c0,0-2.282-2.779-4.325-3.493c-2.042-0.713-4.205-3.597-5.887-2.996
			s-2.892,5.839-1.562,6.491S610.913,458.429,610.913,458.429z"/>
	</g>
</g>
<polygon opacity="0.2" fill="#C1DBE8" points="265.466,317.245 719.934,317.245 720,355.822 346,334.994 "/>
<g>
	<polygon fill="#BEA46F" points="226.661,482.35 214.361,445.439 198.517,455.522 208.229,494.735 216.587,494.735 	"/>
	<g>
		<g>
			<g>
				<polygon fill="#3B493D" points="161.971,191.359 167.383,330.538 182.931,337.258 				"/>
				<polygon fill="#BEA46F" points="182.74,335.923 189.543,337.2 161.971,191.359 				"/>
				<polygon fill="#2A3521" points="161.971,191.359 150.798,317.95 167.383,330.538 				"/>
				<polygon fill="#2A3521" points="155.455,321.484 142.896,397.799 169.605,415.218 167.383,329.519 				"/>
				<polygon fill="#3B493D" points="193.008,419.507 169.577,415.112 167.383,330.538 178.365,335.204 				"/>
				<polygon fill="#3B493D" points="169.605,414.138 170.339,456.39 198.517,455.522 193.008,419.507 				"/>
				<polygon fill="#3B493D" points="198.517,455.522 170.339,456.39 164.871,494.735 208.229,494.735 				"/>
				<polygon fill="#2A3521" points="144.606,398.916 135.557,441.163 171.072,457.259 169.605,414.138 				"/>
				<polygon fill="#2A3521" points="171.072,457.259 141.619,443.874 129.546,487.737 139.803,494.735 165.122,494.735 				"/>
				<polygon fill="#2A3521" points="133.439,489.924 132.141,494.735 140.329,494.735 				"/>
				<polygon fill="#BEA46F" points="225.589,483.919 216.674,494.735 228.477,494.735 				"/>
			</g>
			<polygon fill="#BEA46F" points="178.365,335.204 187.18,336.649 204.556,414.072 193.008,419.507 			"/>
		</g>
		<polygon fill="#BEA46F" points="193.008,419.507 198.517,455.522 215.117,444.673 204.303,412.947 		"/>
		<polygon fill="#1E282B" points="155.455,321.484 167.383,329.519 178.365,335.204 187.18,336.649 188.158,341.009 
			179.536,341.947 167.383,338.521 154.701,326.068 		"/>
		<polygon fill="#1E282B" points="144.606,398.916 169.605,414.138 193.008,419.507 204.303,412.947 205.719,417.1 193.88,425.204 
			169.424,423.938 143.901,401.939 		"/>
		<polygon fill="#1E282B" points="141.619,443.874 171.072,456.367 198.517,455.522 214.361,445.439 215.648,449.56 
			199.894,461.081 169.842,465.005 140.818,446.78 		"/>
		<polygon fill="#1E282B" points="133.332,490.319 132.529,493.292 134.305,494.735 139.805,494.735 		"/>
		<polygon fill="#1E282B" points="226.661,487.932 225.626,483.983 216.711,494.735 221.846,494.735 		"/>
	</g>
</g>
<g>
	<path fill="#233737" d="M0,419.662v84.337c1,0,119.761,0,155.261,0c34,0,102.342,0,102.342,0c6-0.5,15.943-1.065,9.443-8.565
		c-5-6.5-20-3.5-27-5c15.5-9-19.5-9-24-9c3-1,2.5-2,3.5-4.5c-10.5-6-24.5-4-35.5-7.5c14-11.5-18-12.5-25.5-14c19-9-6.5-4.5-10.5-8
		c-3-3,1-6.5-6.5-9c-5.5-2-11.5,0-17,0c1-0.5,2-1,3-1.5c-11.63-7.012-17,2-25,0.5c-0.5-5.5,4.5-10,5.5-15.5c-6.5,2.5-9,14-15.5,13.5
		c-3.5-0.5-5.213-7.683-6.5,0c-0.421,2.515,0.5,4.5,1.5,6.5c-5.5-4-5.5-9-11.5-12.5c-4.5-3-13-4-2.5-8.5c-2-1-5,0-7.5,2
		c1.5-2.5,2.5-5,3.5-7.5c-4,1-8,3.5-8.5,8c-2.5-3.5-6-8.5-10.5-8c2.884,2.067,2.5,5,3.5,7c-4-5-12-3.5-17-7c1-0.5,2-1.5,3-2
		c-2,1-3.5,0.5-6,1c1.5-1,3.5-3,5-4c-7.5-2-31.5,3-35.5,10L0,419.662z"/>
</g>
<g>
	<path fill="#1E282B" d="M0,446.215c7,0.736,16-4.784,23-6.624c8-2.208,14-2.576,22,1.104c14.333,7.729,23.333,19.139,40.333,18.402
		c5.667-0.368,17.333-5.889,22-1.841c2.333,1.841,2.333,6.993,4.667,9.937c3,3.682,8,6.625,12.333,7.729
		c7.667,1.841,16-0.367,23.667-1.472c2.667-0.367,11-2.944,13.333,0c2.333,3.312-3,7.361,1.333,10.674
		c4,3.312,16.667,0.367,22,1.472c6,0.736,16.199,2.957,20,8.096c8.542,11.549-33.333,10.305-39.667,10.305c-25.333,0-165,0-165,0
		V446.215"/>
</g>
<g>
	<path fill="#38222A" d="M34.953,503.995c0,0,41.328-40.182,75.754-30.465l-41.504,16.75L34.953,503.995z"/>
	<path fill="#29181A" d="M34.953,503.995l75.754-30.465c0,0-1.753,10.001-34.253,21.167S34.953,503.995,34.953,503.995z"/>
</g>
<path fill="#38222A" d="M62.62,438.03c0,0-28.672,21.306-30.909,65.965h3.242c0,0-5.078-21.37,16.834-52.798
	C54.59,447.176,62.62,438.03,62.62,438.03z"/>
<path fill="#38222A" d="M177.592,438.03c0,0-28.672,21.306-30.909,65.965h3.242c0,0-5.078-21.37,16.834-52.798
	C169.563,447.176,177.592,438.03,177.592,438.03z"/>
<path fill="#29181A" d="M127.11,447.48c0,0,24.526,18.225,26.438,56.425h-2.773c0,0,4.343-18.279-14.399-45.162
	C133.978,455.304,127.11,447.48,127.11,447.48z"/>
<path fill="#29181A" d="M4.834,447.48c0,0,24.526,18.225,26.438,56.425H28.5c0,0,4.343-18.279-14.399-45.162
	C11.703,455.304,4.834,447.48,4.834,447.48z"/>
<path fill="#38222A" d="M165.01,472.709c1.793-2.572,6.929-8.421,6.929-8.421s-17.308,12.867-19.602,39.796h1.623
	C153.693,499.335,154.455,487.849,165.01,472.709z"/>
<path fill="#29181A" d="M131.713,472.426c-1.793-2.572-6.929-8.421-6.929-8.421s17.308,12.867,19.602,39.796h-1.623
	C143.03,499.052,142.268,487.565,131.713,472.426z"/>
<path fill="#29181A" d="M9.879,472.506c-1.793-2.572-6.929-8.421-6.929-8.421s17.308,12.867,19.602,39.796h-1.623
	C21.196,499.132,20.434,487.646,9.879,472.506z"/>
<path fill="#38222A" d="M683.815,447.48c0,0,24.525,18.225,26.438,56.425h-2.772c0,0,4.343-18.279-14.4-45.162
	C690.684,455.304,683.815,447.48,683.815,447.48z"/>
<path fill="#29181A" d="M688.86,472.506c-1.794-2.572-6.93-8.421-6.93-8.421s17.309,12.867,19.603,39.796h-1.623
	C700.177,499.132,699.415,487.646,688.86,472.506z"/>
<g>
	<g>
		<path fill="#29181A" d="M170.972,483.033l-13.408,21.051h5.467C168.404,497.695,175.626,487.442,170.972,483.033z"/>
	</g>
	<path fill="#38222A" d="M170.988,482.958c-8.881-2.847-17.066,19.088-17.805,21.126h4.349L170.988,482.958z"/>
</g>
<g>
	<g>
		<path fill="#29181A" d="M139.113,489.214c-3.295,3.122,2.014,10.479,5.752,14.87h3.719L139.113,489.214z"/>
	</g>
	<path fill="#38222A" d="M151.463,503.895c0,0-5.917-16.797-12.361-14.732l9.504,14.922h2.682L151.463,503.895z"/>
</g>
<path fill="#29181A" d="M129.479,491.826c-3.937-2.642,7.566,9.743,9.917,12.258h2.077
	C140.065,502.256,134.436,495.151,129.479,491.826z"/>
<g>
	<path fill="#38222A" d="M29.881,472.441c1.793-2.572,6.929-8.421,6.929-8.421s-17.308,12.867-19.602,39.796h1.623
		C18.564,499.067,19.326,487.581,29.881,472.441z"/>
	<g>
		<g>
			<path fill="#29181A" d="M35.843,482.766l-13.408,21.051h5.467C33.275,497.428,40.497,487.175,35.843,482.766z"/>
		</g>
		<path fill="#38222A" d="M35.859,482.69c-8.881-2.847-17.066,19.088-17.805,21.126h4.349L35.859,482.69z"/>
	</g>
	<g>
		<g>
			<path fill="#29181A" d="M3.984,488.946c-3.295,3.122,2.014,10.479,5.752,14.87h3.719L3.984,488.946z"/>
		</g>
		<path fill="#38222A" d="M16.334,503.627c0,0-5.917-16.797-12.361-14.732l9.504,14.922h2.682L16.334,503.627z"/>
	</g>
</g>
<path opacity="0.2" fill="#EADCD3" d="M719.5,382.033v-6.682l-39.795-2.968l39.795-5.837v-4.309l-53.565-4.854c0,0,38.44-6,36.719-6
	c-1.721,0-41.309-7-41.309-7l25.245-6.5l-21.229-7.5l44.178-6.5l-9.18-5l0.939-1.639l-15.857,0.139l8.606,4.5l-91.225,7l28.113,5.5
	h-64.259l-17.786,4.5l20.081,5l-119.912,3.5l98.646,8.632c0,0-80.946,4.777-79.226,8.229c1.805,3.616,59.94,10.104,49.918,8.474
	c0,0,37.381,4.3,18.785,5.868c-37.623,3.172-116.42-1.454-111.091,1.578c7.964,4.531,107.669,8.888,107.669,8.888
	s-56.104,11.784-47.495,11.794c8.609,0.01,65.406,3.234,65.406,3.234l-29.229,9.317l90.371,6.475l100.422-5.131L680.19,404.08
	l39.31-2.786v-9.03l-56.521-10.23H719.5z"/>
<g>
	<g>
		<path fill="#38222A" d="M35.007,503.989l32.203-47.298c0,0-6.167-1.167-12.667,5.833S35.673,493.155,35.007,503.989z"/>
		<path fill="#29181A" d="M34.953,503.952c0,0,14.096-12.448,21.37-21.965c7.666-10.029,11.666-13.833,10.833-25.333L34.953,503.952
			z"/>
	</g>
	<path fill="#29181A" d="M32.953,438.03c0,0,0.965,63.087-4.036,66.004l3.167-0.039c0,0,4.369-55.139,1.369-73.677
		S32.953,438.03,32.953,438.03z"/>
	<g>
		<path fill="#29181A" d="M29.872,417.531c-1.011-1.882-1.752-5.167-3.841-5.68c-1.431,2.93,1.646,6.589,2.79,9.462
			c-1.535-2.032-2.868-3.449-3.937-3c-0.765,4.049,1.948,5.38,4.109,8.022c-1.373-0.824-2.497-1.682-4.051-1.977
			c0.233,3.445,4.729,6.947,7.318,8.223c-0.713-5.759-1.673-11.487-2.727-17.15C29.566,416.131,29.689,416.843,29.872,417.531z"/>
	</g>
	<g>
		<path fill="#38222A" d="M36.95,421.73c-0.891,0.877-1.882,1.011-2.177,2.564c0.194-2.297,1.561-5.256,0.765-7.419
			c-1.205,0.415-2.062,1.539-2.357,3.093c-0.863-2.658-0.555-5.979-2.59-7.976c-0.854,0.931-1.114,2.16-1.056,3.438
			c1.054,5.663,2.014,11.392,2.727,17.15c0.229,0.112,0.448,0.214,0.642,0.29l-0.15-0.114c-0.174-0.016-0.315-0.116-0.413-0.314
			l0.413,0.314C34.444,432.913,39.231,425.082,36.95,421.73z"/>
	</g>
	<g>
		<path fill="#29181A" d="M711.291,436.189c0,0,0.555,64.842-4.446,67.759h3.28c0,0,4.666-56.933,1.666-75.471
			S711.291,436.189,711.291,436.189z"/>
		<g>
			<path fill="#29181A" d="M708.209,415.69c-1.01-1.882-1.752-5.167-3.84-5.68c-1.432,2.93,1.645,6.589,2.789,9.462
				c-1.535-2.032-2.867-3.449-3.936-3c-0.766,4.049,1.947,5.38,4.109,8.022c-1.373-0.824-2.498-1.682-4.051-1.977
				c0.232,3.445,4.729,6.947,7.317,8.223c-0.713-5.759-1.673-11.487-2.727-17.15C707.904,414.29,708.027,415.002,708.209,415.69z"/>
		</g>
		<g>
			<path fill="#38222A" d="M715.287,419.89c-0.891,0.877-1.881,1.011-2.176,2.564c0.193-2.297,1.561-5.256,0.764-7.419
				c-1.205,0.415-2.062,1.539-2.357,3.093c-0.863-2.658-0.555-5.979-2.59-7.976c-0.854,0.931-1.113,2.16-1.056,3.438
				c1.054,5.663,2.014,11.392,2.727,17.15c0.229,0.112,0.448,0.214,0.642,0.29l-0.149-0.114c-0.174-0.016-0.315-0.116-0.413-0.314
				l0.413,0.314C712.782,431.072,717.569,423.241,715.287,419.89z"/>
		</g>
	</g>
</g>
<g>
	<g opacity="0.6">
		<path fill="#434F44" d="M713.916,310.25c-1-3-9-9.75-9.75-3.25c-1.75-3-7.5-4-8,0.25c-0.904-0.807-0.64-3.167-4.14-3.917
			c-4.5-1-5.86-0.583-7.61,2.917c-2-3-1.75-3-3.75-1.25c-2.75,2.5,0,3.25-4.5,2.25c-6.75-1.75-7.75-2.75-13.25,3
			c-0.857-3.556-10-11.164-10-3c-1-2.75-5-3.75-4-0.5c-1.25-1.75-5-2.75-5.5-0.25c-1-1.25-6.499-1.5-8.749-1
			c-1.5,0.5-3.001,2.5-4.001,2.75c-1.75,0.25-2.75-2-4.25,0.5c-1.5-1.5-2.75-0.5-3,1.25c-2-1-1.75,0.5-3.25,0.75
			c-0.25,0.25-1.75,0.75-2.5,1c-2.5,1-4.25,0.25-5.5,3.25c-2-3-5.25,1-2,2.25c1.378,0.459,94.624,0.071,109.835,0.005v-8.572
			C718.185,306.36,715.406,305.929,713.916,310.25z"/>
	</g>
	<g opacity="0.6">
		<path fill="#434F44" d="M599.068,310.25c-1-3-9-9.75-9.75-3.25c-1.75-3-7.5-4-8,0.25c-0.904-0.807-0.64-3.167-4.14-3.917
			c-4.5-1-5.86-0.583-7.61,2.917c-2-3-1.75-3-3.75-1.25c-2.75,2.5,0,3.25-4.5,2.25c-6.75-1.75-7.75-2.75-13.25,3
			c-0.857-3.556-10-11.164-10-3c-1-2.75-5-3.75-4-0.5c-1.25-1.75-5-2.75-5.5-0.25c-1-1.25-6.499-1.5-8.749-1
			c-1.5,0.5-3.001,2.5-4.001,2.75c-1.75,0.25-2.75-2-4.25,0.5c-1.5-1.5-2.75-0.5-3,1.25c-2-1-1.75,0.5-3.25,0.75
			c-0.25,0.25-1.75,0.75-2.5,1c-2.5,1-4.25,0.25-5.5,3.25c-2-3-5.25,1-2,2.25c1.378,0.459,98.257,0.062,113.468-0.005
			c0,0,0.849-1.9,0.503-2.803C607.041,308.575,600.559,305.929,599.068,310.25z"/>
	</g>
</g>
<g opacity="0.3">
	<g opacity="0.6">
		<path fill="#3B493D" d="M713.229,320.229c-1,1.931-9,6.275-9.75,2.092c-1.75,1.932-7.5,2.575-8-0.161
			c-0.904,0.521-0.64,2.037-4.14,2.522c-4.5,0.642-5.86,0.374-7.61-1.879c-2,1.932-1.75,1.932-3.75,0.804
			c-2.75-1.608,0-2.091-4.5-1.447c-6.75,1.128-7.75,1.77-13.25-1.931c-0.857,2.288-10,7.187-10,1.931c-1,1.77-5,2.414-4,0.321
			c-1.25,1.126-5,1.771-5.5,0.161c-1,0.805-6.499,0.965-8.749,0.646c-1.5-0.323-3.001-1.61-4.001-1.771
			c-1.75-0.16-2.75,1.287-4.25-0.321c-1.5,0.965-2.75,0.321-3-0.804c-2,0.641-1.75-0.322-3.25-0.485
			c-0.25-0.159-1.75-0.482-2.5-0.642c-2.5-0.646-4.25-0.162-5.5-2.092c-2,1.93-5.25-0.645-2-1.45
			c1.378-0.294,94.624-0.044,109.835-0.002v5.518C717.497,322.733,714.719,323.011,713.229,320.229z"/>
	</g>
	<g opacity="0.6">
		<path fill="#3B493D" d="M598.381,320.229c-1,1.931-9,6.275-9.75,2.092c-1.75,1.932-7.5,2.575-8-0.161
			c-0.904,0.521-0.64,2.037-4.14,2.522c-4.5,0.642-5.86,0.374-7.61-1.879c-2,1.932-1.75,1.932-3.75,0.804
			c-2.75-1.608,0-2.091-4.5-1.447c-6.75,1.128-7.75,1.77-13.25-1.931c-0.857,2.288-10,7.187-10,1.931c-1,1.77-5,2.414-4,0.321
			c-1.25,1.126-5,1.771-5.5,0.161c-1,0.805-6.499,0.965-8.749,0.646c-1.5-0.323-3.001-1.61-4.001-1.771
			c-1.75-0.16-2.75,1.287-4.25-0.321c-1.5,0.965-2.75,0.321-3-0.804c-2,0.641-1.75-0.322-3.25-0.485
			c-0.25-0.159-1.75-0.482-2.5-0.642c-2.5-0.646-4.25-0.162-5.5-2.092c-2,1.93-5.25-0.645-2-1.45
			c1.378-0.294,98.257-0.039,113.468,0.005c0,0,0.849,1.223,0.503,1.805C606.354,321.308,599.871,323.011,598.381,320.229z"/>
	</g>
</g>
<g>
	<polygon fill="#38222A" points="596.601,335.65 602.395,341.443 634.259,341.443 634.259,338.546 	"/>
	
		<rect x="611.265" y="331.845" transform="matrix(0.9947 0.1032 -0.1032 0.9947 37.8757 -61.3817)" fill="#38222A" width="1.268" height="6.701"/>
	<path fill="#F2EBE2" d="M618.688,254.721l-7.767,77.077l16.818,0.954C627.739,332.752,633.896,269.748,618.688,254.721z"/>
</g>
</svg>
