<?xml version="1.0" encoding="utf-8"?>
<!-- Generator: Adobe Illustrator 16.0.0, SVG Export Plug-In . SVG Version: 6.00 Build 0)  -->
<!DOCTYPE svg PUBLIC "-//W3C//DTD SVG 1.1//EN" "http://www.w3.org/Graphics/SVG/1.1/DTD/svg11.dtd">
<svg version="1.1" id="Layer_1" xmlns="http://www.w3.org/2000/svg" xmlns:xlink="http://www.w3.org/1999/xlink" x="0px" y="0px"
	 width="2850px" height="2005.158px" viewBox="0 0 2850 2005.158" enable-background="new 0 0 2850 2005.158" xml:space="preserve">
<g>
	<defs>
		<rect id="SVGID_1_" width="2850" height="2005.158"/>
	</defs>
	<clipPath id="SVGID_2_">
		<use xlink:href="#SVGID_1_"  overflow="visible"/>
	</clipPath>
	<linearGradient id="SVGID_3_" gradientUnits="userSpaceOnUse" x1="1424.9995" y1="-25.1191" x2="1424.9995" y2="1194.7983">
		<stop  offset="0" style="stop-color:#2F3A80"/>
		<stop  offset="1" style="stop-color:#4E82CC"/>
	</linearGradient>
	<rect clip-path="url(#SVGID_2_)" fill="url(#SVGID_3_)" width="2850" height="2005.158"/>
	<g opacity="0.5" clip-path="url(#SVGID_2_)">
		
			<line opacity="0.42" fill="none" stroke="#FFFFFF" stroke-width="0.5749" stroke-linecap="round" stroke-miterlimit="10" x1="613.737" y1="117.72" x2="721.268" y2="117.72"/>
		
			<line opacity="0.42" fill="none" stroke="#FFFFFF" stroke-width="0.5749" stroke-linecap="round" stroke-miterlimit="10" x1="865.229" y1="117.72" x2="1272.472" y2="117.72"/>
		
			<line opacity="0.42" fill="none" stroke="#FFFFFF" stroke-width="0.5749" stroke-linecap="round" stroke-miterlimit="10" x1="1457.413" y1="117.72" x2="1600.92" y2="117.72"/>
		
			<line opacity="0.42" fill="none" stroke="#FFFFFF" stroke-width="0.5749" stroke-linecap="round" stroke-miterlimit="10" x1="2332.85" y1="117.72" x2="2489.486" y2="117.72"/>
		
			<line opacity="0.42" fill="none" stroke="#FFFFFF" stroke-width="0.5749" stroke-linecap="round" stroke-miterlimit="10" x1="2591.217" y1="117.72" x2="2640.191" y2="117.72"/>
		
			<line opacity="0.42" fill="none" stroke="#FFFFFF" stroke-width="0.5749" stroke-linecap="round" stroke-miterlimit="10" x1="149.863" y1="117.72" x2="198.837" y2="117.72"/>
		
			<line opacity="0.42" fill="none" stroke="#FFFFFF" stroke-width="0.5749" stroke-linecap="round" stroke-miterlimit="10" x1="310.05" y1="117.72" x2="485.974" y2="117.72"/>
		
			<line opacity="0.42" fill="none" stroke="#FFFFFF" stroke-width="0.5749" stroke-linecap="round" stroke-miterlimit="10" x1="919.007" y1="189.788" x2="956.632" y2="189.788"/>
		
			<line opacity="0.42" fill="none" stroke="#FFFFFF" stroke-width="0.5749" stroke-linecap="round" stroke-miterlimit="10" x1="1258.622" y1="189.788" x2="1365.2" y2="189.788"/>
		
			<line opacity="0.42" fill="none" stroke="#FFFFFF" stroke-width="0.5749" stroke-linecap="round" stroke-miterlimit="10" x1="1578.322" y1="189.788" x2="1623.501" y2="189.788"/>
		
			<line opacity="0.42" fill="none" stroke="#FFFFFF" stroke-width="0.5749" stroke-linecap="round" stroke-miterlimit="10" x1="546.043" y1="65.775" x2="591.214" y2="65.775"/>
		
			<line opacity="0.42" fill="none" stroke="#FFFFFF" stroke-width="0.5749" stroke-linecap="round" stroke-miterlimit="10" x1="2052.729" y1="90.395" x2="2097.891" y2="90.395"/>
		
			<line opacity="0.42" fill="none" stroke="#FFFFFF" stroke-width="0.5749" stroke-linecap="round" stroke-miterlimit="10" x1="2411.13" y1="189.788" x2="2455.125" y2="189.788"/>
		
			<line opacity="0.42" fill="none" stroke="#FFFFFF" stroke-width="0.5749" stroke-linecap="round" stroke-miterlimit="10" x1="1075.42" y1="261.857" x2="1125.371" y2="261.857"/>
		
			<line opacity="0.42" fill="none" stroke="#FFFFFF" stroke-width="0.5749" stroke-linecap="round" stroke-miterlimit="10" x1="1856.041" y1="261.857" x2="1891.014" y2="261.857"/>
		<path opacity="0.42" fill="none" stroke="#FFFFFF" stroke-width="0.5749" stroke-linecap="round" stroke-miterlimit="10" d="
			M2198.787,261.857c10.006,0,20.013,0,30.019,0"/>
		
			<line opacity="0.42" fill="none" stroke="#FFFFFF" stroke-width="0.5749" stroke-linecap="round" stroke-miterlimit="10" x1="2622.066" y1="261.857" x2="2708.828" y2="261.857"/>
		
			<line opacity="0.42" fill="none" stroke="#FFFFFF" stroke-width="0.5749" stroke-linecap="round" stroke-miterlimit="10" x1="1074.691" y1="534.812" x2="913.342" y2="534.812"/>
		
			<line opacity="0.42" fill="none" stroke="#FFFFFF" stroke-width="0.5749" stroke-linecap="round" stroke-miterlimit="10" x1="927.97" y1="606.881" x2="891.473" y2="606.881"/>
		
			<line opacity="0.42" fill="none" stroke="#FFFFFF" stroke-width="0.5749" stroke-linecap="round" stroke-miterlimit="10" x1="819.156" y1="606.881" x2="700.103" y2="606.881"/>
		
			<line opacity="0.42" fill="none" stroke="#FFFFFF" stroke-width="0.5749" stroke-linecap="round" stroke-miterlimit="10" x1="891.473" y1="678.958" x2="812.894" y2="678.958"/>
		
			<line opacity="0.42" fill="none" stroke="#FFFFFF" stroke-width="0.5749" stroke-linecap="round" stroke-miterlimit="10" x1="1172" y1="614.791" x2="1062.986" y2="614.791"/>
		
			<line opacity="0.42" fill="none" stroke="#FFFFFF" stroke-width="0.5749" stroke-linecap="round" stroke-miterlimit="10" x1="1333.506" y1="422.554" x2="1224.493" y2="422.554"/>
		
			<line opacity="0.42" fill="none" stroke="#FFFFFF" stroke-width="0.5749" stroke-linecap="round" stroke-miterlimit="10" x1="1583.674" y1="309.123" x2="1474.66" y2="309.123"/>
		
			<line opacity="0.42" fill="none" stroke="#FFFFFF" stroke-width="0.5749" stroke-linecap="round" stroke-miterlimit="10" x1="2120.299" y1="189.788" x2="1890.352" y2="189.788"/>
		
			<line opacity="0.42" fill="none" stroke="#FFFFFF" stroke-width="0.5749" stroke-linecap="round" stroke-miterlimit="10" x1="955.025" y1="331.178" x2="793.675" y2="331.178"/>
		
			<line opacity="0.42" fill="none" stroke="#FFFFFF" stroke-width="0.5749" stroke-linecap="round" stroke-miterlimit="10" x1="808.305" y1="403.247" x2="771.807" y2="403.247"/>
		
			<line opacity="0.42" fill="none" stroke="#FFFFFF" stroke-width="0.5749" stroke-linecap="round" stroke-miterlimit="10" x1="699.491" y1="403.247" x2="580.437" y2="403.247"/>
		
			<line opacity="0.42" fill="none" stroke="#FFFFFF" stroke-width="0.5749" stroke-linecap="round" stroke-miterlimit="10" x1="771.807" y1="475.324" x2="693.228" y2="475.324"/>
		
			<line opacity="0.42" fill="none" stroke="#FFFFFF" stroke-width="0.5749" stroke-linecap="round" stroke-miterlimit="10" x1="1052.334" y1="411.156" x2="943.32" y2="411.156"/>
		<path opacity="0.42" fill="none" stroke="#FFFFFF" stroke-width="0.5749" stroke-linecap="round" stroke-miterlimit="10" d="
			M2468.693,687.05c11.846,0,23.699,0,35.544,0"/>
		<path opacity="0.42" fill="none" stroke="#FFFFFF" stroke-width="0.5749" stroke-linecap="round" stroke-miterlimit="10" d="
			M2703.079,670.507c8.118,0,16.236,0,24.364,0"/>
		<path opacity="0.42" fill="none" stroke="#FFFFFF" stroke-width="0.5749" stroke-linecap="round" stroke-miterlimit="10" d="
			M2567.253,333.934c16.46,0,32.896,0,49.354,0"/>
		
			<line opacity="0.42" fill="none" stroke="#FFFFFF" stroke-width="0.5749" stroke-linecap="round" stroke-miterlimit="10" x1="2429.023" y1="583.859" x2="2320.01" y2="583.859"/>
		<path opacity="0.42" fill="none" stroke="#FFFFFF" stroke-width="0.5749" stroke-linecap="round" stroke-miterlimit="10" d="
			M2251.827,454.102c57.248,0,114.505,0,171.753,0"/>
		<path opacity="0.42" fill="none" stroke="#FFFFFF" stroke-width="0.5749" stroke-linecap="round" stroke-miterlimit="10" d="
			M2598.424,406.011c35.984,0,71.953,0,107.938,0"/>
		<path opacity="0.42" fill="none" stroke="#FFFFFF" stroke-width="0.5749" stroke-linecap="round" stroke-miterlimit="10" d="
			M1137.581,65.775c35.968,0,71.953,0,107.937,0"/>
		<path opacity="0.42" fill="none" stroke="#FFFFFF" stroke-width="0.5749" stroke-linecap="round" stroke-miterlimit="10" d="
			M680.503,188.381c35.985,0,71.952,0,107.937,0"/>
		
			<line opacity="0.42" fill="none" stroke="#FFFFFF" stroke-width="0.5749" stroke-linecap="round" stroke-miterlimit="10" x1="1505.343" y1="608.962" x2="1542.984" y2="608.962"/>
		
			<line opacity="0.42" fill="none" stroke="#FFFFFF" stroke-width="0.5749" stroke-linecap="round" stroke-miterlimit="10" x1="1541.369" y1="750.351" x2="1380.019" y2="750.351"/>
		<path opacity="0.42" fill="none" stroke="#FFFFFF" stroke-width="0.5749" stroke-linecap="round" stroke-miterlimit="10" d="
			M1266.848,607.555c35.976,0,71.96,0,107.937,0"/>
		<path opacity="0.42" fill="none" stroke="#FFFFFF" stroke-width="0.5749" stroke-linecap="round" stroke-miterlimit="10" d="
			M2391.829,494.623c14.058,0,28.116,0,42.173,0"/>
		
			<line opacity="0.42" fill="none" stroke="#FFFFFF" stroke-width="0.5749" stroke-linecap="round" stroke-miterlimit="10" x1="2685.337" y1="478.08" x2="2771.42" y2="478.08"/>
		<path opacity="0.42" fill="none" stroke="#FFFFFF" stroke-width="0.5749" stroke-linecap="round" stroke-miterlimit="10" d="
			M263.408,225.822c35.976,0,71.956,0,107.937,0"/>
		
			<line opacity="0.42" fill="none" stroke="#FFFFFF" stroke-width="0.5749" stroke-linecap="round" stroke-miterlimit="10" x1="350.316" y1="297.891" x2="436.396" y2="297.891"/>
		<path opacity="0.42" fill="none" stroke="#FFFFFF" stroke-width="0.5749" stroke-linecap="round" stroke-miterlimit="10" d="
			M1549.644,478.08c14.323,0,28.646,0,42.977,0"/>
	</g>
	<path opacity="0.1" clip-path="url(#SVGID_2_)" fill="#C6C6C6" d="M2251.487,651.148c0-183.984-148.394-333.117-331.431-333.117
		c-31.726,0-62.376,4.562-91.418,12.939c0.066-0.058,0.132-0.117,0.199-0.167c-1.376,0.4-2.734,0.858-4.109,1.274
		c-1.938,0.59-3.868,1.174-5.781,1.789c-3.049,0.983-6.057,2.016-9.063,3.082c-1.723,0.616-3.463,1.199-5.185,1.84
		c-3.936,1.474-7.829,3.022-11.697,4.637c-0.854,0.358-1.715,0.692-2.568,1.049c-4.34,1.866-8.623,3.813-12.864,5.846
		c-1.615,0.782-3.197,1.598-4.796,2.397c-2.842,1.432-5.674,2.864-8.466,4.363c-1.765,0.949-3.513,1.915-5.261,2.896
		c-2.608,1.465-5.202,2.964-7.77,4.488c-1.724,1.041-3.446,2.056-5.145,3.114c-2.684,1.665-5.326,3.389-7.952,5.128
		c-1.482,0.974-2.981,1.94-4.448,2.939c-3.951,2.697-7.861,5.478-11.688,8.343c-0.871,0.657-1.707,1.365-2.577,2.014
		c-3.024,2.315-6.021,4.663-8.954,7.078c-1.482,1.216-2.933,2.473-4.391,3.713c-2.286,1.948-4.557,3.914-6.793,5.912
		c-1.524,1.382-3.031,2.772-4.539,4.17c-2.146,1.999-4.258,4.03-6.346,6.078c-1.441,1.416-2.883,2.822-4.291,4.263
		c-2.236,2.273-4.415,4.604-6.585,6.944c-1.168,1.257-2.36,2.489-3.513,3.772c-3.181,3.538-6.287,7.143-9.319,10.815
		c-0.936,1.14-1.83,2.322-2.759,3.471c-2.145,2.681-4.273,5.379-6.345,8.126c-1.185,1.565-2.319,3.164-3.472,4.746
		c-1.756,2.415-3.486,4.846-5.176,7.31c-1.16,1.698-2.304,3.397-3.438,5.112c-1.642,2.498-3.239,5.021-4.822,7.56
		c-1.035,1.682-2.088,3.347-3.098,5.045c-1.756,2.947-3.446,5.937-5.119,8.941c-0.729,1.316-1.5,2.614-2.212,3.939
		c-2.287,4.254-4.473,8.55-6.577,12.913c-0.704,1.465-1.358,2.956-2.047,4.429c-1.408,3.047-2.808,6.111-4.133,9.191
		c-0.771,1.816-1.516,3.647-2.253,5.479c-1.168,2.839-2.295,5.703-3.372,8.584c-0.712,1.907-1.408,3.796-2.087,5.703
		c-1.062,2.98-2.055,5.978-3.032,8.992c-0.58,1.798-1.176,3.597-1.731,5.412c-1.143,3.771-2.203,7.577-3.223,11.407
		c-0.281,1.065-0.604,2.115-0.877,3.18c-1.227,4.83-2.337,9.709-3.355,14.621c-0.339,1.648-0.621,3.314-0.944,4.979
		c-0.646,3.38-1.268,6.777-1.806,10.19c-0.315,1.965-0.597,3.947-0.87,5.928c-0.455,3.197-0.861,6.412-1.227,9.642
		c-0.215,2.015-0.438,4.03-0.629,6.061c-0.314,3.397-0.563,6.819-0.779,10.25c-0.107,1.823-0.248,3.639-0.339,5.47
		c-0.224,4.887-0.356,9.808-0.373,14.761c0,0.326-0.017,0.643-0.017,0.958c0,183.969,148.377,333.102,331.43,333.102
		c5.203,0,10.372-0.15,15.517-0.383c1.59-0.074,3.163-0.191,4.746-0.283c3.645-0.225,7.265-0.499,10.868-0.832
		c1.707-0.167,3.404-0.325,5.103-0.517c3.786-0.408,7.546-0.899,11.291-1.44c1.3-0.183,2.609-0.342,3.901-0.55
		c4.986-0.774,9.949-1.657,14.861-2.665c0.91-0.191,1.821-0.407,2.733-0.607c4.009-0.85,7.993-1.782,11.944-2.773
		c1.558-0.391,3.09-0.807,4.631-1.223c3.412-0.917,6.81-1.882,10.181-2.897c1.499-0.45,2.999-0.908,4.498-1.383
		c3.984-1.265,7.944-2.614,11.862-4.029c0.721-0.267,1.458-0.5,2.179-0.766c4.647-1.715,9.228-3.546,13.767-5.461
		c1.169-0.483,2.312-1.016,3.479-1.516c3.38-1.481,6.743-2.997,10.065-4.58c1.433-0.683,2.857-1.382,4.282-2.081
		c3.182-1.573,6.337-3.197,9.46-4.871c1.251-0.666,2.51-1.314,3.744-1.989c4.283-2.364,8.517-4.796,12.675-7.327
		c0.182-0.117,0.348-0.233,0.521-0.333c3.969-2.431,7.862-4.962,11.722-7.551c1.243-0.841,2.478-1.707,3.712-2.572
		c1.607-1.108,3.247-2.182,4.829-3.331c-0.083,0.025-0.166,0.033-0.248,0.066C2196.55,861.944,2251.487,763.023,2251.487,651.148z"
		/>
	<g opacity="0.7" clip-path="url(#SVGID_2_)">
		<path fill="#EDEDED" d="M1920.057,390.767c143.076,0,259.056,116.57,259.056,260.382c0,143.797-115.979,260.366-259.056,260.366
			c-143.075,0-259.062-116.569-259.062-260.366C1660.994,507.336,1776.981,390.767,1920.057,390.767z"/>
		<path fill="#DADADA" d="M2070.572,863.076c-42.421,30.506-94.385,48.439-150.516,48.439
			c-143.075,0-259.062-116.569-259.062-260.366c0-118.951,79.373-219.27,187.766-250.391
			c-65.698,47.24-108.525,124.554-108.525,211.934c0,143.805,115.989,260.375,259.072,260.375
			C2024.018,873.067,2047.932,869.586,2070.572,863.076z"/>
		<path fill="#DADADA" d="M1786.052,559.181c-13.428-12.08-7.596-40.638,13.014-63.767c20.618-23.122,48.212-32.081,61.631-20.008
			c13.42,12.09,7.597,40.639-13.022,63.776C1827.057,562.304,1799.472,571.263,1786.052,559.181z"/>
		<path fill="#C6C6C6" d="M1858.327,524.671c-2.932,4.929-6.486,9.833-10.653,14.512c-20.617,23.121-48.202,32.071-61.63,19.998
			c-13.42-12.08-7.588-40.638,13.005-63.767c2.27-2.541,4.631-4.921,7.033-7.103c-11.539,19.5-13.088,39.631-2.378,49.264
			C1815.649,548.342,1838.836,542.422,1858.327,524.671z"/>
		<path fill="#DADADA" d="M1734.81,707.623c-13.71-0.141-24.628-19.391-24.388-43.003c0.232-23.628,11.539-42.661,25.249-42.512
			c13.71,0.134,24.627,19.383,24.387,43.011C1759.826,688.732,1748.519,707.766,1734.81,707.623z"/>
		<path fill="#C6C6C6" d="M1760.066,665.086c-0.24,23.613-11.548,42.654-25.249,42.512c-13.718-0.133-24.636-19.407-24.396-43.011
			c0.042-3.946,0.39-7.759,1.002-11.373c2.602,18.383,12.152,32.037,23.684,32.154c11.432,0.117,21.189-13.088,24.246-31.139
			C1759.851,657.693,1760.1,661.34,1760.066,665.086z"/>
		<path fill="#DADADA" d="M2105.098,655.862c14.878,6.793,19.053,29.723,9.336,51.237c-9.717,21.506-29.646,33.436-44.525,26.643
			c-14.859-6.785-19.043-29.724-9.327-51.22C2070.307,660.998,2090.237,649.076,2105.098,655.862z"/>
		<path fill="#C6C6C6" d="M2114.442,707.107c-9.726,21.506-29.655,33.445-44.517,26.667c-13.734-6.277-18.349-26.334-11.315-46.3
			c0.488,11.981,5.566,21.939,14.521,26.036c14.878,6.777,34.809-5.146,44.525-26.659c0.737-1.649,1.399-3.297,1.979-4.93
			C2119.959,689.806,2118.285,698.573,2114.442,707.107z"/>
		<path fill="#DADADA" d="M1983.842,476.623c16.882-17.251,54.406-7.634,83.806,21.457c29.415,29.098,39.562,66.647,22.672,83.891
			c-16.873,17.243-54.398,7.627-83.797-21.455C1977.115,531.415,1966.959,493.865,1983.842,476.623z"/>
		<path fill="#C6C6C6" d="M2094.719,539.217c-4.531-6.945-10.073-13.771-16.576-20.19c-29.407-29.099-66.932-38.69-83.813-21.464
			c-9.395,9.608-10.413,25.527-4.382,42.753c-16.013-24.495-19.269-50.264-6.105-63.702c16.882-17.243,54.406-7.634,83.797,21.456
			C2080.678,510.975,2089.923,525.512,2094.719,539.217z"/>
		<path fill="#DADADA" d="M1881.505,605.257c8.251,5.086,7.919,20.748-0.746,34.969c-8.681,14.237-22.398,21.647-30.657,16.568
			c-8.259-5.087-7.928-20.749,0.754-34.985C1859.52,607.589,1873.246,600.178,1881.505,605.257z"/>
		<path fill="#C6C6C6" d="M1886.027,628.336c-1.117,3.896-2.883,7.977-5.285,11.923c-8.681,14.229-22.398,21.647-30.657,16.569
			c-8.259-5.096-7.919-20.749,0.754-34.978c1.052-1.723,2.178-3.355,3.355-4.862c-2.908,10.174-1.418,19.366,4.548,23.03
			C1865.989,644.488,1877.463,639.302,1886.027,628.336z"/>
	</g>
	<path opacity="0.05" clip-path="url(#SVGID_2_)" fill="#FFFFFF" d="M1781.703,90.237
		c-130.525,11.38-748.016,132.297-619.354,241.408c128.662,109.118-0.845,105.089-473.603,76.315
		C215.988,379.21-47.702,402.548-440.97,530.708C-834.238,658.867-123.133,648.052-28.786,696.483
		c94.351,48.432-749.81,132.664-749.81,132.664l-77.233,115.038c5.903,29.249,462.487-68.422,1026.385-225.563
		c563.899-157.133-49.714-45.901-376.576-153.304c-326.862-107.404,759.874-134.921,589.719-120.317
		C31.627,475.241,273.916,582.469,555.677,548.333c329.02-39.857,378.357-38.458,727.117-75.433
		c564.475-59.862,183.31-111.85,6.021-170.439c-177.287-58.589,666.307-122.748,666.307-122.748s673.993-58.28,786.161-174.942
		l-11.762-176.591C2729.521-171.82,2318.842,43.404,1781.703,90.237z"/>
	<path opacity="0.05" clip-path="url(#SVGID_2_)" fill="#FFFFFF" d="M-8.056,294.637c29.734-0.325,60.707-2.074,92.16-5.579
		c329.818-36.742,379.355-34.902,729.021-68.597c565.933-54.534,182.871-109.876,4.358-169.922
		C638.986-9.507,1484.998-65.799,1484.998-65.799s727.97-71.811,839.386-187.131l-65.623-156.401
		c0,0-410.059,210.911-948.681,252.707C1179.19-146.468,560.64-31.504,690.842,78.497c130.203,109.993,0.198,104.781-474.56,71.786
		c-84.9-5.904-162.981-10.05-236.367-12.223L-8.056,294.637z"/>
	<path clip-path="url(#SVGID_2_)" fill="#3B0047" d="M1657.398,2026.78"/>
	<rect x="-0.224" y="1068.791" clip-path="url(#SVGID_2_)" fill="#3A3278" width="2850.224" height="936.367"/>
	<path opacity="0.5" clip-path="url(#SVGID_2_)" fill="#A1A8C7" d="M1965.99,1746.59c15.54,4.355,56.486,23.53,56.486,23.53
		l101.003,3.788l-43.539-18.509l-62.625-15.319L1965.99,1746.59z"/>
	<g clip-path="url(#SVGID_2_)">
		<polygon fill="#2A2458" points="1682.655,1330.464 1815.542,1378.771 1965.99,1469.714 2188.771,1536.97 2499.799,1589.074 
			2663.791,1740.08 2850,1763.435 2850,318.031 2750.479,372.749 2619.184,504.181 2578.975,470.037 2501.389,504.181 
			2445.889,554.627 2331.093,878.153 2301.256,937.534 2192.342,994.865 2122.236,1060.906 2022.286,1173.197 1981.986,1164.755 
			1848.578,1270.784 		"/>
	</g>
	<polygon clip-path="url(#SVGID_2_)" fill="#342872" points="2850,318.031 2750.479,372.749 2619.184,504.181 2578.975,470.037 
		2501.389,504.181 2445.889,554.627 2301.256,937.534 2192.342,994.865 2118.087,1064.92 2022.286,1173.197 1974.68,1165.337 
		1804.343,1293.082 1987.685,1222.777 2055.346,1217.341 2123.479,1122.31 2179.112,1063.537 2267.127,1044.921 2280.414,988.014 
		2378.352,909.692 2370.424,977.597 2407.71,924.312 2418.834,847.731 2434.499,820.572 2434.499,735.648 2472.547,623.965 
		2501.389,735.673 2485.666,842.61 2537.092,694.801 2537.092,590.529 2588.311,564.561 2641.135,590.529 2641.135,723.942 
		2715.828,637.702 2741.283,554.627 2715.828,488.312 	"/>
	<polyline clip-path="url(#SVGID_2_)" fill="#272152" points="2850,637.702 2771.239,699.564 2741.283,820.572 2663.799,787.418 
		2604.139,847.731 2551.291,1009.711 2501.389,945.634 2496.907,1025.805 2381.591,1183.788 2371.7,1369.596 2551.291,1503.092 
		2850,1625.466 	"/>
	<polyline clip-path="url(#SVGID_2_)" fill="#2A2457" points="2850,2005.158 1565.822,1329.923 1951.668,1068.791 
		1786.002,1068.791 915.976,1364.566 1374.453,2005.158 	"/>
	<path clip-path="url(#SVGID_2_)" fill="#2F2861" d="M1565.822,1329.923c-223.17,5.512-425.955,22.371-648.778,36.135
		l457.409,639.101H2850L1565.822,1329.923z"/>
	<polygon clip-path="url(#SVGID_2_)" fill="#261B45" points="1786.002,1068.791 907.932,1369.596 937.828,1395.09 	"/>
	<path clip-path="url(#SVGID_2_)" fill="#2A2457" d="M1816.817,1540.875c-236.407,31.82-475.143,54.51-711.891,87.696
		l269.527,376.587H2850l-913.972-480.576C1896.283,1530.01,1856.562,1535.529,1816.817,1540.875z"/>
	<path clip-path="url(#SVGID_2_)" fill="#26204F" d="M1217.303,1785.588l157.15,219.57H2850l-468.326-246.254
		C1993.566,1769.104,1605.518,1782.025,1217.303,1785.588z"/>
	<polygon clip-path="url(#SVGID_2_)" fill="#325494" points="29.602,1068.791 23.145,935.802 312.17,838.106 379.409,884.998 
		465.584,811.713 549.059,670.224 625.401,711.545 744.156,890.684 872.81,803.737 965.47,886.421 1044.771,820.347 
		1105.018,865.107 1269.308,670.224 1340.556,803.737 1477.891,886.421 1580.269,1068.791 	"/>
	<polygon opacity="0.12" clip-path="url(#SVGID_2_)" fill="#FFFFFF" points="467.895,1068.791 379.292,1068.791 349.733,1005.206 
		549.059,670.224 523.818,823.944 565.742,993.067 	"/>
	<polygon clip-path="url(#SVGID_2_)" fill="#304F8C" points="1162.101,1025.805 1105.117,1068.791 1055.184,925.494 
		1269.01,670.224 1241.558,931.938 1206.22,835.9 	"/>
	<polygon clip-path="url(#SVGID_2_)" fill="#304F8C" points="871.493,1068.791 664.343,1068.791 604.858,977.106 873.514,806.285 
		821.559,907.735 	"/>
	<g clip-path="url(#SVGID_2_)">
		<polyline fill="#2A2458" points="10.404,1887.904 304.992,1839.524 724.134,1373.094 999.807,1185.545 1011.122,1128.679 
			1115.745,1095.7 1006.881,1070.081 877.755,1068.791 796.003,977.597 685.508,945.634 575.599,727.272 560.208,564.561 
			426.307,470.037 144.645,263.081 -0.224,239.177 -0.224,352.142 		"/>
	</g>
	<polygon clip-path="url(#SVGID_2_)" fill="#272152" points="65.226,590.529 102.245,787.418 145.9,740.078 258.604,616.988 
		320.043,759.243 382.006,769.193 382.006,787.418 457.735,723.942 475.313,861.494 529.964,924.312 517.933,983.759 
		542.001,1076.875 616.869,1115.058 773.587,1196.743 882.501,1233.576 169.943,1604.026 23.145,1566.187 -0.224,1503.092 
		0,540.316 	"/>
	<polyline clip-path="url(#SVGID_2_)" fill="#342872" points="-0.224,239.177 144.645,263.081 560.208,564.561 575.599,727.272 
		685.508,945.634 796.003,977.597 877.755,1068.791 1006.881,1070.081 1115.745,1095.7 992.468,1095.7 920.267,1093.352 
		894.008,1112.618 869.777,1088.106 801.711,1030.25 807.079,1105.399 780.687,1052.015 759.48,1040.075 766.099,1022.748 
		710.433,994.865 652.025,984.25 659.099,954.685 623.76,949.348 604.858,879.636 594.271,1037.943 564.002,869.511 
		575.599,816.077 557.757,762.083 549.009,821.763 525.513,760.659 539.068,598.671 500.761,590.145 483.796,554.627 
		395.313,505.747 388.082,695.659 332.378,547.442 356.559,526.436 319.799,463.685 269.684,390.767 185.612,409.691 
		158.632,590.529 139.261,451.137 137.426,382.69 175.597,342.901 145.9,303.12 -0.224,244.856 	"/>
	<g clip-path="url(#SVGID_2_)">
		<g>
			<polygon fill="#2A1E4B" points="1256.915,954.685 1228.776,1079.647 1235.063,1093.044 1227.757,1084.103 1221.08,1111.045 
				1256.915,1136.521 1292.75,1111.045 1282.529,1066.442 1268.496,1077.558 1281.236,1060.823 1278.817,1050.282 
				1271.776,1055.486 1277.956,1046.519 			"/>
			<polygon fill="#2A1E4B" points="1264.462,1153.24 1249.37,1153.24 1256.915,1076.875 			"/>
		</g>
		<g opacity="0.5">
			<polyline fill="#F9CF79" points="1276.448,1067.126 1273.185,1054.687 1278.817,1050.282 1279.008,1051.106 1281.236,1060.823 
							"/>
			<polyline fill="#F9CF79" points="1277.956,1046.519 1256.915,954.685 1253.669,969.122 1273.185,1053.404 			"/>
			<polyline fill="#F9CF79" points="1276.622,1071.339 1287.118,1115.058 1292.75,1111.045 1282.529,1066.442 			"/>
		</g>
	</g>
	<g clip-path="url(#SVGID_2_)">
		<g>
			<polygon fill="#2A1E4B" points="1166.988,949.665 1141.218,1064.104 1146.974,1076.376 1140.281,1068.183 1134.168,1092.86 
				1166.988,1116.189 1199.808,1092.86 1190.448,1052.015 1177.591,1062.188 1189.263,1046.869 1187.051,1037.211 
				1180.598,1041.973 1186.256,1033.764 			"/>
			<polygon fill="#2A1E4B" points="1173.896,1131.501 1160.08,1131.501 1166.988,1061.572 			"/>
		</g>
		<g opacity="0.4">
			<polyline fill="#F9CF79" points="1184.88,1052.639 1181.882,1041.248 1187.051,1037.211 1187.217,1037.969 1189.263,1046.869 			
				"/>
			<polyline fill="#F9CF79" points="1186.256,1033.764 1166.988,949.665 1164.006,962.886 1181.882,1040.075 			"/>
			<polyline fill="#F9CF79" points="1185.03,1056.494 1194.639,1096.532 1199.808,1092.86 1190.448,1052.015 			"/>
		</g>
	</g>
	<g clip-path="url(#SVGID_2_)">
		<polyline opacity="0.7" fill="#2A2458" points="1084.416,1290 975.784,1237.598 1183.605,1154.265 1311.969,1096.74 
			1538.71,1095.7 1615.938,1106.115 		"/>
	</g>
	<polyline clip-path="url(#SVGID_2_)" fill="#3D2871" points="1528.016,1128.562 1533.159,1013.508 1581.213,931.938 
		1616.543,1013.516 1615.798,1107.115 	"/>
	<polyline clip-path="url(#SVGID_2_)" fill="#211C45" points="1533.159,1013.508 1316.111,1011.483 1315.034,1126.623 
		1532.082,1128.679 	"/>
	<polyline clip-path="url(#SVGID_2_)" fill="#121026" points="1532.878,1025.805 1315.829,1023.756 1315.953,1010.268 
		1533.002,1012.301 	"/>
	<polygon clip-path="url(#SVGID_2_)" fill="#2A2458" points="1580.947,932.331 1533.159,1013.516 1316.111,1011.483 
		1367.171,907.702 1578.654,909.692 1616.543,1013.516 1616.543,1013.516 	"/>
	<polyline clip-path="url(#SVGID_2_)" fill="#272152" points="1533.159,1013.516 1316.111,1011.483 1367.171,907.702 	"/>
	<polygon clip-path="url(#SVGID_2_)" fill="#493087" points="1578.654,909.692 1533.159,1013.508 1578.936,941.055 
		1615.135,1010.268 	"/>
	<polygon clip-path="url(#SVGID_2_)" fill="#FFDA77" points="1429.979,1100.896 1490.706,1101.47 1491.311,1038.376 
		1430.566,1037.794 	"/>
	<g clip-path="url(#SVGID_2_)">
		<polygon fill="#1D193D" points="1491.261,1043.355 1437.036,1042.839 1436.488,1100.97 1429.979,1100.896 1430.566,1037.794 
			1491.311,1038.376 		"/>
	</g>
	<polygon clip-path="url(#SVGID_2_)" fill="#FFD775" points="1349.27,1101.036 1409.998,1101.611 1410.603,1038.511 
		1349.858,1037.943 	"/>
	<g clip-path="url(#SVGID_2_)">
		<polygon fill="#1D193D" points="1410.561,1043.497 1356.328,1042.989 1355.79,1101.111 1349.27,1101.036 1349.858,1037.943 
			1410.603,1038.511 		"/>
	</g>
	<path clip-path="url(#SVGID_2_)" fill="#2E380B" d="M1429.979,1127.713"/>
	<linearGradient id="SVGID_4_" gradientUnits="userSpaceOnUse" x1="1369.6797" y1="1097.6455" x2="1366.6334" y2="1249.4771">
		<stop  offset="0.1324" style="stop-color:#FFD775"/>
		<stop  offset="0.2553" style="stop-color:#CBAC6E;stop-opacity:0.8654"/>
		<stop  offset="0.3887" style="stop-color:#9B8367;stop-opacity:0.7193"/>
		<stop  offset="0.5214" style="stop-color:#726162;stop-opacity:0.574"/>
		<stop  offset="0.6507" style="stop-color:#53465E;stop-opacity:0.4324"/>
		<stop  offset="0.7756" style="stop-color:#3C335A;stop-opacity:0.2957"/>
		<stop  offset="0.8942" style="stop-color:#2F2859;stop-opacity:0.1658"/>
		<stop  offset="1" style="stop-color:#2A2458;stop-opacity:0.05"/>
	</linearGradient>
	<polygon clip-path="url(#SVGID_2_)" fill="url(#SVGID_4_)" points="1349.27,1126.947 1491.311,1128.679 1611.324,1244.142 
		1122.455,1229.222 	"/>
	<g clip-path="url(#SVGID_2_)">
		<g>
			<polygon fill="#2A1E4B" points="1210.975,977.597 1182.826,1102.561 1189.122,1115.957 1181.816,1107.015 1175.139,1133.957 
				1210.975,1159.435 1246.81,1133.957 1236.587,1089.355 1222.555,1100.472 1235.295,1083.735 1232.876,1073.195 
				1225.835,1078.398 1232.015,1069.432 			"/>
			<polygon fill="#2A1E4B" points="1218.513,1176.152 1203.419,1176.152 1210.975,1099.788 			"/>
		</g>
		<g opacity="0.5">
			<polyline fill="#F9CF79" points="1230.507,1090.038 1227.235,1077.6 1232.876,1073.195 1233.059,1074.02 1235.295,1083.735 			
				"/>
			<polyline fill="#F9CF79" points="1232.015,1069.432 1210.975,977.597 1207.719,992.035 1227.235,1076.317 			"/>
			<polyline fill="#F9CF79" points="1230.673,1094.251 1241.168,1137.971 1246.81,1133.957 1236.587,1089.355 			"/>
		</g>
	</g>
	<g clip-path="url(#SVGID_2_)">
		<g>
			<polygon fill="#2A1E4B" points="1131.153,988.014 1094.82,1149.352 1102.938,1166.645 1093.512,1155.104 1084.888,1189.89 
				1131.153,1222.777 1177.417,1189.89 1164.221,1132.309 1146.105,1146.654 1162.556,1125.048 1159.433,1111.436 
				1150.337,1118.154 1158.323,1106.582 			"/>
			<polygon fill="#2A1E4B" points="1140.894,1244.366 1121.411,1244.366 1131.153,1145.771 			"/>
		</g>
		<polyline opacity="0.4" fill="#F9CF79" points="1156.377,1133.184 1152.152,1117.122 1159.433,1111.436 1159.682,1112.502 
			1162.556,1125.048 		"/>
		<polyline opacity="0.4" fill="#F9CF79" points="1158.323,1106.582 1131.153,988.014 1126.953,1006.654 1152.152,1115.474 		"/>
		<polyline opacity="0.4" fill="#F9CF79" points="1156.6,1138.62 1170.136,1195.069 1177.417,1189.89 1164.221,1132.309 		"/>
	</g>
	<g clip-path="url(#SVGID_2_)">
		<g>
			<polygon fill="#2A1E4B" points="1042.799,954.685 1003.269,1130.211 1012.1,1149.019 1001.844,1136.464 992.468,1174.312 
				1042.799,1210.089 1093.13,1174.312 1078.767,1111.669 1059.06,1127.271 1076.96,1103.768 1073.564,1088.956 1063.666,1096.266 
				1072.355,1083.678 			"/>
			<polygon fill="#2A1E4B" points="1053.394,1233.576 1032.196,1233.576 1042.799,1126.314 			"/>
		</g>
		<g opacity="0.2">
			<polyline fill="#DEC89B" points="1070.235,1112.618 1065.646,1095.143 1073.564,1088.956 1073.83,1090.113 1076.96,1103.768 			
				"/>
			<polyline fill="#DEC89B" points="1072.355,1083.678 1042.799,954.685 1038.227,974.966 1065.646,1093.352 			"/>
			<polyline fill="#DEC89B" points="1070.475,1118.529 1085.211,1179.941 1093.13,1174.312 1078.767,1111.669 			"/>
		</g>
	</g>
	<g clip-path="url(#SVGID_2_)">
		<g>
			<polygon fill="#2A1E4B" points="1738.992,1001.151 1778.522,1176.678 1769.691,1195.485 1779.947,1182.93 1789.324,1220.779 
				1738.992,1256.556 1688.661,1220.779 1703.017,1158.136 1722.724,1173.738 1704.831,1150.234 1708.227,1135.423 
				1718.117,1142.733 1709.437,1130.144 			"/>
			<polygon fill="#2A1E4B" points="1728.39,1280.043 1749.596,1280.043 1738.992,1172.78 			"/>
		</g>
		<g opacity="0.2">
			<polyline fill="#DEC89B" points="1711.557,1159.085 1716.146,1141.609 1708.227,1135.423 1707.961,1136.579 1704.831,1150.234 
							"/>
			<polyline fill="#DEC89B" points="1709.437,1130.144 1738.992,1001.151 1743.565,1021.434 1716.146,1139.819 			"/>
			<polyline fill="#DEC89B" points="1711.309,1164.996 1696.58,1226.407 1688.661,1220.779 1703.017,1158.136 			"/>
		</g>
	</g>
	<g clip-path="url(#SVGID_2_)">
		<g>
			<polygon fill="#2A1E4B" points="1680.179,1083.328 1719.708,1258.854 1710.878,1277.662 1721.133,1265.105 1730.51,1302.956 
				1680.179,1338.732 1629.847,1302.956 1644.202,1240.312 1663.909,1255.914 1646.017,1232.41 1649.412,1217.599 
				1659.304,1224.909 1650.622,1212.32 			"/>
			<polygon fill="#2A1E4B" points="1669.575,1362.219 1690.781,1362.219 1680.179,1254.957 			"/>
		</g>
		<g opacity="0.2">
			<polyline fill="#DEC89B" points="1652.743,1241.261 1657.332,1223.784 1649.412,1217.599 1649.148,1218.756 1646.017,1232.41 			
				"/>
			<polyline fill="#DEC89B" points="1650.622,1212.32 1680.179,1083.328 1684.751,1103.609 1657.332,1221.995 			"/>
			<polyline fill="#DEC89B" points="1652.494,1247.173 1637.766,1308.584 1629.847,1302.956 1644.202,1240.312 			"/>
		</g>
	</g>
	<g clip-path="url(#SVGID_2_)">
		<g>
			<polygon fill="#2A1E4B" points="1804.351,1084.086 1852.479,1297.818 1841.727,1320.724 1854.218,1305.437 1865.634,1351.529 
				1804.351,1395.09 1743.061,1351.529 1760.538,1275.247 1784.536,1294.247 1762.742,1265.622 1766.883,1247.588 
				1778.936,1256.488 1768.35,1241.161 			"/>
			<polygon fill="#2A1E4B" points="1791.445,1423.688 1817.257,1423.688 1804.343,1293.082 			"/>
		</g>
		<g opacity="0.2">
			<polyline fill="#DEC89B" points="1770.934,1276.396 1776.526,1255.115 1766.883,1247.588 1766.561,1248.995 1762.742,1265.622 
							"/>
			<polyline fill="#DEC89B" points="1768.35,1241.161 1804.351,1084.086 1809.909,1108.78 1776.526,1252.934 			"/>
			<polyline fill="#DEC89B" points="1770.637,1283.598 1752.693,1358.373 1743.061,1351.529 1760.538,1275.247 			"/>
		</g>
	</g>
	<g clip-path="url(#SVGID_2_)">
		<g>
			<polygon fill="#2A1E4B" points="1969.113,1110.245 2017.25,1323.979 2006.489,1346.883 2018.988,1331.597 2030.404,1377.688 
				1969.113,1421.249 1907.831,1377.688 1925.309,1301.407 1949.315,1320.406 1927.513,1291.782 1931.654,1273.748 
				1943.699,1282.648 1933.12,1267.321 			"/>
			<polygon fill="#2A1E4B" points="1956.207,1449.849 1982.02,1449.849 1969.113,1319.241 			"/>
		</g>
		<g opacity="0.2">
			<polyline fill="#5E43A6" points="1935.705,1302.556 1941.297,1281.275 1931.654,1273.748 1931.323,1275.156 1927.513,1291.782 
							"/>
			<polyline fill="#5E43A6" points="1933.12,1267.321 1969.113,1110.245 1974.68,1134.939 1941.297,1279.094 			"/>
			<polyline fill="#5E43A6" points="1935.415,1309.757 1917.464,1384.532 1907.831,1377.688 1925.309,1301.407 			"/>
		</g>
	</g>
	<g clip-path="url(#SVGID_2_)">
		<g>
			<polygon fill="#2A1E4B" points="2033.088,1088.106 2097.916,1375.974 2083.428,1406.82 2100.26,1386.239 2115.635,1448.316 
				2033.088,1506.988 1950.541,1448.316 1974.083,1345.575 2006.415,1371.17 1977.049,1332.612 1982.633,1308.316 
				1998.852,1320.314 1984.604,1299.666 			"/>
			<polygon fill="#2A1E4B" points="2015.709,1545.513 2050.467,1545.513 2033.08,1369.596 			"/>
		</g>
		<g opacity="0.2">
			<polyline fill="#5E43A6" points="1988.083,1347.125 1995.621,1318.467 1982.633,1308.316 1982.185,1310.216 1977.049,1332.612 
							"/>
			<polyline fill="#5E43A6" points="1984.604,1299.666 2033.088,1088.106 2040.576,1121.369 1995.621,1315.527 			"/>
			<polyline fill="#5E43A6" points="1987.685,1356.823 1963.514,1457.533 1950.541,1448.316 1974.083,1345.575 			"/>
		</g>
	</g>
	<g clip-path="url(#SVGID_2_)">
		<g>
			<polygon fill="#2A1E4B" points="873.514,1128.046 808.686,1415.912 823.173,1446.76 806.35,1426.178 790.967,1488.256 
				873.514,1546.929 956.061,1488.256 932.518,1385.515 900.188,1411.107 929.544,1372.552 923.978,1348.257 907.742,1360.254 
				921.998,1339.605 			"/>
			<polygon fill="#2A1E4B" points="890.893,1585.453 856.135,1585.453 873.522,1409.535 			"/>
		</g>
		<g opacity="0.2">
			<polyline fill="#5E43A6" points="918.519,1387.063 910.989,1358.406 923.978,1348.257 924.409,1350.154 929.544,1372.552 			"/>
			<polyline fill="#5E43A6" points="921.998,1339.605 873.514,1128.046 866.025,1161.307 910.989,1355.467 			"/>
			<polyline fill="#5E43A6" points="918.908,1396.763 943.08,1497.473 956.061,1488.256 932.518,1385.515 			"/>
		</g>
	</g>
	<g clip-path="url(#SVGID_2_)">
		<g>
			<polygon fill="#2A1E4B" points="773.587,1196.743 708.76,1484.608 723.248,1515.457 706.416,1494.876 691.041,1556.952 
				773.587,1615.625 856.135,1556.952 832.593,1454.212 800.261,1479.805 829.626,1441.248 824.043,1416.953 807.824,1428.951 
				822.072,1408.303 			"/>
			<polygon fill="#2A1E4B" points="790.967,1654.147 756.208,1654.147 773.596,1478.231 			"/>
		</g>
		<g opacity="0.2">
			<polyline fill="#5E43A6" points="818.593,1455.76 811.055,1427.103 824.043,1416.953 824.491,1418.852 829.626,1441.248 			"/>
			<polyline fill="#5E43A6" points="822.072,1408.303 773.587,1196.743 766.099,1230.004 811.055,1424.163 			"/>
			<polyline fill="#5E43A6" points="818.99,1465.46 843.162,1566.17 856.135,1556.952 832.593,1454.212 			"/>
		</g>
	</g>
	<g clip-path="url(#SVGID_2_)">
		<g>
			<polygon fill="#231940" points="815.47,1257.912 742.855,1580.349 759.083,1614.9 740.229,1591.854 723.016,1661.383 
				815.47,1727.1 907.932,1661.383 881.565,1546.303 845.349,1574.97 878.236,1531.783 871.99,1504.565 853.815,1518.004 
				869.777,1494.883 			"/>
			<polygon fill="#231940" points="834.937,1770.252 796.003,1770.252 815.479,1573.205 			"/>
		</g>
		<g opacity="0.2">
			<polyline fill="#5E43A6" points="865.876,1548.035 857.444,1515.939 871.99,1504.565 872.487,1506.697 878.236,1531.783 			"/>
			<polyline fill="#5E43A6" points="869.777,1494.883 815.47,1257.912 807.079,1295.171 857.444,1512.643 			"/>
			<polyline fill="#5E43A6" points="866.323,1558.9 893.395,1671.707 907.932,1661.383 881.565,1546.303 			"/>
		</g>
	</g>
	<g clip-path="url(#SVGID_2_)">
		<g>
			<polygon fill="#231940" points="937.48,1279.493 864.865,1601.929 881.102,1636.48 862.248,1613.436 845.026,1682.965 
				937.48,1748.681 1029.943,1682.965 1003.576,1567.885 967.36,1596.55 1000.254,1553.364 994.008,1526.147 975.834,1539.586 
				991.788,1516.465 			"/>
			<polygon fill="#231940" points="956.947,1791.833 918.014,1791.833 937.497,1594.786 			"/>
		</g>
		<g opacity="0.2">
			<polyline fill="#5E43A6" points="987.895,1569.617 979.461,1537.52 994.008,1526.147 994.497,1528.277 1000.254,1553.364 			"/>
			<polyline fill="#5E43A6" points="991.788,1516.465 937.48,1279.493 929.097,1316.751 979.461,1534.224 			"/>
			<polyline fill="#5E43A6" points="988.333,1580.481 1015.414,1693.287 1029.943,1682.965 1003.576,1567.885 			"/>
		</g>
	</g>
	<g clip-path="url(#SVGID_2_)">
		<g>
			<polygon fill="#231940" points="890.893,1437.118 818.278,1759.555 834.506,1794.106 815.652,1771.061 798.43,1840.589 
				890.893,1906.306 983.355,1840.589 956.98,1725.509 920.764,1754.176 953.649,1710.989 947.404,1683.771 929.23,1697.209 
				945.201,1674.088 			"/>
			<polygon fill="#231940" points="910.36,1949.458 871.427,1949.458 890.893,1752.411 			"/>
		</g>
		<g opacity="0.2">
			<polyline fill="#5E43A6" points="941.299,1727.241 932.857,1695.146 947.404,1683.771 947.901,1685.902 953.649,1710.989 			"/>
			<polyline fill="#5E43A6" points="945.201,1674.088 890.893,1437.118 882.501,1474.377 932.857,1691.849 			"/>
			<polyline fill="#5E43A6" points="941.738,1738.106 968.817,1850.913 983.355,1840.589 956.98,1725.509 			"/>
		</g>
	</g>
	<g clip-path="url(#SVGID_2_)">
		<g>
			<polygon fill="#231940" points="617.971,1170.624 545.356,1493.06 561.583,1527.611 542.729,1504.565 525.513,1574.096 
				617.971,1639.812 710.433,1574.096 684.066,1459.016 647.85,1487.682 680.735,1444.494 674.49,1417.278 656.316,1430.717 
				672.278,1407.595 			"/>
			<polygon fill="#231940" points="637.437,1682.965 598.504,1682.965 617.979,1485.916 			"/>
		</g>
		<g opacity="0.2">
			<polyline fill="#5E43A6" points="668.377,1460.748 659.943,1428.65 674.49,1417.278 674.987,1419.41 680.735,1444.494 			"/>
			<polyline fill="#5E43A6" points="672.278,1407.595 617.971,1170.624 609.579,1207.883 659.943,1425.354 			"/>
			<polyline fill="#5E43A6" points="668.824,1471.612 695.896,1584.42 710.433,1574.096 684.066,1459.016 			"/>
		</g>
	</g>
	<g clip-path="url(#SVGID_2_)">
		<g>
			<polygon fill="#231940" points="539.068,1244.283 460.233,1594.343 477.852,1631.859 457.383,1606.842 438.687,1682.331 
				539.068,1753.676 639.45,1682.331 610.822,1557.385 571.508,1588.508 607.21,1541.625 600.434,1512.067 580.703,1526.662 
				598.032,1501.561 			"/>
			<polygon fill="#231940" points="560.208,1800.525 517.933,1800.525 539.077,1586.593 			"/>
		</g>
		<g opacity="0.2">
			<polyline fill="#5E43A6" points="593.799,1559.268 584.637,1524.424 600.434,1512.067 600.964,1514.384 607.21,1541.625 			"/>
			<polyline fill="#5E43A6" points="598.032,1501.561 539.068,1244.283 529.964,1284.738 584.637,1520.843 			"/>
			<polyline fill="#5E43A6" points="594.271,1571.065 623.678,1693.539 639.45,1682.331 610.822,1557.385 			"/>
		</g>
	</g>
	<g clip-path="url(#SVGID_2_)">
		<g>
			<polygon fill="#231940" points="332.374,1236.773 259.76,1559.209 275.991,1593.762 257.138,1570.716 239.916,1640.244 
				332.374,1705.961 424.836,1640.244 398.465,1525.165 362.249,1553.83 395.14,1510.645 388.894,1483.427 370.719,1496.864 
				386.682,1473.744 			"/>
			<polygon fill="#231940" points="351.841,1749.113 312.908,1749.113 332.382,1552.064 			"/>
		</g>
		<g opacity="0.2">
			<polyline fill="#5E43A6" points="382.784,1526.896 374.348,1494.8 388.894,1483.427 389.387,1485.56 395.14,1510.645 			"/>
			<polyline fill="#5E43A6" points="386.682,1473.744 332.374,1236.773 323.987,1274.031 374.348,1491.504 			"/>
			<polyline fill="#5E43A6" points="383.223,1537.762 410.303,1650.569 424.836,1640.244 398.465,1525.165 			"/>
		</g>
	</g>
	<g clip-path="url(#SVGID_2_)">
		<g>
			<polyline fill="#1F1638" points="304.827,1717.518 277.018,1829.782 426.307,1935.88 575.599,1829.782 533.018,1643.975 
				474.542,1690.258 527.649,1620.521 517.56,1576.576 488.219,1598.273 513.985,1560.941 426.307,1178.334 309.063,1698.95 			"/>
			<polygon fill="#1F1638" points="457.735,2005.567 394.875,2005.567 426.315,1687.419 			"/>
		</g>
		<g opacity="0.2">
			<polyline fill="#5E43A6" points="507.698,1646.771 494.08,1594.952 517.56,1576.576 518.354,1580.031 527.649,1620.521 			"/>
			<polyline fill="#5E43A6" points="513.985,1560.941 426.307,1178.334 412.763,1238.497 494.08,1589.64 			"/>
			<polyline fill="#5E43A6" points="508.407,1664.314 552.124,1846.451 575.599,1829.782 533.018,1643.975 			"/>
		</g>
	</g>
	<g clip-path="url(#SVGID_2_)">
		<g>
			<polygon fill="#1F1638" points="102.245,1074.994 -35.844,1688.168 -4.979,1753.858 -40.831,1710.032 -73.584,1842.254 
				102.245,1967.217 278.074,1842.254 227.925,1623.419 159.055,1677.928 221.604,1595.792 209.721,1544.039 175.167,1569.59 
				205.51,1525.621 			"/>
			<polygon fill="#1F1638" points="139.261,2049.293 65.226,2049.293 102.253,1674.588 			"/>
		</g>
		<g opacity="0.2">
			<polyline fill="#5E43A6" points="198.104,1626.715 182.067,1565.679 209.721,1544.039 210.658,1548.103 221.604,1595.792 			"/>
			<polyline fill="#5E43A6" points="205.51,1525.621 102.245,1074.994 86.294,1145.855 182.067,1559.426 			"/>
			<polyline fill="#5E43A6" points="198.941,1647.372 250.437,1861.886 278.074,1842.254 227.925,1623.419 			"/>
		</g>
	</g>
	<g clip-path="url(#SVGID_2_)">
		<g>
			<polygon fill="#2A1E4B" points="2099.854,1029.344 2167.855,1331.313 2152.663,1363.677 2170.315,1342.079 2186.443,1407.203 
				2099.854,1468.748 2013.265,1407.203 2037.959,1299.425 2071.872,1326.268 2041.074,1285.829 2046.922,1260.344 
				2063.944,1272.925 2049.001,1251.269 			"/>
			<polygon fill="#2A1E4B" points="2081.622,1509.153 2118.087,1509.153 2099.847,1324.619 			"/>
		</g>
		<g opacity="0.2">
			<polyline fill="#5E43A6" points="2052.646,1301.049 2060.549,1270.984 2046.922,1260.344 2046.466,1262.334 2041.074,1285.829 
							"/>
			<polyline fill="#5E43A6" points="2049.001,1251.269 2099.854,1029.344 2107.716,1064.236 2060.549,1267.903 			"/>
			<polyline fill="#5E43A6" points="2052.231,1311.223 2026.875,1416.869 2013.265,1407.203 2037.959,1299.425 			"/>
		</g>
	</g>
	<g clip-path="url(#SVGID_2_)">
		<g>
			<polygon fill="#271B45" points="2242.508,1017.278 2300.535,1274.964 2287.571,1302.572 2302.631,1284.147 2316.397,1339.723 
				2242.508,1392.242 2168.617,1339.723 2189.691,1247.755 2218.626,1270.651 2192.342,1236.149 2197.337,1214.401 
				2211.857,1225.135 2199.109,1206.658 			"/>
			<polygon fill="#2A1E4B" points="2226.951,1426.719 2258.064,1426.719 2242.5,1269.253 			"/>
		</g>
		<g opacity="0.2">
			<polyline fill="#5E43A6" points="2202.216,1249.138 2208.959,1223.477 2197.337,1214.401 2196.947,1216.1 2192.342,1236.149 			
				"/>
			<polyline fill="#5E43A6" points="2199.109,1206.658 2242.508,1017.278 2249.209,1047.061 2208.959,1220.854 			"/>
			<polyline fill="#5E43A6" points="2201.868,1257.812 2180.23,1347.965 2168.617,1339.723 2189.691,1247.755 			"/>
		</g>
	</g>
	<g clip-path="url(#SVGID_2_)">
		<g>
			<polygon fill="#271B45" points="2147.485,1105.399 2215.486,1407.37 2200.294,1439.732 2217.946,1418.136 2234.074,1483.261 
				2147.485,1544.806 2060.896,1483.261 2085.59,1375.482 2119.503,1402.325 2088.705,1361.886 2094.553,1336.4 2111.576,1348.98 
				2096.633,1327.325 			"/>
			<polygon fill="#271B45" points="2129.254,1585.211 2165.718,1585.211 2147.478,1400.677 			"/>
		</g>
		<g opacity="0.2">
			<polyline fill="#5E43A6" points="2100.276,1377.105 2108.18,1347.041 2094.553,1336.4 2094.098,1338.391 2088.705,1361.886 			
				"/>
			<polyline fill="#5E43A6" points="2096.633,1327.325 2147.485,1105.399 2155.347,1140.294 2108.18,1343.961 			"/>
			<polyline fill="#5E43A6" points="2099.863,1387.279 2074.507,1492.927 2060.896,1483.261 2085.59,1375.482 			"/>
		</g>
	</g>
	<g clip-path="url(#SVGID_2_)">
		<g>
			<polygon fill="#2A1E4B" points="2324.392,1000.044 2382.419,1257.729 2369.446,1285.338 2384.515,1266.913 2398.273,1322.487 
				2324.392,1375.008 2250.502,1322.487 2271.567,1230.521 2300.51,1253.417 2274.234,1218.914 2279.222,1197.167 
				2293.751,1207.899 2280.994,1189.424 			"/>
			<polygon fill="#2A1E4B" points="2308.827,1409.484 2339.948,1409.484 2324.384,1252.019 			"/>
		</g>
		<g opacity="0.2">
			<polyline fill="#5E43A6" points="2284.108,1231.902 2290.852,1206.242 2279.222,1197.167 2278.823,1198.865 2274.234,1218.914 
							"/>
			<polyline fill="#5E43A6" points="2280.994,1189.424 2324.392,1000.044 2331.093,1029.826 2290.852,1203.619 			"/>
			<polyline fill="#5E43A6" points="2283.752,1240.578 2262.115,1330.73 2250.502,1322.487 2271.567,1230.521 			"/>
		</g>
	</g>
	<g clip-path="url(#SVGID_2_)">
		<g>
			<polygon fill="#271B45" points="2257.285,1160.774 2325.286,1462.746 2310.086,1495.108 2327.746,1473.511 2343.866,1538.637 
				2257.285,1600.18 2170.688,1538.637 2195.39,1430.857 2229.303,1457.7 2198.505,1417.262 2204.353,1391.776 2221.368,1404.356 
				2206.424,1382.701 			"/>
			<polygon fill="#271B45" points="2239.045,1640.586 2275.51,1640.586 2257.269,1456.051 			"/>
		</g>
		<g opacity="0.2">
			<polyline fill="#5E43A6" points="2210.068,1432.481 2217.972,1402.416 2204.353,1391.776 2203.889,1393.766 2198.505,1417.262 
							"/>
			<polyline fill="#5E43A6" points="2206.424,1382.701 2257.285,1160.774 2265.139,1195.668 2217.972,1399.336 			"/>
			<polyline fill="#5E43A6" points="2209.654,1442.655 2184.307,1548.302 2170.688,1538.637 2195.39,1430.857 			"/>
		</g>
	</g>
	<g clip-path="url(#SVGID_2_)">
		<g>
			<polygon fill="#2A1E4B" points="2410.981,945.634 2478.982,1247.605 2463.781,1279.967 2481.442,1258.37 2497.562,1323.495 
				2410.981,1385.04 2324.384,1323.495 2349.086,1215.718 2382.999,1242.56 2352.2,1202.121 2358.049,1176.636 2375.062,1189.216 
				2360.119,1167.56 			"/>
			<polygon fill="#2A1E4B" points="2392.74,1425.446 2429.204,1425.446 2410.965,1240.911 			"/>
		</g>
		<g opacity="0.2">
			<polyline fill="#5E43A6" points="2363.764,1217.341 2371.667,1187.275 2358.049,1176.636 2357.585,1178.625 2352.2,1202.121 			
				"/>
			<polyline fill="#5E43A6" points="2360.119,1167.56 2410.981,945.634 2418.834,980.528 2371.667,1184.195 			"/>
			<polyline fill="#5E43A6" points="2363.35,1227.516 2338.002,1333.162 2324.384,1323.495 2349.086,1215.718 			"/>
		</g>
	</g>
	<g clip-path="url(#SVGID_2_)">
		<g>
			<polygon fill="#231940" points="2429.204,1159.426 2497.214,1461.396 2482.022,1493.759 2499.666,1472.162 2515.803,1537.287 
				2429.204,1598.832 2342.624,1537.287 2367.31,1429.509 2401.224,1456.352 2370.424,1415.912 2376.272,1390.427 
				2393.304,1403.007 2378.352,1381.352 			"/>
			<polygon fill="#231940" points="2410.981,1639.237 2447.445,1639.237 2429.204,1454.703 			"/>
		</g>
		<g opacity="0.2">
			<polyline fill="#5E43A6" points="2382.005,1431.132 2389.907,1401.067 2376.272,1390.427 2375.816,1392.417 2370.424,1415.912 
							"/>
			<polyline fill="#4D388A" points="2378.352,1381.352 2429.204,1159.426 2437.065,1194.32 2389.907,1397.987 			"/>
			<polyline fill="#5E43A6" points="2381.591,1441.307 2356.226,1546.953 2342.624,1537.287 2367.31,1429.509 			"/>
		</g>
	</g>
	<g clip-path="url(#SVGID_2_)">
		<g>
			<polygon fill="#2A1E4B" points="975.784,980.645 927.93,1193.146 938.623,1215.917 926.198,1200.714 914.849,1246.531 
				975.784,1289.842 1036.71,1246.531 1019.332,1170.69 995.466,1189.583 1017.136,1161.133 1013.027,1143.199 1001.049,1152.05 
				1011.57,1136.805 			"/>
			<polygon fill="#2A1E4B" points="988.607,1318.275 962.944,1318.275 975.784,1188.425 			"/>
		</g>
		<g opacity="0.2">
			<polyline fill="#DEC89B" points="1009.001,1171.84 1003.435,1150.692 1013.027,1143.199 1013.351,1144.598 1017.136,1161.133 			
				"/>
			<polyline fill="#DEC89B" points="1011.57,1136.805 975.784,980.645 970.25,1005.206 1003.435,1148.52 			"/>
			<polyline fill="#DEC89B" points="1009.292,1179.001 1027.126,1253.35 1036.71,1246.531 1019.332,1170.69 			"/>
		</g>
	</g>
	<g clip-path="url(#SVGID_2_)">
		<g>
			<polygon fill="#2A1E4B" points="1627.312,910.991 1599.181,1035.953 1605.459,1049.35 1598.153,1040.408 1591.477,1067.351 
				1627.312,1092.828 1663.147,1067.351 1652.925,1022.748 1638.893,1033.864 1651.642,1017.13 1649.223,1006.588 
				1642.173,1011.792 1648.36,1002.825 			"/>
			<polygon fill="#2A1E4B" points="1634.866,1109.546 1619.774,1109.546 1627.32,1033.182 			"/>
		</g>
		<g opacity="0.5">
			<polyline fill="#5E43A6" points="1646.854,1023.432 1643.581,1010.992 1649.223,1006.588 1649.412,1007.412 1651.642,1017.13 			
				"/>
			<polyline fill="#5E43A6" points="1648.36,1002.825 1627.312,910.991 1624.065,925.428 1643.581,1009.711 			"/>
			<polyline fill="#5E43A6" points="1647.026,1027.645 1657.515,1071.364 1663.147,1067.351 1652.925,1022.748 			"/>
		</g>
	</g>
	<g clip-path="url(#SVGID_2_)">
		<g>
			<polygon fill="#231940" points="2352.2,1183.788 2424.946,1506.822 2408.688,1541.441 2427.572,1518.337 2444.829,1588.008 
				2352.2,1653.841 2259.572,1588.008 2285.98,1472.712 2322.263,1501.427 2289.311,1458.166 2295.573,1430.899 2313.78,1444.362 
				2297.793,1421.191 			"/>
			<polygon fill="#231940" points="2332.692,1697.068 2371.7,1697.068 2352.184,1499.663 			"/>
		</g>
		<g opacity="0.2">
			<polyline fill="#4D388A" points="2301.694,1474.452 2310.152,1442.28 2295.573,1430.899 2295.076,1433.03 2289.311,1458.166 			
				"/>
			<polyline fill="#4D388A" points="2297.793,1421.191 2352.2,1183.788 2360.6,1221.112 2310.152,1438.991 			"/>
			<polyline fill="#4D388A" points="2301.256,1485.333 2274.126,1598.349 2259.572,1588.008 2285.98,1472.712 			"/>
		</g>
	</g>
	<polygon opacity="0.5" clip-path="url(#SVGID_2_)" fill="#25204D" points="1554.399,1403.481 1805.494,1525.43 2111.377,1700.682 
		1916.611,1634.249 1799.372,1584.628 1717.355,1506.674 1570.743,1468.391 	"/>
	<polyline opacity="0.5" clip-path="url(#SVGID_2_)" fill="#25204D" points="1209.963,1311.14 990.869,1389.662 1148.383,1621.729 
		1198.167,1654.372 1313.443,1861.871 1287.126,1642.476 1295.485,1603.86 1198.167,1562.531 1173.184,1481.896 1083.289,1415.729 
		1218.446,1308.892 	"/>
	<g clip-path="url(#SVGID_2_)">
		<g>
			<polygon fill="#231940" points="2526.34,1116.189 2619.407,1529.453 2598.607,1573.745 2622.761,1544.188 2644.846,1633.309 
				2526.34,1717.551 2407.833,1633.309 2441.63,1485.815 2488.035,1522.55 2445.889,1467.208 2453.892,1432.34 2477.193,1449.54 
				2456.731,1419.901 			"/>
			<polygon fill="#231940" points="2501.389,1772.842 2551.291,1772.842 2526.322,1520.294 			"/>
		</g>
		<g opacity="0.2">
			<polyline fill="#4D388A" points="2461.727,1488.031 2472.547,1446.894 2453.892,1432.34 2453.261,1435.055 2445.889,1467.208 			
				"/>
			<polyline fill="#4D388A" points="2456.731,1419.901 2526.34,1116.189 2537.092,1163.947 2472.547,1442.672 			"/>
			<polyline fill="#4D388A" points="2461.164,1501.96 2426.455,1646.547 2407.833,1633.309 2441.63,1485.815 			"/>
		</g>
	</g>
	<g clip-path="url(#SVGID_2_)">
		<g>
			<polygon fill="#1F1638" points="2715.828,986.798 2845.055,1560.607 2816.177,1622.111 2849.718,1581.073 2880.366,1704.811 
				2715.828,1821.773 2551.291,1704.811 2598.21,1500.02 2662.648,1551.024 2604.139,1474.186 2615.248,1425.762 2647.597,1449.657 
				2619.184,1408.494 			"/>
			<polygon fill="#1F1638" points="2681.178,1898.546 2750.479,1898.546 2715.812,1547.895 			"/>
		</g>
		<g opacity="0.15">
			<polyline fill="#5E43A6" points="2626.124,1503.092 2641.135,1445.977 2615.248,1425.762 2614.379,1429.542 2604.139,1474.186 
							"/>
			<polyline fill="#5E43A6" points="2619.184,1408.494 2715.828,986.798 2730.756,1053.113 2641.135,1440.115 			"/>
			<polyline fill="#5E43A6" points="2625.338,1522.442 2577.152,1723.195 2551.291,1704.811 2598.21,1500.02 			"/>
		</g>
	</g>
	<g clip-path="url(#SVGID_2_)">
		<g>
			<polyline fill="#1F1638" points="576.966,1771.884 549.009,1884.791 699.126,1991.504 849.25,1884.791 806.433,1697.934 
				747.651,1744.477 801.032,1674.371 790.893,1630.203 761.386,1651.984 787.306,1614.435 699.126,1229.688 581.224,1753.218 			
				"/>
			<polygon fill="#1F1638" points="730.736,2061.541 667.515,2061.541 699.142,1741.611 			"/>
		</g>
		<g opacity="0.15">
			<polyline fill="#5E43A6" points="780.977,1700.739 767.275,1648.645 790.893,1630.203 791.696,1633.634 801.032,1674.371 			"/>
			<polyline fill="#5E43A6" points="787.306,1614.435 699.126,1229.688 685.508,1290.201 767.275,1643.283 			"/>
			<polyline fill="#5E43A6" points="781.698,1718.399 825.651,1901.553 849.25,1884.791 806.433,1697.934 			"/>
		</g>
	</g>
	<g clip-path="url(#SVGID_2_)">
		<g>
			<polygon fill="#1F1638" points="1028.054,1338.225 941.573,1722.212 960.907,1763.359 938.458,1735.9 917.947,1818.709 
				1028.054,1896.972 1138.161,1818.709 1106.757,1681.666 1063.641,1715.802 1102.789,1664.381 1095.367,1631.977 
				1073.714,1647.962 1092.724,1620.421 			"/>
			<polygon fill="#1F1638" points="1051.232,1948.352 1004.876,1948.352 1028.071,1713.704 			"/>
		</g>
		<g opacity="0.15">
			<polyline fill="#5E43A6" points="1088.085,1683.729 1078.037,1645.499 1095.367,1631.977 1095.947,1634.499 1102.789,1664.381 
							"/>
			<polyline fill="#5E43A6" points="1092.724,1620.421 1028.054,1338.225 1018.063,1382.601 1078.037,1641.585 			"/>
			<polyline fill="#5E43A6" points="1088.608,1696.668 1120.856,1831.015 1138.161,1818.709 1106.757,1681.666 			"/>
		</g>
	</g>
	<polygon clip-path="url(#SVGID_2_)" fill="#231940" points="1565.822,1329.923 1588.627,1369.596 2730.756,2005.158 2850,2005.158 
			"/>
</g>
</svg>
