<?xml version="1.0" encoding="utf-8"?>
<!-- Generator: Adobe Illustrator 17.0.0, SVG Export Plug-In . SVG Version: 6.00 Build 0)  -->
<!DOCTYPE svg PUBLIC "-//W3C//DTD SVG 1.1//EN" "http://www.w3.org/Graphics/SVG/1.1/DTD/svg11.dtd">
<svg version="1.1" id="Capa_1" xmlns="http://www.w3.org/2000/svg" xmlns:xlink="http://www.w3.org/1999/xlink" x="0px" y="0px"
	 width="1400px" height="980px" viewBox="0 0 1400 980" enable-background="new 0 0 1400 980" xml:space="preserve">
<g>
	<defs>
		<rect id="SVGID_1_" width="1400" height="980"/>
	</defs>
	<clipPath id="SVGID_2_">
		<use xlink:href="#SVGID_1_"  overflow="visible"/>
	</clipPath>
	<polygon clip-path="url(#SVGID_2_)" fill="#E28B00" points="1400,980 0,805.075 0,980 	"/>
	<polygon clip-path="url(#SVGID_2_)" fill="#FFB127" points="576.899,877.156 1400,805.075 1400,980 	"/>
	<polyline clip-path="url(#SVGID_2_)" fill="#FFCA55" points="0,805.075 1400,805.075 576.899,877.156 	"/>
	<rect clip-path="url(#SVGID_2_)" fill="#FFE8BB" width="1400" height="805.075"/>
	<path clip-path="url(#SVGID_2_)" fill="#FFFFFF" d="M685.434,318.079c-2.03,0-4.011,0.21-5.923,0.609
		c-3.327-6.625-10.153-11.187-18.054-11.262c0.077-0.784,0.117-1.579,0.117-2.383c0-13.394-10.858-24.251-24.251-24.251
		c-12.092,0-22.116,8.851-23.95,20.428c-2.446-1.35-5.258-2.12-8.25-2.12c-9.442,0-17.096,7.654-17.096,17.096
		c0,1.269,0.139,2.505,0.402,3.695c-10.141,0.612-19.015,5.918-24.478,13.774h147.107
		C706.257,324.405,696.584,318.079,685.434,318.079z"/>
	<path clip-path="url(#SVGID_2_)" fill="#FFFFFF" d="M915.679,204.686c-1.603,0-3.168,0.166-4.677,0.481
		c-2.627-5.232-8.018-8.835-14.257-8.894c0.06-0.619,0.092-1.247,0.092-1.882c0-10.577-8.574-19.152-19.152-19.152
		c-9.55,0-17.466,6.99-18.914,16.132c-1.932-1.066-4.152-1.674-6.515-1.674c-7.456,0-13.501,6.045-13.501,13.501
		c0,1.002,0.11,1.978,0.317,2.918c-8.008,0.483-15.016,4.673-19.331,10.877h116.173
		C932.123,209.682,924.485,204.686,915.679,204.686z"/>
	<path clip-path="url(#SVGID_2_)" fill="#FFFFFF" d="M1168.856,241.047c2.506,0,4.951,0.259,7.31,0.752
		c4.106-8.177,12.532-13.808,22.283-13.9c-0.094-0.968-0.144-1.949-0.144-2.942c0-16.531,13.401-29.932,29.932-29.932
		c14.925,0,27.297,10.924,29.561,25.213c3.019-1.667,6.49-2.616,10.182-2.616c11.654,0,21.101,9.447,21.101,21.101
		c0,1.566-0.172,3.092-0.496,4.561c12.516,0.755,23.469,7.304,30.213,17H1137.23
		C1143.156,248.855,1155.094,241.047,1168.856,241.047z"/>
	<path clip-path="url(#SVGID_2_)" fill="#FFFFFF" d="M733.137,95.686c1.603,0,3.168,0.166,4.677,0.481
		c2.627-5.232,8.018-8.835,14.257-8.894c-0.06-0.619-0.092-1.247-0.092-1.882c0-10.577,8.574-19.152,19.152-19.152
		c9.55,0,17.466,6.99,18.914,16.132c1.932-1.066,4.152-1.674,6.515-1.674c7.456,0,13.501,6.045,13.501,13.501
		c0,1.002-0.11,1.978-0.317,2.918c8.008,0.483,15.016,4.673,19.331,10.877H712.902C716.694,100.682,724.332,95.686,733.137,95.686z"
		/>
	<circle clip-path="url(#SVGID_2_)" fill="#FFB127" cx="263.01" cy="231.12" r="106.086"/>
	<polyline clip-path="url(#SVGID_2_)" fill="#FFCA55" points="0,279.678 127.943,103 215.712,220.202 253.282,181.608 371,326.288 
		455.494,207.711 630.261,495.905 403,708.702 1.96,601.479 	"/>
	<g clip-path="url(#SVGID_2_)">
		<rect x="585.51" y="413.114" fill="#7B6A58" width="6.07" height="29.464"/>
		<rect x="588.545" y="413.114" fill="#634E42" width="3.035" height="29.464"/>
		<polygon fill="#FFB127" points="599.342,414.458 593.943,414.458 599.342,427.845 577.749,427.845 583.148,414.458 
			577.749,414.458 583.148,402.702 577.749,402.702 585.845,383.089 588.545,376.549 599.342,402.702 593.943,402.702 		"/>
		<polygon fill="#FFCA55" points="593.943,414.458 588.545,414.458 593.943,427.845 577.749,427.845 583.148,414.458 
			577.749,414.458 583.148,402.702 577.749,402.702 585.845,383.089 593.943,402.702 588.545,402.702 		"/>
	</g>
	<g clip-path="url(#SVGID_2_)">
		<rect x="600.859" y="397.943" fill="#7B6A58" width="6.874" height="33.364"/>
		<rect x="604.296" y="397.943" fill="#634E42" width="3.437" height="33.364"/>
		<polygon fill="#FFB127" points="616.522,399.465 610.409,399.465 616.522,414.624 592.071,414.624 598.185,399.465 
			592.071,399.465 598.185,386.153 592.071,386.153 601.239,363.943 604.296,356.538 616.522,386.153 610.409,386.153 		"/>
		<polygon fill="#FFCA55" points="610.409,399.465 604.296,399.465 610.409,414.624 592.071,414.624 598.185,399.465 
			592.071,399.465 598.185,386.153 592.071,386.153 601.239,363.943 610.409,386.153 604.296,386.153 		"/>
	</g>
	<g clip-path="url(#SVGID_2_)">
		<rect x="743.707" y="399.313" fill="#7B6A58" width="6.874" height="33.364"/>
		<rect x="747.144" y="399.313" fill="#634E42" width="3.437" height="33.364"/>
		<polygon fill="#FFB127" points="759.37,400.836 753.257,400.836 759.37,415.995 734.919,415.995 741.032,400.836 734.919,400.836 
			741.032,387.523 734.919,387.523 744.087,365.314 747.144,357.909 759.37,387.523 753.257,387.523 		"/>
		<polygon fill="#FFCA55" points="753.257,400.836 747.144,400.836 753.257,415.995 734.919,415.995 741.032,400.836 
			734.919,400.836 741.032,387.523 734.919,387.523 744.087,365.314 753.257,387.523 747.144,387.523 		"/>
	</g>
	<g clip-path="url(#SVGID_2_)">
		<rect x="669.041" y="341.227" fill="#7B6A58" width="6.874" height="33.364"/>
		<rect x="672.477" y="341.227" fill="#634E42" width="3.437" height="33.364"/>
		<polygon fill="#FFB127" points="684.703,342.749 678.59,342.749 684.703,357.908 660.252,357.908 666.366,342.749 
			660.252,342.749 666.366,329.437 660.252,329.437 669.42,307.227 672.477,299.822 684.703,329.437 678.59,329.437 		"/>
		<polygon fill="#FFCA55" points="678.59,342.749 672.477,342.749 678.59,357.908 660.252,357.908 666.366,342.749 660.252,342.749 
			666.366,329.437 660.252,329.437 669.42,307.227 678.59,329.437 672.477,329.437 		"/>
	</g>
	<polygon clip-path="url(#SVGID_2_)" fill="#FFB127" points="0,470.223 35.065,435.158 291,620.03 461,461 517,495.905 
		672.478,368.151 770.988,445.093 770.988,805.075 5,805.075 	"/>
	<g clip-path="url(#SVGID_2_)">
		<rect x="57.291" y="484.703" fill="#7B6A58" width="7.704" height="37.392"/>
		<rect x="61.143" y="484.703" fill="#634E42" width="3.852" height="37.392"/>
		<polygon fill="#FFB127" points="74.844,486.409 67.993,486.409 74.844,503.398 47.442,503.398 54.293,486.409 47.442,486.409 
			54.293,471.489 47.442,471.489 57.716,446.599 61.142,438.3 74.844,471.489 67.993,471.489 		"/>
		<polygon fill="#FFCA55" points="67.993,486.409 61.142,486.409 67.993,503.398 47.442,503.398 54.293,486.409 47.442,486.409 
			54.293,471.489 47.442,471.489 57.716,446.599 67.993,471.489 61.142,471.489 		"/>
	</g>
	<g clip-path="url(#SVGID_2_)">
		<rect x="76.77" y="465.45" fill="#7B6A58" width="8.724" height="42.342"/>
		<rect x="81.132" y="465.45" fill="#634E42" width="4.362" height="42.342"/>
		<polygon fill="#FFB127" points="96.648,467.382 88.89,467.382 96.648,486.619 65.618,486.619 73.376,467.382 65.618,467.382 
			73.376,450.487 65.618,450.487 77.252,422.302 81.131,412.904 96.648,450.487 88.89,450.487 		"/>
		<polygon fill="#FFCA55" points="88.89,467.382 81.131,467.382 88.89,486.619 65.618,486.619 73.376,467.382 65.618,467.382 
			73.376,450.487 65.618,450.487 77.252,422.302 88.89,450.487 81.131,450.487 		"/>
	</g>
	<polyline clip-path="url(#SVGID_2_)" fill="#E28B00" points="770.988,805.075 480.519,589.456 420.792,641.79 151.537,445.093 
		0,561.959 0,805.075 	"/>
	<g clip-path="url(#SVGID_2_)">
		<circle fill="#634E42" cx="1070.058" cy="259.542" r="20.136"/>
		<rect x="1049.923" y="259.542" fill="#7B6A58" width="40.272" height="78.679"/>
		<rect x="1069.313" y="259.542" fill="#634E42" width="20.882" height="78.679"/>
		<rect x="1066.703" y="190.558" fill="#634E42" width="5.22" height="59.289"/>
		<rect x="1048.431" y="207.711" fill="#634E42" width="41.763" height="5.22"/>
		<path fill="#634E42" d="M1244.204,501.157v303.917h-174.891V326.288c48.304,0,87.457,39.153,87.457,87.434
			C1156.77,461.534,1196.594,500.374,1244.204,501.157z"/>
		<path fill="#7B6A58" d="M1201.896,501.157v303.917h-132.583V337.207c26.915,14.9,45.127,43.583,45.127,76.516
			C1114.44,461.534,1154.264,500.374,1201.896,501.157z"/>
		<circle fill="#634E42" cx="1306.204" cy="201.744" r="20.136"/>
		<rect x="1286.068" y="201.744" fill="#7B6A58" width="40.272" height="78.679"/>
		<circle fill="#634E42" cx="1306.204" cy="326.288" r="61.899"/>
		<rect x="1244.305" y="326.288" fill="#7B6A58" width="123.798" height="478.786"/>
		<rect x="1337.154" y="326.288" fill="#634E42" width="30.95" height="478.786"/>
		<rect x="1274.881" y="749.142" fill="#634E42" width="31.322" height="55.933"/>
		<rect x="1069.313" y="719.311" fill="#634E42" width="60.788" height="85.764"/>
		<rect x="1170.372" y="749.142" fill="#634E42" width="33.56" height="55.933"/>
		<rect x="1235.356" y="712.599" fill="#FFB127" width="139.46" height="13.424"/>
		<rect x="1274.881" y="656.573" fill="#634E42" width="31.322" height="55.933"/>
		<rect x="1171.491" y="656.573" fill="#634E42" width="31.322" height="55.933"/>
		<rect x="1171.491" y="510.867" fill="#634E42" width="31.322" height="55.933"/>
		<rect x="1114.439" y="510.867" fill="#634E42" width="31.322" height="55.933"/>
		<rect x="1274.881" y="452.231" fill="#634E42" width="31.322" height="55.933"/>
		<rect x="1302.848" y="132.76" fill="#634E42" width="5.22" height="59.289"/>
		<rect x="1284.577" y="149.913" fill="#634E42" width="41.763" height="5.22"/>
		<rect x="1235.356" y="620.03" fill="#FFB127" width="139.46" height="13.424"/>
		<g>
			<rect x="1235.356" y="508.164" fill="#FFB127" width="139.46" height="13.424"/>
			<rect x="1235.356" y="470.223" fill="#FFB127" width="139.46" height="13.424"/>
			<g>
				<rect x="1235.356" y="470.223" fill="#FFB127" width="8.949" height="51.365"/>
				<rect x="1251.763" y="470.223" fill="#FFB127" width="8.949" height="51.365"/>
				<rect x="1268.17" y="470.223" fill="#FFB127" width="8.949" height="51.365"/>
				<rect x="1284.577" y="470.223" fill="#FFB127" width="8.949" height="51.365"/>
				<rect x="1300.984" y="470.223" fill="#FFB127" width="8.949" height="51.365"/>
				<rect x="1317.391" y="470.223" fill="#FFB127" width="8.949" height="51.365"/>
				<rect x="1333.798" y="470.223" fill="#FFB127" width="8.949" height="51.365"/>
				<rect x="1350.205" y="470.223" fill="#FFB127" width="8.949" height="51.365"/>
				<rect x="1366.612" y="470.223" fill="#FFB127" width="8.949" height="51.365"/>
			</g>
		</g>
		<circle fill="#634E42" cx="1290.543" cy="571.648" r="29.831"/>
		<circle fill="#634E42" cx="1290.543" cy="392.103" r="29.831"/>
		<path fill="#7B6A58" d="M1069.686,326.288c-48.304,0-87.457,39.153-87.457,87.434c0,47.811-39.824,86.651-87.434,87.434v303.917
			h174.891V583.356V326.288z"/>
		<circle fill="#634E42" cx="832.888" cy="201.744" r="20.136"/>
		<rect x="812.752" y="201.744" fill="#7B6A58" width="40.272" height="78.679"/>
		<rect x="831.769" y="201.744" fill="#634E42" width="21.255" height="78.679"/>
		<rect x="1305.085" y="201.744" fill="#634E42" width="21.255" height="78.679"/>
		<circle fill="#634E42" cx="832.888" cy="326.288" r="61.899"/>
		<rect x="770.988" y="326.288" fill="#7B6A58" width="123.798" height="478.786"/>
		<rect x="863.837" y="326.288" fill="#634E42" width="30.95" height="478.786"/>
		<rect x="801.565" y="749.142" fill="#634E42" width="31.322" height="55.933"/>
		<rect x="1008.897" y="719.311" fill="#634E42" width="60.788" height="85.764"/>
		<rect x="935.066" y="749.142" fill="#634E42" width="33.56" height="55.933"/>
		<rect x="762.039" y="712.599" fill="#FFB127" width="139.46" height="13.424"/>
		<rect x="801.565" y="656.573" fill="#634E42" width="31.322" height="55.933"/>
		<rect x="1054.024" y="541.817" fill="#634E42" width="31.322" height="81.662"/>
		<rect x="936.185" y="656.573" fill="#634E42" width="31.322" height="55.933"/>
		<rect x="936.185" y="510.867" fill="#634E42" width="31.322" height="55.933"/>
		<rect x="993.236" y="510.867" fill="#634E42" width="31.322" height="55.933"/>
		<polygon fill="#634E42" points="1041.719,700.2 1069.686,668.878 1069.686,668.878 1097.652,700.2 		"/>
		<rect x="801.565" y="452.231" fill="#634E42" width="31.322" height="55.933"/>
		<rect x="829.532" y="132.76" fill="#634E42" width="5.22" height="59.289"/>
		<rect x="811.26" y="149.913" fill="#634E42" width="41.763" height="5.22"/>
		<rect x="762.039" y="620.03" fill="#FFB127" width="139.46" height="13.424"/>
		<g>
			<rect x="762.039" y="508.164" fill="#FFB127" width="139.46" height="13.424"/>
			<rect x="762.039" y="470.223" fill="#FFB127" width="139.46" height="13.424"/>
			<g>
				<rect x="762.039" y="470.223" fill="#FFB127" width="8.949" height="51.365"/>
				<rect x="778.446" y="470.223" fill="#FFB127" width="8.949" height="51.365"/>
				<rect x="794.853" y="470.223" fill="#FFB127" width="8.949" height="51.365"/>
				<rect x="811.26" y="470.223" fill="#FFB127" width="8.949" height="51.365"/>
				<rect x="827.667" y="470.223" fill="#FFB127" width="8.949" height="51.365"/>
				<rect x="844.074" y="470.223" fill="#FFB127" width="8.949" height="51.365"/>
				<rect x="860.481" y="470.223" fill="#FFB127" width="8.949" height="51.365"/>
				<rect x="876.888" y="470.223" fill="#FFB127" width="8.949" height="51.365"/>
				<rect x="893.295" y="470.223" fill="#FFB127" width="8.949" height="51.365"/>
			</g>
		</g>
		<g>
			<rect x="999.583" y="620.03" fill="#FFB127" width="139.46" height="13.424"/>
			<rect x="999.583" y="582.089" fill="#FFB127" width="139.46" height="13.424"/>
			<g>
				<rect x="999.583" y="582.089" fill="#FFB127" width="8.949" height="51.365"/>
				<rect x="1015.99" y="582.089" fill="#FFB127" width="8.949" height="51.365"/>
				<rect x="1032.397" y="582.089" fill="#FFB127" width="8.949" height="51.365"/>
				<rect x="1048.804" y="582.089" fill="#FFB127" width="8.949" height="51.365"/>
				<rect x="1065.211" y="582.089" fill="#FFB127" width="8.949" height="51.365"/>
				<rect x="1081.618" y="582.089" fill="#FFB127" width="8.949" height="51.365"/>
				<rect x="1098.025" y="582.089" fill="#FFB127" width="8.949" height="51.365"/>
				<rect x="1114.432" y="582.089" fill="#FFB127" width="8.949" height="51.365"/>
				<rect x="1130.839" y="582.089" fill="#FFB127" width="8.949" height="51.365"/>
			</g>
		</g>
		<circle fill="#634E42" cx="817.226" cy="571.648" r="29.831"/>
		<circle fill="#634E42" cx="1069.686" cy="414.243" r="60.035"/>
		<circle fill="#634E42" cx="817.226" cy="392.103" r="29.831"/>
		<path fill="#FFB127" d="M1008.532,620.03h-0.38v-24.517h0.38v-13.424h-0.38h-8.949h-7.458h-8.949h-7.458h-8.949h-7.458h-8.949
			h-7.458h-8.949h-7.458h-8.949h-7.458h-8.949v13.424v24.517v13.424h8.949h7.458h8.949h7.458h8.949h7.458h8.949h7.458h8.949h7.458
			h8.949h7.458h8.949h0.38V620.03z M917.168,620.03h-7.458v-24.517h7.458V620.03z M933.575,620.03h-7.458v-24.517h7.458V620.03z
			 M949.982,620.03h-7.458v-24.517h7.458V620.03z M966.389,620.03h-7.458v-24.517h7.458V620.03z M982.796,620.03h-7.458v-24.517
			h7.458V620.03z M999.203,620.03h-7.458v-24.517h7.458V620.03z"/>
		<path fill="#FFB127" d="M1130.839,620.03h0.38v-24.517h-0.38v-13.424h0.38h8.949h7.458h8.949h7.458h8.949h7.458h8.949h7.458h8.949
			h7.458h8.949h7.458h8.949v13.424v24.517v13.424h-8.949h-7.458h-8.949h-7.458h-8.949h-7.458h-8.949h-7.458h-8.949h-7.458h-8.949
			h-7.458h-8.949h-0.38V620.03z M1222.204,620.03h7.458v-24.517h-7.458V620.03z M1205.797,620.03h7.458v-24.517h-7.458V620.03z
			 M1189.39,620.03h7.458v-24.517h-7.458V620.03z M1172.983,620.03h7.458v-24.517h-7.458V620.03z M1156.576,620.03h7.458v-24.517
			h-7.458V620.03z M1140.169,620.03h7.458v-24.517h-7.458V620.03z"/>
		<rect x="1065.957" y="373.861" fill="#FFB127" width="8.204" height="48.242"/>
		
			<rect x="1055.82" y="416.08" transform="matrix(0.8107 0.5855 -0.5855 0.8107 455.1975 -538.2781)" fill="#FFB127" width="8.204" height="37.278"/>
		<g>
			<circle fill="#FFB127" cx="817.226" cy="397.982" r="5.214"/>
			<g>
				<path fill="#FFB127" d="M835.625,397.982h-36.798c3.843,0,6.951-3.107,6.951-6.951V379.6c0-5.348,3.647-9.813,8.586-11.072
					c0.916-0.245,1.864-0.376,2.862-0.376c6.329,0,11.448,5.119,11.448,11.448v11.432
					C828.675,394.875,831.782,397.982,835.625,397.982z"/>
				<path fill="#FFCA55" d="M829.901,397.982h-31.074c3.843,0,6.951-3.107,6.951-6.951V379.6c0-5.348,3.647-9.813,8.586-11.072
					c4.939,1.259,8.586,5.724,8.586,11.072v11.432C822.95,394.875,826.058,397.982,829.901,397.982z"/>
			</g>
		</g>
		<g>
			<circle fill="#FFB127" cx="1290.543" cy="397.982" r="5.214"/>
			<g>
				<path fill="#FFB127" d="M1308.942,397.982h-36.798c3.844,0,6.951-3.107,6.951-6.951V379.6c0-5.348,3.647-9.813,8.586-11.072
					c0.916-0.245,1.865-0.376,2.862-0.376c6.329,0,11.448,5.119,11.448,11.448v11.432
					C1301.991,394.875,1305.098,397.982,1308.942,397.982z"/>
				<path fill="#FFCA55" d="M1303.218,397.982h-31.074c3.844,0,6.951-3.107,6.951-6.951V379.6c0-5.348,3.647-9.813,8.586-11.072
					c4.939,1.259,8.586,5.724,8.586,11.072v11.432C1296.267,394.875,1299.374,397.982,1303.218,397.982z"/>
			</g>
		</g>
		<g>
			<circle fill="#FFB127" cx="817.226" cy="576.875" r="5.214"/>
			<g>
				<path fill="#FFB127" d="M835.625,576.875h-36.798c3.843,0,6.951-3.107,6.951-6.951v-11.432c0-5.348,3.647-9.813,8.586-11.072
					c0.916-0.245,1.864-0.376,2.862-0.376c6.329,0,11.448,5.119,11.448,11.448v11.432
					C828.675,573.767,831.782,576.875,835.625,576.875z"/>
				<path fill="#FFCA55" d="M829.901,576.875h-31.074c3.843,0,6.951-3.107,6.951-6.951v-11.432c0-5.348,3.647-9.813,8.586-11.072
					c4.939,1.259,8.586,5.724,8.586,11.072v11.432C822.95,573.767,826.058,576.875,829.901,576.875z"/>
			</g>
		</g>
		<g>
			<circle fill="#FFB127" cx="1290.543" cy="576.875" r="5.214"/>
			<g>
				<path fill="#FFB127" d="M1308.942,576.875h-36.798c3.844,0,6.951-3.107,6.951-6.951v-11.432c0-5.348,3.647-9.813,8.586-11.072
					c0.916-0.245,1.865-0.376,2.862-0.376c6.329,0,11.448,5.119,11.448,11.448v11.432
					C1301.991,573.767,1305.098,576.875,1308.942,576.875z"/>
				<path fill="#FFCA55" d="M1303.218,576.875h-31.074c3.844,0,6.951-3.107,6.951-6.951v-11.432c0-5.348,3.647-9.813,8.586-11.072
					c4.939,1.259,8.586,5.724,8.586,11.072v11.432C1296.267,573.767,1299.374,576.875,1303.218,576.875z"/>
			</g>
		</g>
	</g>
	<g clip-path="url(#SVGID_2_)">
		<rect x="1334.477" y="811.294" fill="#7B6A58" width="49.349" height="239.529"/>
		<rect x="1359.152" y="811.294" fill="#634E42" width="24.675" height="239.529"/>
		<polygon fill="#FFB127" points="1446.923,822.224 1403.035,822.224 1446.923,931.052 1271.385,931.052 1315.273,822.224 
			1271.385,822.224 1315.273,726.651 1271.385,726.651 1337.203,567.205 1359.147,514.042 1446.923,726.651 1403.035,726.651 		"/>
		<polygon fill="#FFCA55" points="1403.035,822.224 1359.147,822.224 1403.035,931.052 1271.385,931.052 1315.273,822.224 
			1271.385,822.224 1315.273,726.651 1271.385,726.651 1337.203,567.205 1403.035,726.651 1359.147,726.651 		"/>
	</g>
	<g clip-path="url(#SVGID_2_)">
		<rect x="154.584" y="784.747" fill="#7B6A58" width="42.252" height="205.081"/>
		<rect x="175.71" y="784.747" fill="#634E42" width="21.126" height="205.081"/>
		<polygon fill="#FFB127" points="250.858,794.105 213.282,794.105 250.858,887.282 100.565,887.282 138.141,794.105 
			100.565,794.105 138.141,712.277 100.565,712.277 156.917,575.762 175.705,530.245 250.858,712.277 213.282,712.277 		"/>
		<polygon fill="#FFCA55" points="213.282,794.105 175.705,794.105 213.282,887.282 100.565,887.282 138.141,794.105 
			100.565,794.105 138.141,712.277 100.565,712.277 156.917,575.762 213.282,712.277 175.705,712.277 		"/>
	</g>
	<g clip-path="url(#SVGID_2_)">
		<rect x="714.134" y="734.756" fill="#7B6A58" width="14.488" height="70.319"/>
		<rect x="721.378" y="734.756" fill="#634E42" width="7.244" height="70.319"/>
		<polygon fill="#FFB127" points="747.145,737.964 734.26,737.964 747.145,769.913 695.612,769.913 708.496,737.964 
			695.612,737.964 708.496,709.907 695.612,709.907 714.934,663.098 721.376,647.491 747.145,709.907 734.26,709.907 		"/>
		<polygon fill="#FFCA55" points="734.26,737.964 721.376,737.964 734.26,769.913 695.612,769.913 708.496,737.964 695.612,737.964 
			708.496,709.907 695.612,709.907 714.934,663.098 734.26,709.907 721.376,709.907 		"/>
	</g>
	<g clip-path="url(#SVGID_2_)">
		<rect x="630.261" y="734.756" fill="#7B6A58" width="14.488" height="70.319"/>
		<rect x="637.505" y="734.756" fill="#634E42" width="7.244" height="70.319"/>
		<polygon fill="#FFB127" points="663.272,737.964 650.387,737.964 663.272,769.913 611.739,769.913 624.623,737.964 
			611.739,737.964 624.623,709.907 611.739,709.907 631.061,663.098 637.503,647.491 663.272,709.907 650.387,709.907 		"/>
		<polygon fill="#FFCA55" points="650.387,737.964 637.503,737.964 650.387,769.913 611.739,769.913 624.623,737.964 
			611.739,737.964 624.623,709.907 611.739,709.907 631.061,663.098 650.387,709.907 637.503,709.907 		"/>
	</g>
	<g clip-path="url(#SVGID_2_)">
		<rect x="660.189" y="745.428" fill="#7B6A58" width="12.289" height="59.646"/>
		<rect x="666.333" y="745.428" fill="#634E42" width="6.144" height="59.646"/>
		<polygon fill="#FFB127" points="688.19,748.15 677.261,748.15 688.19,775.25 644.478,775.25 655.407,748.15 644.478,748.15 
			655.407,724.351 644.478,724.351 660.868,684.647 666.332,671.408 688.19,724.351 677.261,724.351 		"/>
		<polygon fill="#FFCA55" points="677.261,748.15 666.332,748.15 677.261,775.25 644.478,775.25 655.407,748.15 644.478,748.15 
			655.407,724.351 644.478,724.351 660.868,684.647 677.261,724.351 666.332,724.351 		"/>
	</g>
	<g clip-path="url(#SVGID_2_)">
		<rect x="1253.505" y="816.853" fill="#7B6A58" width="35.756" height="173.551"/>
		<rect x="1271.384" y="816.853" fill="#634E42" width="17.878" height="173.551"/>
		<polygon fill="#FFB127" points="1334.978,824.773 1303.179,824.773 1334.978,903.624 1207.792,903.624 1239.591,824.773 
			1207.792,824.773 1239.591,755.525 1207.792,755.525 1255.48,639.998 1271.38,601.479 1334.978,755.525 1303.179,755.525 		"/>
		<polygon fill="#FFCA55" points="1303.179,824.773 1271.38,824.773 1303.179,903.624 1207.792,903.624 1239.591,824.773 
			1207.792,824.773 1239.591,755.525 1207.792,755.525 1255.48,639.998 1303.179,755.525 1271.38,755.525 		"/>
	</g>
	<g clip-path="url(#SVGID_2_)">
		<rect x="70.065" y="820.589" fill="#7B6A58" width="35.756" height="173.551"/>
		<rect x="87.943" y="820.589" fill="#634E42" width="17.878" height="173.551"/>
		<polygon fill="#FFB127" points="151.537,828.509 119.738,828.509 151.537,907.36 24.351,907.36 56.15,828.509 24.351,828.509 
			56.15,759.261 24.351,759.261 72.039,643.734 87.939,605.215 151.537,759.261 119.738,759.261 		"/>
		<polygon fill="#FFCA55" points="119.738,828.509 87.939,828.509 119.738,907.36 24.351,907.36 56.15,828.509 24.351,828.509 
			56.15,759.261 24.351,759.261 72.039,643.734 119.738,759.261 87.939,759.261 		"/>
	</g>
	<path clip-path="url(#SVGID_2_)" fill="#FFCA55" d="M35.065,435.158"/>
	<path clip-path="url(#SVGID_2_)" fill="#FFFFFF" d="M368.38,159.771c-1.356,0-2.679,0.14-3.956,0.407
		c-2.222-4.424-6.781-7.472-12.058-7.522c0.051-0.524,0.078-1.055,0.078-1.592c0-8.945-7.252-16.197-16.197-16.197
		c-8.076,0-14.771,5.911-15.996,13.643c-1.634-0.902-3.512-1.416-5.51-1.416c-6.306,0-11.418,5.112-11.418,11.418
		c0,0.847,0.093,1.673,0.268,2.468c-6.773,0.409-12.7,3.952-16.349,9.199h98.251C382.287,163.996,375.827,159.771,368.38,159.771z"
		/>
	<path clip-path="url(#SVGID_2_)" fill="#FFFFFF" d="M125.875,197.173c-1.674,0-3.307,0.173-4.883,0.502
		c-2.743-5.462-8.371-9.223-14.884-9.285c0.063-0.647,0.096-1.302,0.096-1.965c0-11.042-8.951-19.994-19.994-19.994
		c-9.969,0-18.234,7.297-19.745,16.841c-2.017-1.113-4.335-1.748-6.801-1.748c-7.784,0-14.095,6.31-14.095,14.095
		c0,1.046,0.115,2.065,0.331,3.046c-8.36,0.504-15.677,4.879-20.181,11.356H147C143.041,202.388,135.067,197.173,125.875,197.173z"
		/>
</g>
</svg>
