<?xml version="1.0" encoding="UTF-8"?>
<svg width="68px" height="30px" viewBox="0 0 68 30" version="1.1" xmlns="http://www.w3.org/2000/svg" xmlns:xlink="http://www.w3.org/1999/xlink">
    <!-- Generator: Sketch 48.1 (47250) - http://www.bohemiancoding.com/sketch -->
    <title>Artboard</title>
    <desc>Created with Sketch.</desc>
    <defs></defs>
    <g id="Page-1" stroke="none" stroke-width="1" fill="none" fill-rule="evenodd">
        <g id="Artboard">
            <g id="Group-2" transform="translate(2.233723, 2.000000)">
                <g id="koi" transform="translate(0.962548, 1.000000)" fill-rule="nonzero">
                    <g id="Group" fill="#F0BDD5">
                        <path d="M2.33933774,10.6968401 C0.884206649,10.5074136 -0.141861012,9.17418924 0.0476118412,7.71905815 L0.167430334,6.79865536 C0.262143558,6.07106661 0.92875574,5.55805599 1.65634449,5.65281561 C2.38393324,5.74752884 2.89694387,6.41414102 2.80218424,7.14168337 L2.33933774,10.6968401 Z" id="Shape"></path>
                        <path d="M7.25171034,10.603519 C8.60256872,11.1766245 10.1622974,10.546162 10.7354029,9.19530366 L11.0979211,8.34088921 C11.3844738,7.66546002 11.0692426,6.8856189 10.3938134,6.59906615 C9.71838424,6.31251341 8.93854311,6.62774463 8.65194396,7.30317382 L7.25171034,10.603519 Z" id="Shape"></path>
                        <path d="M16.8546846,0.385999313 C16.8546846,0.172813349 16.6818712,0 16.4686853,0 L14.9378671,0 C13.334007,0 12.0338697,1.30018379 12.0338697,2.90399747 L12.0338697,3.67604251 C12.0338697,5.2799026 13.3340534,6.58003998 14.9378671,6.58003998 L16.4686853,6.58003998 C16.6818712,6.58003998 16.8546846,6.40722663 16.8546846,6.19404067 C16.8546846,4.59018057 15.5545008,3.29004319 13.9506871,3.29004319 C15.5545008,3.29004319 16.8546846,1.98985941 16.8546846,0.385999313 Z" id="Shape"></path>
                    </g>
                    <g id="Group" transform="translate(0.649674, 2.181049)" fill="#C06376" opacity="0.3">
                        <path d="M11.9835663,0.0337366555 L11.4723191,0.0112764887 C11.4149157,0.239033717 11.384149,0.477371355 11.384149,0.72294822 L11.384149,1.49499325 C11.384149,1.76887735 11.4228974,2.0335732 11.4937583,2.28476511 C11.6778482,2.23655 11.8672282,2.20063229 12.0611096,2.1779865 C12.6035412,2.11464327 13.0125575,1.65509155 13.0125575,1.10899394 C13.0126039,0.532964908 12.5590385,0.0590275458 11.9835663,0.0337366555 Z" id="Shape"></path>
                        <path d="M8.00226971,5.12207816 L6.60203609,8.42246974 C7.24024823,8.69324468 7.92495848,8.69505449 8.53031566,8.47950185 L8.53031566,6.25283619 C8.53031566,5.54223178 8.74122776,4.8765477 9.10574142,4.31773504 C8.63384589,4.36075276 8.20028114,4.65538003 8.00226971,5.12207816 Z" id="Shape"></path>
                        <path d="M1.70859686,3.78815772 C0.907177274,4.9246236 0.329941706,6.2301904 0.0422752313,7.64007632 C0.452776544,8.10496465 1.02634609,8.42943053 1.6896635,8.5157908 L2.15250999,4.96063411 C2.212048,4.50344906 2.03148496,4.07044118 1.70859686,3.78815772 Z" id="Shape"></path>
                    </g>
                    <path d="M8.62312627,11.8797576 L8.62312627,8.43383904 C8.62312627,6.35214354 10.1821588,4.60048255 12.2497935,4.35903576 C12.7922251,4.29569252 13.2012415,3.8361408 13.2012415,3.29004319 C13.2012415,2.71401416 12.7477224,2.24012321 12.1722503,2.21478591 L11.1862304,2.17144336 C5.65713131,1.92837238 1.04175265,6.34532196 1.04175265,11.8797576 C1.04175265,13.9732865 2.73888741,15.6704677 4.83246266,15.6704677 C6.92599152,15.6704677 8.62312627,13.9732865 8.62312627,11.8797576 Z" id="Shape" fill="#E978A0"></path>
                    <path d="M4.79445672,11.3527326 C3.62736334,11.3527326 2.50899553,10.117377 1.1007802,10.8057997 C1.06207818,11.1583408 1.04170625,11.5165433 1.04170625,11.8797112 C1.04170625,13.9732401 2.73888741,15.6704212 4.83241626,15.6704212 C6.92594511,15.6704212 8.62312627,13.9732865 8.62312627,11.8797112 L8.62312627,10.8773567 C7.15087162,10.0377919 5.99862793,11.3527326 4.79445672,11.3527326 Z" id="Shape" fill="#C06376"></path>
                    <path d="M12.1881209,2.21589964 C12.1828307,2.2155748 12.1775869,2.21506434 12.1722503,2.21483232 L11.1862304,2.17148976 C5.65713131,1.92837238 1.04175265,6.34532196 1.04175265,11.8797576 C1.04175265,13.9732865 2.73893381,15.6704677 4.83246266,15.6704677 C5.10189185,15.6704677 5.36459228,15.641882 5.61815085,15.5884231 C4.00287506,15.1543015 2.81350713,13.6804226 2.81350713,11.9280656 C2.81346073,6.65261787 7.00701518,2.39251822 12.1881209,2.21589964 Z" id="Shape" fill="#000000" opacity="0.1"></path>
                    <g id="Group" transform="translate(2.227455, 12.529432)" fill="#485358">
                        <path d="M0.387252256,1.09609326 C0.194995084,1.09609326 0.0392124813,0.940264255 0.0392124813,0.748053489 L0.0392124813,0.386231339 C0.0392124813,0.194020573 0.194995084,0.0381915646 0.387252256,0.0381915646 C0.579509427,0.0381915646 0.735292031,0.194020573 0.735292031,0.386231339 L0.735292031,0.748053489 C0.735292031,0.940264255 0.579463022,1.09609326 0.387252256,1.09609326 Z" id="Shape"></path>
                        <path d="M4.74679847,1.09609326 C4.55458771,1.09609326 4.3987587,0.940264255 4.3987587,0.748053489 L4.3987587,0.386231339 C4.3987587,0.194020573 4.55458771,0.0381915646 4.74679847,0.0381915646 C4.93905564,0.0381915646 5.09483825,0.194020573 5.09483825,0.386231339 L5.09483825,0.748053489 C5.09483825,0.940264255 4.93905564,1.09609326 4.74679847,1.09609326 Z" id="Shape"></path>
                    </g>
                    <path d="M4.0435261,12.1949889 C4.07693792,11.3394607 4.12979356,10.4647671 4.27411405,9.58469056 C4.4180633,8.70674862 4.65918526,7.81831909 5.06806239,6.99341842 C5.27275618,6.58208181 5.51847226,6.18935373 5.80121977,5.82776361 C6.08373526,5.46589505 6.40281813,5.13576773 6.74677423,4.8415581 C7.43450083,4.24900878 8.22051386,3.81433031 9.0232792,3.47079185 C9.22333246,3.38517406 9.45489492,3.47793827 9.54051271,3.67799153 C9.62186121,3.86802124 9.5421833,4.08654382 9.36250196,4.18130345 L9.35563398,4.18487666 C8.63727989,4.56122367 7.96407815,5.01014857 7.41385047,5.56654816 C6.8602352,6.11886408 6.43135739,6.76844551 6.14550072,7.48118456 C5.85945843,8.19499094 5.71035819,8.96606146 5.64339534,9.75819999 C5.57615405,10.5513594 5.58859068,11.3657261 5.62130641,12.1949889 C5.63847638,12.6306883 5.29925361,12.9978006 4.86355422,13.015017 C4.42785482,13.0322333 4.06074247,12.6929642 4.0435261,12.2572648 C4.04273721,12.2370785 4.04269081,12.216985 4.04338689,12.1971235 L4.0435261,12.1949889 Z" id="Shape" fill="#F0BDD5"></path>
                    <g id="Group" transform="translate(5.847068, 12.900674)" fill="#88DEDC">
                        <path d="M14.5521927,0.162000914 C16.0073237,0.351473767 17.0333914,1.68465173 16.8439186,3.13978282 L16.7241001,4.06018561 C16.6293868,4.78777436 15.9627747,5.30078498 15.2351859,5.20607176 C14.5076436,5.11135854 13.9945865,4.44474635 14.0893462,3.7171576 L14.5521927,0.162000914 Z" id="Shape"></path>
                        <path d="M9.63982006,0.255321979 C8.28896168,-0.317783517 6.72923303,0.312678934 6.15612753,1.66353731 L5.7936093,2.51795176 C5.50705656,3.19338095 5.82228778,3.97322207 6.49771697,4.25977482 C7.17314616,4.54632756 7.95298728,4.23109634 8.23958644,3.55566715 L9.63982006,0.255321979 Z" id="Shape"></path>
                        <path d="M0.0368458108,10.4728417 C0.0368458108,10.6860276 0.20965916,10.858841 0.422845124,10.858841 L1.95366327,10.858841 C3.55752336,10.858841 4.85766074,9.55865718 4.85766074,7.95484349 L4.85766074,7.18279846 C4.85766074,5.57893837 3.55747696,4.27880099 1.95366327,4.27880099 L0.422845124,4.27880099 C0.20965916,4.27880099 0.0368458108,4.45161434 0.0368458108,4.6648003 C0.0368458108,6.26866039 1.3370296,7.56879778 2.94084329,7.56879778 C1.3370296,7.56879778 0.0368458108,8.86898156 0.0368458108,10.4728417 Z" id="Shape"></path>
                    </g>
                    <g id="Group" transform="translate(9.049034, 8.074523)" fill="#51B4DB">
                        <path d="M1.05627751,13.4702066 L1.56752474,13.4926668 C1.6249281,13.2649095 1.65569482,13.0265719 1.65569482,12.7809486 L1.65569482,12.0089036 C1.65569482,11.7350195 1.61694639,11.4703237 1.54608549,11.2191317 C1.36199565,11.2673469 1.17261561,11.3032646 0.978734252,11.3259103 C0.436302662,11.3892536 0.0272863183,11.8488053 0.0272863183,12.3949029 C0.0272863183,12.9709783 0.480851753,13.4449157 1.05627751,13.4702066 Z" id="Shape" opacity="0.3"></path>
                        <path d="M5.03762051,8.3818651 L6.43785413,5.08147352 C5.79964199,4.81069858 5.11493174,4.80888877 4.50957456,5.0244414 L4.50957456,7.25110707 C4.50957456,7.96171148 4.29866246,8.62739556 3.9341488,9.18620822 C4.40604433,9.1431905 4.83960908,8.84860964 5.03762051,8.3818651 Z" id="Shape" opacity="0.3"></path>
                        <path d="M11.3312934,9.71578554 C12.132713,8.57931966 12.7099485,7.27375286 12.997615,5.86386693 C12.5871137,5.39897861 12.0135441,5.07451273 11.3502267,4.98815246 L10.8873802,8.54330915 C10.8278422,9.00049419 11.0084053,9.43350208 11.3312934,9.71578554 Z" id="Shape" opacity="0.3"></path>
                        <path d="M5.0664382,3.80523487 L5.0664382,7.25115348 C5.0664382,9.33284898 3.50740563,11.08451 1.43977094,11.3259568 C0.89733935,11.3893 0.488323007,11.8488517 0.488323007,12.3949493 C0.488323007,12.9709783 0.941842036,13.4448693 1.5173142,13.4702066 L2.50333409,13.5135492 C8.03243316,13.7566201 12.6478118,9.33967056 12.6478118,3.80523487 C12.6478118,1.71170602 10.9506771,0.0145248599 8.85710181,0.0145248599 C6.76357295,0.0145248599 5.0664382,1.71170602 5.0664382,3.80523487 Z" id="Shape"></path>
                    </g>
                    <path d="M17.9441419,12.4067827 C19.1112353,12.4067827 20.2296031,13.6421383 21.6378184,12.9537156 C21.6765204,12.6011745 21.6968924,12.242972 21.6968924,11.879804 C21.6968924,9.78627519 19.9997112,8.08909404 17.9061824,8.08909404 C15.8126535,8.08909404 14.1154723,9.78622879 14.1154723,11.879804 L14.1154723,12.8821586 C15.587727,13.7217233 16.7399707,12.4067827 17.9441419,12.4067827 Z" id="Shape" fill="#4D94AE"></path>
                    <path d="M17.9061824,8.08904763 C15.8126535,8.08904763 14.1154723,9.78618238 14.1154723,11.8797576 L14.1154723,15.3256762 C14.1154723,17.4073717 12.5564398,19.1590791 10.4888051,19.4004795 C9.94637349,19.4638228 9.53735715,19.9233745 9.53735715,20.4694721 C9.53735715,21.0455011 9.99087618,21.5193921 10.5663483,21.5447294 L10.8792593,21.5584653 C10.8654305,21.545379 10.8510913,21.5252391 10.8264965,21.5175823 C10.2314413,21.3321003 10.0080925,20.183569 11.0334641,20.183569 C12.0588357,20.183569 15.9918244,18.9179572 15.7643456,14.3679636 C15.491436,8.90851888 16.8571905,8.63635178 17.9061824,8.08904763 Z" id="Shape" fill="#000000" opacity="0.1"></path>
                    <g id="Group" transform="translate(15.406561, 10.116356)" fill="#485358">
                        <path d="M4.71733111,1.07553571 C4.52507393,1.07553571 4.36929133,0.919706706 4.36929133,0.72749594 L4.36929133,0.36567379 C4.36929133,0.173463024 4.52507393,0.0176340152 4.71733111,0.0176340152 C4.90958828,0.0176340152 5.06537088,0.173463024 5.06537088,0.36567379 L5.06537088,0.72749594 C5.06537088,0.919706706 4.90958828,1.07553571 4.71733111,1.07553571 Z" id="Shape"></path>
                        <path d="M0.357784888,1.07553571 C0.165527717,1.07553571 0.00974511369,0.919706706 0.00974511369,0.72749594 L0.00974511369,0.36567379 C0.00974511369,0.173463024 0.165527717,0.0176340152 0.357784888,0.0176340152 C0.55004206,0.0176340152 0.705824663,0.173463024 0.705824663,0.36567379 L0.705824663,0.72749594 C0.705824663,0.919706706 0.55004206,1.07553571 0.357784888,1.07553571 Z" id="Shape"></path>
                    </g>
                    <path d="M18.6950725,11.5645264 C18.6616607,12.4200546 18.6088051,13.2947481 18.4644846,14.1748247 C18.3205353,15.0527667 18.0794134,15.9411962 17.6705362,16.7660969 C17.4658424,17.1774335 17.2201263,17.5701616 16.9373788,17.9317517 C16.6548634,18.2936202 16.3357805,18.6237476 15.9918244,18.9179572 C15.3040978,19.5105065 14.5180848,19.945185 13.7153194,20.2887234 C13.5152662,20.3743412 13.2837037,20.281577 13.1980859,20.0815238 C13.1167374,19.891494 13.1964153,19.6729715 13.3760966,19.5782118 L13.3829646,19.5746386 C14.1013187,19.1982916 14.7745205,18.7493667 15.3247481,18.1929671 C15.8783634,17.6406512 16.3072412,16.9910698 16.5930979,16.2783307 C16.8791402,15.5645243 17.0282404,14.7934538 17.0952033,14.0013153 C17.1624446,13.2081559 17.1500079,12.3937892 17.1172922,11.5645264 C17.1001222,11.128827 17.4393914,10.7617147 17.8750444,10.7444983 C18.3107438,10.7272819 18.6778561,11.0665511 18.6950725,11.5022505 C18.6958614,11.5224368 18.6959078,11.5425303 18.6952117,11.5623918 L18.6950725,11.5645264 Z" id="Shape" fill="#88DEDC"></path>
                </g>
                <text id="Koi" font-family="PTSerif-Bold, PT Serif" font-size="20" font-weight="bold" fill="#555555">
                    <tspan x="29.7905057" y="20">Koi</tspan>
                </text>
            </g>
        </g>
    </g>
</svg>